Hibana-45 SubMedium.ufo
<glyph name="dollar" format="2">
	<advance width="704"/>
	<unicode hex="0024"/>
	<outline>
		<contour>
			<point x="365" y="-10" type="curve" smooth="yes"/>
			<point x="535" y="-10"/>
			<point x="655" y="52"/>
			<point x="655" y="225" type="curve" smooth="yes"/>
			<point x="655" y="349"/>
			<point x="553" y="410"/>
			<point x="442" y="427" type="curve" smooth="yes"/>
			<point x="286" y="451" type="line" smooth="yes"/>
			<point x="202" y="464"/>
			<point x="156" y="497"/>
			<point x="156" y="544" type="curve" smooth="yes"/>
			<point x="156" y="647"/>
			<point x="256" y="677"/>
			<point x="354" y="677" type="curve" smooth="yes"/>
			<point x="473" y="677"/>
			<point x="531" y="609"/>
			<point x="548" y="553" type="curve"/>
			<point x="645" y="553" type="line"/>
			<point x="641" y="646"/>
			<point x="558" y="768"/>
			<point x="343" y="768" type="curve" smooth="yes"/>
			<point x="172" y="768"/>
			<point x="60" y="681"/>
			<point x="60" y="544" type="curve" smooth="yes"/>
			<point x="60" y="428"/>
			<point x="158" y="371"/>
			<point x="259" y="355" type="curve" smooth="yes"/>
			<point x="415" y="330" type="line" smooth="yes"/>
			<point x="506" y="315"/>
			<point x="558" y="289"/>
			<point x="558" y="219" type="curve" smooth="yes"/>
			<point x="558" y="127"/>
			<point x="502" y="83"/>
			<point x="356" y="83" type="curve" smooth="yes"/>
			<point x="213" y="83"/>
			<point x="160" y="149"/>
			<point x="147" y="222" type="curve"/>
			<point x="51" y="222" type="line"/>
			<point x="51" y="107"/>
			<point x="137" y="-10"/>
		</contour>
		<contour>
			<point x="311" y="-90" type="line"/>
			<point x="401" y="-90" type="line"/>
			<point x="401" y="850" type="line"/>
			<point x="311" y="850" type="line"/>
		</contour>
	</outline>
</glyph>
<glyph name="percent" format="2">
	<advance width="898"/>
	<unicode hex="0025"/>
	<outline>
		<contour>
			<point x="211" y="392" type="curve" smooth="yes"/>
			<point x="338" y="392"/>
			<point x="385" y="461"/>
			<point x="385" y="577" type="curve" smooth="yes"/>
			<point x="385" y="693"/>
			<point x="338" y="762"/>
			<point x="211" y="762" type="curve" smooth="yes"/>
			<point x="83" y="762"/>
			<point x="36" y="693"/>
			<point x="36" y="577" type="curve" smooth="yes"/>
			<point x="36" y="461"/>
			<point x="83" y="392"/>
		</contour>
		<contour>
			<point x="211" y="465" type="curve" smooth="yes"/>
			<point x="138" y="465"/>
			<point x="112" y="498"/>
			<point x="112" y="577" type="curve" smooth="yes"/>
			<point x="112" y="657"/>
			<point x="138" y="690"/>
			<point x="211" y="690" type="curve" smooth="yes"/>
			<point x="283" y="690"/>
			<point x="309" y="657"/>
			<point x="309" y="577" type="curve" smooth="yes"/>
			<point x="309" y="498"/>
			<point x="283" y="465"/>
		</contour>
		<contour>
			<point x="702" y="-3" type="curve" smooth="yes"/>
			<point x="829" y="-3"/>
			<point x="876" y="66"/>
			<point x="876" y="182" type="curve" smooth="yes"/>
			<point x="876" y="298"/>
			<point x="829" y="367"/>
			<point x="702" y="367" type="curve" smooth="yes"/>
			<point x="574" y="367"/>
			<point x="527" y="298"/>
			<point x="527" y="182" type="curve" smooth="yes"/>
			<point x="527" y="66"/>
			<point x="574" y="-3"/>
		</contour>
		<contour>
			<point x="702" y="70" type="curve" smooth="yes"/>
			<point x="629" y="70"/>
			<point x="603" y="103"/>
			<point x="603" y="182" type="curve" smooth="yes"/>
			<point x="603" y="262"/>
			<point x="629" y="295"/>
			<point x="702" y="295" type="curve" smooth="yes"/>
			<point x="774" y="295"/>
			<point x="800" y="262"/>
			<point x="800" y="182" type="curve" smooth="yes"/>
			<point x="800" y="103"/>
			<point x="774" y="70"/>
		</contour>
		<contour>
			<point x="128" y="0" type="line"/>
			<point x="226" y="0" type="line"/>
			<point x="784" y="763" type="line"/>
			<point x="686" y="763" type="line"/>
		</contour>
	</outline>
</glyph>
<glyph name="quotesingle" format="2">
	<advance width="192"/>
	<unicode hex="0027"/>
	<outline>
		<contour>
			<point x="61" y="492" type="line"/>
			<point x="129" y="492" type="line"/>
			<point x="157" y="772" type="line"/>
			<point x="51" y="772" type="line"/>
		</contour>
	</outline>
</glyph>
<glyph name="asterisk" format="2">
	<advance width="414"/>
	<unicode hex="002A"/>
	<outline>
		<contour>
			<point x="175" y="398" type="curve"/>
			<point x="239" y="398" type="line"/>
			<point x="238" y="441"/>
			<point x="237" y="484"/>
			<point x="236" y="527" type="curve"/>
			<point x="272" y="506"/>
			<point x="308" y="484"/>
			<point x="344" y="462" type="curve"/>
			<point x="376" y="517" type="line"/>
			<point x="339" y="537"/>
			<point x="302" y="557"/>
			<point x="266" y="578" type="curve"/>
			<point x="302" y="599"/>
			<point x="339" y="619"/>
			<point x="376" y="639" type="curve"/>
			<point x="344" y="694" type="line"/>
			<point x="308" y="672"/>
			<point x="272" y="650"/>
			<point x="236" y="629" type="curve"/>
			<point x="237" y="670"/>
			<point x="238" y="711"/>
			<point x="239" y="752" type="curve"/>
			<point x="175" y="752" type="line"/>
			<point x="176" y="711"/>
			<point x="177" y="670"/>
			<point x="178" y="629" type="curve"/>
			<point x="142" y="650"/>
			<point x="106" y="672"/>
			<point x="70" y="694" type="curve"/>
			<point x="38" y="639" type="line"/>
			<point x="75" y="619"/>
			<point x="112" y="599"/>
			<point x="148" y="578" type="curve"/>
			<point x="112" y="557"/>
			<point x="75" y="537"/>
			<point x="38" y="517" type="curve"/>
			<point x="70" y="462" type="line"/>
			<point x="106" y="484"/>
			<point x="142" y="506"/>
			<point x="178" y="527" type="curve"/>
			<point x="177" y="484"/>
			<point x="176" y="441"/>
		</contour>
	</outline>
</glyph>
<glyph name="hyphen" format="2">
	<advance width="532"/>
	<unicode hex="002D"/>
	<outline>
		<contour>
			<point x="96" y="260" type="line"/>
			<point x="436" y="260" type="line"/>
			<point x="436" y="345" type="line"/>
			<point x="96" y="345" type="line"/>
		</contour>
	</outline>
</glyph>
<glyph name="period" format="2">
	<advance width="221"/>
	<unicode hex="002E"/>
	<outline>
		<contour>
			<point x="111" y="-14" type="curve" smooth="yes"/>
			<point x="148" y="-14"/>
			<point x="178" y="15"/>
			<point x="178" y="53" type="curve" smooth="yes"/>
			<point x="178" y="91"/>
			<point x="148" y="120"/>
			<point x="111" y="120" type="curve" smooth="yes"/>
			<point x="74" y="120"/>
			<point x="43" y="91"/>
			<point x="43" y="53" type="curve" smooth="yes"/>
			<point x="43" y="15"/>
			<point x="74" y="-14"/>
		</contour>
	</outline>
</glyph>
<glyph name="four" format="2">
	<advance width="583"/>
	<unicode hex="0034"/>
	<outline>
		<contour>
			<point x="382" y="0" type="line"/>
			<point x="474" y="0" type="line"/>
			<point x="474" y="177" type="line"/>
			<point x="555" y="177" type="line"/>
			<point x="555" y="262" type="line"/>
			<point x="474" y="262" type="line"/>
			<point x="474" y="752" type="line"/>
			<point x="374" y="752" type="line"/>
			<point x="86" y="360" type="line" smooth="yes"/>
			<point x="52" y="313"/>
			<point x="20" y="258"/>
			<point x="20" y="177" type="curve"/>
			<point x="382" y="177" type="line"/>
		</contour>
		<contour>
			<point x="130" y="262" type="line"/>
			<point x="382" y="633" type="line"/>
			<point x="382" y="262" type="line"/>
		</contour>
	</outline>
</glyph>
<glyph name="six" format="2">
	<advance width="644"/>
	<unicode hex="0036"/>
	<outline>
		<contour>
			<point x="328" y="-14" type="curve" smooth="yes"/>
			<point x="514" y="-14"/>
			<point x="600" y="110"/>
			<point x="600" y="234" type="curve" smooth="yes"/>
			<point x="600" y="376"/>
			<point x="528" y="494"/>
			<point x="337" y="494" type="curve" smooth="yes"/>
			<point x="247" y="494"/>
			<point x="183" y="465"/>
			<point x="136" y="420" type="curve"/>
			<point x="142" y="579"/>
			<point x="180" y="683"/>
			<point x="330" y="683" type="curve" smooth="yes"/>
			<point x="456" y="683"/>
			<point x="504" y="647"/>
			<point x="513" y="555" type="curve"/>
			<point x="602" y="555" type="line"/>
			<point x="586" y="700"/>
			<point x="511" y="772"/>
			<point x="330" y="772" type="curve" smooth="yes"/>
			<point x="95" y="772"/>
			<point x="42" y="594"/>
			<point x="42" y="379" type="curve" smooth="yes"/>
			<point x="42" y="164"/>
			<point x="98" y="-14"/>
		</contour>
		<contour>
			<point x="328" y="75" type="curve" smooth="yes"/>
			<point x="256" y="75"/>
			<point x="194" y="102"/>
			<point x="164" y="169" type="curve" smooth="yes"/>
			<point x="155" y="189"/>
			<point x="148" y="218"/>
			<point x="148" y="242" type="curve" smooth="yes"/>
			<point x="148" y="351"/>
			<point x="213" y="406"/>
			<point x="331" y="406" type="curve" smooth="yes"/>
			<point x="446" y="406"/>
			<point x="506" y="351"/>
			<point x="506" y="234" type="curve" smooth="yes"/>
			<point x="506" y="141"/>
			<point x="433" y="75"/>
		</contour>
	</outline>
</glyph>
<glyph name="semicolon" format="2">
	<advance width="248"/>
	<unicode hex="003B"/>
	<outline>
		<contour>
			<point x="127" y="348" type="curve" smooth="yes"/>
			<point x="164" y="348"/>
			<point x="194" y="377"/>
			<point x="194" y="415" type="curve" smooth="yes"/>
			<point x="194" y="453"/>
			<point x="164" y="482"/>
			<point x="127" y="482" type="curve" smooth="yes"/>
			<point x="90" y="482"/>
			<point x="59" y="453"/>
			<point x="59" y="415" type="curve" smooth="yes"/>
			<point x="59" y="377"/>
			<point x="90" y="348"/>
		</contour>
		<component base="comma" xOffset="2"/>
	</outline>
</glyph>
<glyph name="greater" format="2">
	<advance width="589"/>
	<unicode hex="003E"/>
	<outline>
		<contour>
			<point x="40" y="44" type="line"/>
			<point x="554" y="282" type="line"/>
			<point x="554" y="367" type="line"/>
			<point x="40" y="605" type="line"/>
			<point x="40" y="516" type="line"/>
			<point x="466" y="325" type="line"/>
			<point x="40" y="133" type="line"/>
		</contour>
	</outline>
</glyph>
<glyph name="question" format="2">
	<advance width="541"/>
	<unicode hex="003F"/>
	<outline>
		<contour>
			<point x="210" y="215" type="curve"/>
			<point x="303" y="215" type="line"/>
			<point x="303" y="279"/>
			<point x="312" y="323"/>
			<point x="360" y="360" type="curve" smooth="yes"/>
			<point x="428" y="413"/>
			<point x="497" y="466"/>
			<point x="497" y="555" type="curve" smooth="yes"/>
			<point x="497" y="712"/>
			<point x="418" y="772"/>
			<point x="260" y="772" type="curve" smooth="yes"/>
			<point x="103" y="772"/>
			<point x="23" y="684"/>
			<point x="18" y="552" type="curve"/>
			<point x="113" y="552" type="line"/>
			<point x="123" y="633"/>
			<point x="151" y="680"/>
			<point x="257" y="682" type="curve" smooth="yes"/>
			<point x="353" y="684"/>
			<point x="401" y="663"/>
			<point x="401" y="555" type="curve" smooth="yes"/>
			<point x="401" y="507"/>
			<point x="360" y="474"/>
			<point x="301" y="428" type="curve" smooth="yes"/>
			<point x="228" y="371"/>
			<point x="210" y="311"/>
		</contour>
		<contour>
			<point x="257" y="-14" type="curve" smooth="yes"/>
			<point x="294" y="-14"/>
			<point x="324" y="15"/>
			<point x="324" y="53" type="curve" smooth="yes"/>
			<point x="324" y="91"/>
			<point x="294" y="120"/>
			<point x="257" y="120" type="curve" smooth="yes"/>
			<point x="220" y="120"/>
			<point x="189" y="91"/>
			<point x="189" y="53" type="curve" smooth="yes"/>
			<point x="189" y="15"/>
			<point x="220" y="-14"/>
		</contour>
	</outline>
</glyph>
<glyph name="at" format="2">
	<advance width="964"/>
	<unicode hex="0040"/>
	<outline>
		<contour>
			<point x="479" y="-79" type="curve" smooth="yes"/>
			<point x="546" y="-79"/>
			<point x="611" y="-63"/>
			<point x="668" y="-25" type="curve"/>
			<point x="616" y="27" type="line"/>
			<point x="574" y="9"/>
			<point x="535" y="0"/>
			<point x="476" y="0" type="curve" smooth="yes"/>
			<point x="234" y="0"/>
			<point x="134" y="138"/>
			<point x="134" y="337" type="curve" smooth="yes"/>
			<point x="134" y="539"/>
			<point x="258" y="689"/>
			<point x="495" y="689" type="curve" smooth="yes"/>
			<point x="748" y="689"/>
			<point x="835" y="542"/>
			<point x="835" y="362" type="curve" smooth="yes"/>
			<point x="835" y="203"/>
			<point x="797" y="167"/>
			<point x="746" y="167" type="curve" smooth="yes"/>
			<point x="712" y="167"/>
			<point x="691" y="180"/>
			<point x="691" y="204" type="curve" smooth="yes"/>
			<point x="691" y="542" type="line"/>
			<point x="612" y="542" type="line"/>
			<point x="612" y="499" type="line"/>
			<point x="586" y="530"/>
			<point x="537" y="560"/>
			<point x="476" y="560" type="curve" smooth="yes"/>
			<point x="315" y="560"/>
			<point x="262" y="455"/>
			<point x="262" y="340" type="curve" smooth="yes"/>
			<point x="262" y="225"/>
			<point x="315" y="119"/>
			<point x="476" y="119" type="curve" smooth="yes"/>
			<point x="537" y="119"/>
			<point x="586" y="151"/>
			<point x="612" y="184" type="curve"/>
			<point x="612" y="135"/>
			<point x="663" y="97"/>
			<point x="746" y="97" type="curve" smooth="yes"/>
			<point x="833" y="97"/>
			<point x="917" y="161"/>
			<point x="917" y="366" type="curve" smooth="yes"/>
			<point x="917" y="577"/>
			<point x="792" y="772"/>
			<point x="506" y="772" type="curve" smooth="yes"/>
			<point x="204" y="772"/>
			<point x="50" y="573"/>
			<point x="50" y="342" type="curve" smooth="yes"/>
			<point x="50" y="118"/>
			<point x="164" y="-79"/>
		</contour>
		<contour>
			<point x="476" y="198" type="curve" smooth="yes"/>
			<point x="379" y="196"/>
			<point x="345" y="252"/>
			<point x="345" y="340" type="curve" smooth="yes"/>
			<point x="345" y="428"/>
			<point x="379" y="484"/>
			<point x="476" y="482" type="curve" smooth="yes"/>
			<point x="572" y="480"/>
			<point x="607" y="428"/>
			<point x="607" y="340" type="curve" smooth="yes"/>
			<point x="607" y="252"/>
			<point x="572" y="200"/>
		</contour>
	</outline>
</glyph>
<glyph name="B" format="2">
	<advance width="642"/>
	<unicode hex="0042"/>
	<anchor x="324" y="0" name="bottom"/>
	<anchor x="324" y="752" name="top"/>
	<outline>
		<contour>
			<point x="78" y="0" type="line"/>
			<point x="380" y="0" type="line" smooth="yes"/>
			<point x="495" y="0"/>
			<point x="601" y="63"/>
			<point x="601" y="209" type="curve" smooth="yes"/>
			<point x="601" y="330"/>
			<point x="533" y="382"/>
			<point x="482" y="388" type="curve"/>
			<point x="506" y="388"/>
			<point x="583" y="430"/>
			<point x="583" y="556" type="curve" smooth="yes"/>
			<point x="583" y="685"/>
			<point x="493" y="752"/>
			<point x="353" y="752" type="curve" smooth="yes"/>
			<point x="78" y="752" type="line"/>
		</contour>
		<contour>
			<point x="172" y="90" type="line"/>
			<point x="172" y="342" type="line"/>
			<point x="363" y="342" type="line" smooth="yes"/>
			<point x="451" y="342"/>
			<point x="506" y="314"/>
			<point x="506" y="209" type="curve" smooth="yes"/>
			<point x="506" y="115"/>
			<point x="450" y="90"/>
			<point x="366" y="90" type="curve" smooth="yes"/>
		</contour>
		<contour>
			<point x="172" y="432" type="line"/>
			<point x="172" y="663" type="line"/>
			<point x="358" y="663" type="line" smooth="yes"/>
			<point x="421" y="663"/>
			<point x="489" y="647"/>
			<point x="489" y="555" type="curve" smooth="yes"/>
			<point x="489" y="457"/>
			<point x="439" y="432"/>
			<point x="360" y="432" type="curve" smooth="yes"/>
		</contour>
	</outline>
</glyph>
<glyph name="D" format="2">
	<advance width="708"/>
	<unicode hex="0044"/>
	<anchor x="354" y="0" name="bottom"/>
	<anchor x="354" y="376" name="center"/>
	<anchor x="344" y="752" name="top"/>
	<outline>
		<contour>
			<point x="78" y="0" type="line"/>
			<point x="294" y="0" type="line" smooth="yes"/>
			<point x="522" y="0"/>
			<point x="658" y="90"/>
			<point x="658" y="389" type="curve" smooth="yes"/>
			<point x="658" y="672"/>
			<point x="520" y="752"/>
			<point x="294" y="752" type="curve" smooth="yes"/>
			<point x="78" y="752" type="line"/>
		</contour>
		<contour>
			<point x="172" y="90" type="line"/>
			<point x="172" y="662" type="line"/>
			<point x="294" y="662" type="line" smooth="yes"/>
			<point x="484" y="662"/>
			<point x="562" y="591"/>
			<point x="562" y="389" type="curve" smooth="yes"/>
			<point x="562" y="167"/>
			<point x="485" y="90"/>
			<point x="294" y="90" type="curve" smooth="yes"/>
		</contour>
	</outline>
</glyph>
<glyph name="E" format="2">
	<advance width="625"/>
	<unicode hex="0045"/>
	<anchor x="313" y="0" name="bottom"/>
	<anchor x="391" y="0" name="ogonek"/>
	<anchor x="313" y="752" name="top"/>
	<anchor x="20" y="752" name="topleft"/>
	<outline>
		<contour>
			<point x="78" y="0" type="line"/>
			<point x="172" y="0" type="line"/>
			<point x="172" y="752" type="line"/>
			<point x="78" y="752" type="line"/>
		</contour>
		<contour>
			<point x="78" y="0" type="line"/>
			<point x="572" y="0" type="line"/>
			<point x="572" y="90" type="line"/>
			<point x="78" y="90" type="line"/>
		</contour>
		<contour>
			<point x="78" y="340" type="line"/>
			<point x="546" y="340" type="line"/>
			<point x="546" y="430" type="line"/>
			<point x="78" y="430" type="line"/>
		</contour>
		<contour>
			<point x="78" y="661" type="line"/>
			<point x="569" y="661" type="line"/>
			<point x="569" y="752" type="line"/>
			<point x="78" y="752" type="line"/>
		</contour>
	</outline>
</glyph>
<glyph name="F" format="2">
	<advance width="607"/>
	<unicode hex="0046"/>
	<anchor x="310" y="0" name="bottom"/>
	<anchor x="310" y="752" name="top"/>
	<outline>
		<contour>
			<point x="78" y="0" type="line"/>
			<point x="172" y="0" type="line"/>
			<point x="172" y="340" type="line"/>
			<point x="540" y="340" type="line"/>
			<point x="540" y="430" type="line"/>
			<point x="172" y="430" type="line"/>
			<point x="172" y="661" type="line"/>
			<point x="568" y="661" type="line"/>
			<point x="568" y="752" type="line"/>
			<point x="78" y="752" type="line"/>
		</contour>
	</outline>
</glyph>
<glyph name="G" format="2">
	<advance width="812"/>
	<unicode hex="0047"/>
	<anchor x="398" y="-12" name="bottom"/>
	<anchor x="406" y="752" name="top"/>
	<outline>
		<contour>
			<point x="401" y="-14" type="curve" smooth="yes"/>
			<point x="653" y="-14"/>
			<point x="749" y="140"/>
			<point x="749" y="335" type="curve"/>
			<point x="749" y="376"/>
			<point x="749" y="394"/>
			<point x="748" y="425" type="curve"/>
			<point x="396" y="425" type="line"/>
			<point x="396" y="335" type="line"/>
			<point x="652" y="335" type="line"/>
			<point x="652" y="183"/>
			<point x="591" y="76"/>
			<point x="401" y="76" type="curve" smooth="yes"/>
			<point x="212" y="76"/>
			<point x="147" y="202"/>
			<point x="147" y="379" type="curve" smooth="yes"/>
			<point x="147" y="555"/>
			<point x="212" y="683"/>
			<point x="401" y="683" type="curve" smooth="yes"/>
			<point x="540" y="683"/>
			<point x="609" y="625"/>
			<point x="635" y="555" type="curve"/>
			<point x="736" y="555" type="line"/>
			<point x="716" y="620"/>
			<point x="655" y="772"/>
			<point x="401" y="772" type="curve" smooth="yes"/>
			<point x="149" y="772"/>
			<point x="52" y="594"/>
			<point x="52" y="379" type="curve" smooth="yes"/>
			<point x="52" y="164"/>
			<point x="149" y="-14"/>
		</contour>
	</outline>
</glyph>
<glyph name="I" format="2">
	<advance width="256"/>
	<unicode hex="0049"/>
	<anchor x="128" y="0" name="bottom"/>
	<anchor x="184" y="0" name="ogonek"/>
	<anchor x="128" y="752" name="top"/>
	<anchor x="20" y="752" name="topleft"/>
	<outline>
		<contour>
			<point x="78" y="0" type="line"/>
			<point x="178" y="0" type="line"/>
			<point x="178" y="752" type="line"/>
			<point x="78" y="752" type="line"/>
		</contour>
	</outline>
</glyph>
<glyph name="K" format="2">
	<advance width="692"/>
	<unicode hex="004B"/>
	<anchor x="346" y="0" name="bottom"/>
	<anchor x="346" y="752" name="top"/>
	<outline>
		<contour>
			<point x="78" y="0" type="line"/>
			<point x="172" y="0" type="line"/>
			<point x="172" y="752" type="line"/>
			<point x="78" y="752" type="line"/>
		</contour>
		<contour>
			<point x="135" y="239" type="line"/>
			<point x="635" y="752" type="line"/>
			<point x="515" y="752" type="line"/>
			<point x="135" y="366" type="line"/>
		</contour>
		<contour>
			<point x="527" y="0" type="line"/>
			<point x="649" y="0" type="line"/>
			<point x="255" y="418" type="line"/>
			<point x="184" y="361" type="line"/>
		</contour>
	</outline>
</glyph>
<glyph name="N" format="2">
	<advance width="772"/>
	<unicode hex="004E"/>
	<anchor x="386" y="0" name="bottom"/>
	<anchor x="386" y="752" name="top"/>
	<outline>
		<contour>
			<point x="78" y="0" type="line"/>
			<point x="172" y="0" type="line"/>
			<point x="172" y="587" type="line"/>
			<point x="600" y="0" type="line"/>
			<point x="694" y="0" type="line"/>
			<point x="694" y="752" type="line"/>
			<point x="600" y="752" type="line"/>
			<point x="600" y="165" type="line"/>
			<point x="172" y="752" type="line"/>
			<point x="78" y="752" type="line"/>
		</contour>
	</outline>
</glyph>
<glyph name="P" format="2">
	<advance width="643"/>
	<unicode hex="0050"/>
	<anchor x="322" y="0" name="bottom"/>
	<anchor x="322" y="752" name="top"/>
	<outline>
		<contour>
			<point x="78" y="0" type="line"/>
			<point x="172" y="0" type="line"/>
			<point x="172" y="295" type="line"/>
			<point x="312" y="295" type="line" smooth="yes"/>
			<point x="497" y="295"/>
			<point x="597" y="349"/>
			<point x="597" y="524" type="curve" smooth="yes"/>
			<point x="597" y="697"/>
			<point x="496" y="752"/>
			<point x="312" y="752" type="curve" smooth="yes"/>
			<point x="78" y="752" type="line"/>
		</contour>
		<contour>
			<point x="172" y="385" type="line"/>
			<point x="172" y="663" type="line"/>
			<point x="322" y="663" type="line" smooth="yes"/>
			<point x="451" y="663"/>
			<point x="502" y="630"/>
			<point x="502" y="525" type="curve" smooth="yes"/>
			<point x="502" y="420"/>
			<point x="456" y="385"/>
			<point x="325" y="385" type="curve" smooth="yes"/>
		</contour>
	</outline>
</glyph>
<glyph name="R" format="2">
	<advance width="660"/>
	<unicode hex="0052"/>
	<anchor x="329" y="0" name="bottom"/>
	<anchor x="329" y="752" name="top"/>
	<outline>
		<contour>
			<point x="78" y="0" type="line"/>
			<point x="172" y="0" type="line"/>
			<point x="172" y="309" type="line"/>
			<point x="312" y="309" type="line" smooth="yes"/>
			<point x="497" y="309"/>
			<point x="597" y="357"/>
			<point x="597" y="531" type="curve" smooth="yes"/>
			<point x="597" y="704"/>
			<point x="496" y="752"/>
			<point x="312" y="752" type="curve" smooth="yes"/>
			<point x="78" y="752" type="line"/>
		</contour>
		<contour>
			<point x="516" y="0" type="curve"/>
			<point x="618" y="0" type="line"/>
			<point x="606" y="20"/>
			<point x="596" y="43"/>
			<point x="587" y="82" type="curve" smooth="yes"/>
			<point x="562" y="188" type="line" smooth="yes"/>
			<point x="537" y="296"/>
			<point x="469" y="377"/>
			<point x="373" y="377" type="curve"/>
			<point x="312" y="309" type="line"/>
			<point x="368" y="309"/>
			<point x="446" y="280"/>
			<point x="468" y="181" type="curve" smooth="yes"/>
			<point x="492" y="73" type="line" smooth="yes"/>
			<point x="499" y="41"/>
			<point x="505" y="17"/>
		</contour>
		<contour>
			<point x="172" y="399" type="line"/>
			<point x="172" y="663" type="line"/>
			<point x="322" y="663" type="line" smooth="yes"/>
			<point x="451" y="663"/>
			<point x="502" y="637"/>
			<point x="502" y="532" type="curve" smooth="yes"/>
			<point x="502" y="427"/>
			<point x="456" y="399"/>
			<point x="325" y="399" type="curve" smooth="yes"/>
		</contour>
	</outline>
</glyph>
<glyph name="S" format="2">
	<advance width="704"/>
	<unicode hex="0053"/>
	<anchor x="352" y="-13" name="bottom"/>
	<anchor x="352" y="752" name="top"/>
	<outline>
		<contour>
			<point x="365" y="-14" type="curve"/>
			<point x="537" y="-14"/>
			<point x="658" y="49"/>
			<point x="658" y="223" type="curve" smooth="yes"/>
			<point x="658" y="349"/>
			<point x="555" y="409"/>
			<point x="443" y="427" type="curve" smooth="yes"/>
			<point x="285" y="452" type="line" smooth="yes"/>
			<point x="200" y="465"/>
			<point x="154" y="498"/>
			<point x="154" y="546" type="curve" smooth="yes"/>
			<point x="154" y="650"/>
			<point x="255" y="680"/>
			<point x="354" y="680" type="curve" smooth="yes"/>
			<point x="474" y="680"/>
			<point x="533" y="611"/>
			<point x="550" y="555" type="curve"/>
			<point x="648" y="555" type="line"/>
			<point x="644" y="649"/>
			<point x="560" y="772"/>
			<point x="343" y="772" type="curve" smooth="yes"/>
			<point x="170" y="772"/>
			<point x="57" y="684"/>
			<point x="57" y="546" type="curve" smooth="yes"/>
			<point x="57" y="428"/>
			<point x="156" y="371"/>
			<point x="258" y="355" type="curve" smooth="yes"/>
			<point x="416" y="330" type="line" smooth="yes"/>
			<point x="508" y="315"/>
			<point x="560" y="288"/>
			<point x="560" y="217" type="curve" smooth="yes"/>
			<point x="560" y="124"/>
			<point x="503" y="80"/>
			<point x="356" y="80" type="curve" smooth="yes"/>
			<point x="212" y="80"/>
			<point x="158" y="147"/>
			<point x="145" y="220" type="curve"/>
			<point x="48" y="220" type="line"/>
			<point x="48" y="104"/>
			<point x="135" y="-14"/>
		</contour>
	</outline>
</glyph>
<glyph name="T" format="2">
	<advance width="649"/>
	<unicode hex="0054"/>
	<anchor x="314" y="0" name="bottom"/>
	<anchor x="325" y="376" name="center"/>
	<anchor x="325" y="752" name="top"/>
	<outline>
		<contour>
			<point x="49" y="662" type="line"/>
			<point x="278" y="662" type="line"/>
			<point x="278" y="0" type="line"/>
			<point x="372" y="0" type="line"/>
			<point x="372" y="662" type="line"/>
			<point x="600" y="662" type="line"/>
			<point x="600" y="752" type="line"/>
			<point x="49" y="752" type="line"/>
		</contour>
	</outline>
</glyph>
<glyph name="U" format="2">
	<advance width="701"/>
	<unicode hex="0055"/>
	<anchor x="346" y="0" name="bottom"/>
	<anchor x="433" y="-10" name="ogonek"/>
	<anchor x="346" y="752" name="top"/>
	<anchor x="681" y="752" name="topright"/>
	<outline>
		<contour>
			<point x="351" y="-14" type="curve" smooth="yes"/>
			<point x="608" y="-14"/>
			<point x="635" y="128"/>
			<point x="635" y="232" type="curve" smooth="yes"/>
			<point x="635" y="752" type="line"/>
			<point x="539" y="752" type="line"/>
			<point x="539" y="257" type="line" smooth="yes"/>
			<point x="539" y="134"/>
			<point x="495" y="79"/>
			<point x="351" y="79" type="curve" smooth="yes"/>
			<point x="198" y="79"/>
			<point x="163" y="128"/>
			<point x="163" y="257" type="curve" smooth="yes"/>
			<point x="163" y="752" type="line"/>
			<point x="66" y="752" type="line"/>
			<point x="66" y="232" type="line" smooth="yes"/>
			<point x="66" y="128"/>
			<point x="94" y="-14"/>
		</contour>
	</outline>
</glyph>
<glyph name="V" format="2">
	<advance width="750"/>
	<unicode hex="0056"/>
	<anchor x="375" y="0" name="bottom"/>
	<anchor x="375" y="752" name="top"/>
	<outline>
		<contour>
			<point x="315" y="0" type="line"/>
			<point x="438" y="0" type="line"/>
			<point x="710" y="752" type="line"/>
			<point x="607" y="752" type="line"/>
			<point x="376" y="124" type="line"/>
			<point x="146" y="752" type="line"/>
			<point x="41" y="752" type="line"/>
		</contour>
	</outline>
</glyph>
<glyph name="X" format="2">
	<advance width="783"/>
	<unicode hex="0058"/>
	<anchor x="392" y="0" name="bottom"/>
	<anchor x="392" y="752" name="top"/>
	<outline>
		<contour>
			<point x="22" y="0" type="line"/>
			<point x="139" y="0" type="line"/>
			<point x="390" y="333" type="line"/>
			<point x="641" y="0" type="line"/>
			<point x="761" y="0" type="line"/>
			<point x="458" y="392" type="line"/>
			<point x="728" y="752" type="line"/>
			<point x="613" y="752" type="line"/>
			<point x="390" y="451" type="line"/>
			<point x="171" y="752" type="line"/>
			<point x="48" y="752" type="line"/>
			<point x="320" y="392" type="line"/>
		</contour>
	</outline>
</glyph>
<glyph name="Y" format="2">
	<advance width="648"/>
	<unicode hex="0059"/>
	<anchor x="324" y="0" name="bottom"/>
	<anchor x="324" y="752" name="top"/>
	<anchor x="20" y="752" name="topleft"/>
	<outline>
		<contour>
			<point x="277" y="0" type="line"/>
			<point x="371" y="0" type="line"/>
			<point x="371" y="356" type="line"/>
			<point x="628" y="752" type="line"/>
			<point x="515" y="752" type="line"/>
			<point x="324" y="450" type="line"/>
			<point x="135" y="752" type="line"/>
			<point x="20" y="752" type="line"/>
			<point x="277" y="356" type="line"/>
		</contour>
	</outline>
</glyph>
<glyph name="Z" format="2">
	<advance width="751"/>
	<unicode hex="005A"/>
	<anchor x="376" y="0" name="bottom"/>
	<anchor x="376" y="376" name="center"/>
	<anchor x="376" y="752" name="top"/>
	<outline>
		<contour>
			<point x="63" y="0" type="line"/>
			<point x="688" y="0" type="line"/>
			<point x="688" y="90" type="line"/>
			<point x="197" y="90" type="line"/>
			<point x="688" y="663" type="line"/>
			<point x="688" y="752" type="line"/>
			<point x="63" y="752" type="line"/>
			<point x="63" y="663" type="line"/>
			<point x="555" y="663" type="line"/>
			<point x="63" y="90" type="line"/>
		</contour>
	</outline>
</glyph>
<glyph name="bracketright" format="2">
	<advance width="384"/>
	<unicode hex="005D"/>
	<outline>
		<contour>
			<point x="311" y="-187" type="line"/>
			<point x="311" y="783" type="line"/>
			<point x="36" y="783" type="line"/>
			<point x="36" y="693" type="line"/>
			<point x="217" y="693" type="line"/>
			<point x="217" y="-97" type="line"/>
			<point x="36" y="-97" type="line"/>
			<point x="36" y="-187" type="line"/>
		</contour>
	</outline>
</glyph>
<glyph name="asciicircum" format="2">
	<advance width="560"/>
	<unicode hex="005E"/>
	<outline>
		<contour>
			<point x="30" y="401" type="line"/>
			<point x="122" y="401" type="line"/>
			<point x="280" y="688" type="line"/>
			<point x="438" y="401" type="line"/>
			<point x="530" y="401" type="line"/>
			<point x="318" y="762" type="line"/>
			<point x="242" y="762" type="line"/>
		</contour>
	</outline>
</glyph>
<glyph name="i" format="2">
	<advance width="242"/>
	<unicode hex="0069"/>
	<anchor x="121" y="0" name="bottom"/>
	<outline>
		<contour>
			<point x="76" y="0" type="line"/>
			<point x="167" y="0" type="line"/>
			<point x="167" y="504" type="line"/>
			<point x="76" y="504" type="line"/>
		</contour>
		<contour>
			<point x="121" y="640" type="curve" smooth="yes"/>
			<point x="156" y="640"/>
			<point x="184" y="668"/>
			<point x="184" y="703" type="curve" smooth="yes"/>
			<point x="184" y="738"/>
			<point x="156" y="766"/>
			<point x="121" y="766" type="curve" smooth="yes"/>
			<point x="86" y="766"/>
			<point x="58" y="738"/>
			<point x="58" y="703" type="curve" smooth="yes"/>
			<point x="58" y="668"/>
			<point x="86" y="640"/>
		</contour>
	</outline>
</glyph>
<glyph name="l" format="2">
	<advance width="247"/>
	<unicode hex="006C"/>
	<anchor x="124" y="0" name="bottom"/>
	<anchor x="124" y="391" name="center"/>
	<anchor x="124" y="782" name="top"/>
	<anchor x="197" y="601" name="topright"/>
	<outline>
		<contour>
			<point x="78" y="0" type="line"/>
			<point x="169" y="0" type="line"/>
			<point x="169" y="782" type="line"/>
			<point x="78" y="782" type="line"/>
		</contour>
	</outline>
</glyph>
<glyph name="q" format="2">
	<advance width="639"/>
	<unicode hex="0071"/>
	<anchor x="319" y="0" name="bottom"/>
	<anchor x="319" y="504" name="top"/>
	<outline>
		<contour>
			<point x="469" y="-278" type="line"/>
			<point x="561" y="-278" type="line"/>
			<point x="561" y="504" type="line"/>
			<point x="469" y="504" type="line"/>
			<point x="469" y="450" type="line"/>
			<point x="438" y="488"/>
			<point x="377" y="523"/>
			<point x="301" y="524" type="curve" smooth="yes"/>
			<point x="123" y="526"/>
			<point x="40" y="386"/>
			<point x="40" y="255" type="curve" smooth="yes"/>
			<point x="40" y="125"/>
			<point x="123" y="-14"/>
			<point x="301" y="-14" type="curve" smooth="yes"/>
			<point x="377" y="-14"/>
			<point x="438" y="18"/>
			<point x="469" y="59" type="curve"/>
		</contour>
		<contour>
			<point x="301" y="76" type="curve" smooth="yes"/>
			<point x="187" y="73"/>
			<point x="133" y="146"/>
			<point x="133" y="255" type="curve" smooth="yes"/>
			<point x="133" y="365"/>
			<point x="187" y="437"/>
			<point x="301" y="434" type="curve" smooth="yes"/>
			<point x="413" y="431"/>
			<point x="469" y="363"/>
			<point x="469" y="255" type="curve" smooth="yes"/>
			<point x="469" y="147"/>
			<point x="413" y="79"/>
		</contour>
	</outline>
</glyph>
<glyph name="t" format="2">
	<advance width="407"/>
	<unicode hex="0074"/>
	<anchor x="253" y="6" name="bottom"/>
	<anchor x="204" y="252" name="center"/>
	<anchor x="204" y="683" name="top"/>
	<anchor x="252" y="504" name="topright"/>
	<outline>
		<contour>
			<point x="330" y="0" type="curve" smooth="yes"/>
			<point x="366" y="0" type="line"/>
			<point x="363" y="91" type="line"/>
			<point x="334" y="90" type="line" smooth="yes"/>
			<point x="261" y="87"/>
			<point x="225" y="89"/>
			<point x="225" y="169" type="curve" smooth="yes"/>
			<point x="225" y="683" type="line"/>
			<point x="134" y="683" type="line"/>
			<point x="134" y="176" type="line" smooth="yes"/>
			<point x="134" y="0"/>
			<point x="193" y="0"/>
		</contour>
		<contour>
			<point x="35" y="422" type="line"/>
			<point x="369" y="422" type="line"/>
			<point x="368" y="504" type="line"/>
			<point x="35" y="504" type="line"/>
		</contour>
		<contour>
			<point x="134" y="683" type="move"/>
		</contour>
	</outline>
</glyph>
<glyph name="v" format="2">
	<advance width="582"/>
	<unicode hex="0076"/>
	<anchor x="291" y="0" name="bottom"/>
	<anchor x="291" y="504" name="top"/>
	<outline>
		<contour>
			<point x="238" y="0" type="line"/>
			<point x="346" y="0" type="line"/>
			<point x="549" y="504" type="line"/>
			<point x="450" y="504" type="line"/>
			<point x="291" y="96" type="line"/>
			<point x="133" y="504" type="line"/>
			<point x="34" y="504" type="line"/>
		</contour>
	</outline>
</glyph>
<glyph name="y" format="2">
	<advance width="591"/>
	<unicode hex="0079"/>
	<guideline x="271" y="19" angle="69"/>
	<anchor x="291" y="0" name="bottom"/>
	<anchor x="291" y="504" name="top"/>
	<outline>
		<contour>
			<point x="65" y="-278" type="line"/>
			<point x="156" y="-278" type="line" smooth="yes"/>
			<point x="245" y="-278"/>
			<point x="259" y="-268"/>
			<point x="323" y="-99" type="curve" smooth="yes"/>
			<point x="552" y="504" type="line"/>
			<point x="454" y="504" type="line"/>
			<point x="294" y="79" type="line"/>
			<point x="132" y="504" type="line"/>
			<point x="33" y="504" type="line"/>
			<point x="249" y="-38" type="line"/>
			<point x="223" y="-107" type="line" smooth="yes"/>
			<point x="195" y="-180"/>
			<point x="177" y="-189"/>
			<point x="104" y="-187" type="curve" smooth="yes"/>
			<point x="68" y="-186" type="line"/>
		</contour>
	</outline>
</glyph>
<glyph name="braceleft" format="2">
	<advance width="400"/>
	<unicode hex="007B"/>
	<outline>
		<contour>
			<point x="316" y="-187" type="curve"/>
			<point x="316" y="-92" type="line"/>
			<point x="275" y="-92"/>
			<point x="265" y="-16"/>
			<point x="265" y="82" type="curve" smooth="yes"/>
			<point x="265" y="180"/>
			<point x="178" y="298"/>
			<point x="130" y="298" type="curve"/>
			<point x="178" y="298"/>
			<point x="265" y="396"/>
			<point x="265" y="494" type="curve" smooth="yes"/>
			<point x="265" y="574"/>
			<point x="266" y="688"/>
			<point x="316" y="688" type="curve"/>
			<point x="316" y="783" type="line"/>
			<point x="197" y="783"/>
			<point x="179" y="638"/>
			<point x="179" y="534" type="curve" smooth="yes"/>
			<point x="179" y="430"/>
			<point x="107" y="362"/>
			<point x="61" y="362" type="curve"/>
			<point x="61" y="234" type="line"/>
			<point x="107" y="234"/>
			<point x="179" y="146"/>
			<point x="179" y="42" type="curve" smooth="yes"/>
			<point x="179" y="-62"/>
			<point x="197" y="-187"/>
		</contour>
	</outline>
</glyph>
<glyph name="asciitilde" format="2">
	<advance width="603"/>
	<unicode hex="007E"/>
	<outline>
		<contour>
			<point x="124" y="274" type="line"/>
			<point x="128" y="303"/>
			<point x="151" y="349"/>
			<point x="214" y="349" type="curve" smooth="yes"/>
			<point x="279" y="349"/>
			<point x="283" y="274"/>
			<point x="388" y="274" type="curve" smooth="yes"/>
			<point x="521" y="274"/>
			<point x="558" y="394"/>
			<point x="558" y="423" type="curve"/>
			<point x="479" y="423" type="line"/>
			<point x="480" y="400"/>
			<point x="451" y="348"/>
			<point x="388" y="348" type="curve" smooth="yes"/>
			<point x="323" y="348"/>
			<point x="319" y="423"/>
			<point x="214" y="423" type="curve" smooth="yes"/>
			<point x="81" y="423"/>
			<point x="45" y="296"/>
			<point x="45" y="274" type="curve"/>
		</contour>
	</outline>
</glyph>
<glyph name="cent" format="2">
	<advance width="560"/>
	<unicode hex="00A2"/>
	<outline>
		<contour>
			<point x="316" y="108" type="curve" smooth="yes"/>
			<point x="407" y="108"/>
			<point x="469" y="137"/>
			<point x="512" y="181" type="curve"/>
			<point x="447" y="245" type="line"/>
			<point x="416" y="215"/>
			<point x="372" y="198"/>
			<point x="316" y="198" type="curve" smooth="yes"/>
			<point x="207" y="198"/>
			<point x="138" y="264"/>
			<point x="138" y="377" type="curve" smooth="yes"/>
			<point x="138" y="490"/>
			<point x="205" y="556"/>
			<point x="316" y="556" type="curve" smooth="yes"/>
			<point x="372" y="556"/>
			<point x="417" y="540"/>
			<point x="447" y="509" type="curve"/>
			<point x="512" y="573" type="line"/>
			<point x="469" y="616"/>
			<point x="406" y="646"/>
			<point x="316" y="646" type="curve" smooth="yes"/>
			<point x="115" y="646"/>
			<point x="43" y="497"/>
			<point x="43" y="377" type="curve" smooth="yes"/>
			<point x="43" y="257"/>
			<point x="115" y="108"/>
		</contour>
		<contour>
			<point x="265" y="0" type="line"/>
			<point x="353" y="0" type="line"/>
			<point x="353" y="752" type="line"/>
			<point x="265" y="752" type="line"/>
		</contour>
	</outline>
</glyph>
<glyph name="currency" format="2">
	<advance width="649"/>
	<unicode hex="00A4"/>
	<outline>
		<contour>
			<point x="325" y="98" type="curve" smooth="yes"/>
			<point x="453" y="98"/>
			<point x="558" y="203"/>
			<point x="558" y="332" type="curve" smooth="yes"/>
			<point x="558" y="460"/>
			<point x="453" y="565"/>
			<point x="325" y="565" type="curve" smooth="yes"/>
			<point x="196" y="565"/>
			<point x="91" y="460"/>
			<point x="91" y="332" type="curve" smooth="yes"/>
			<point x="91" y="203"/>
			<point x="196" y="98"/>
		</contour>
		<contour>
			<point x="325" y="179" type="curve" smooth="yes"/>
			<point x="241" y="179"/>
			<point x="172" y="248"/>
			<point x="172" y="332" type="curve" smooth="yes"/>
			<point x="172" y="415"/>
			<point x="241" y="484"/>
			<point x="325" y="484" type="curve" smooth="yes"/>
			<point x="408" y="484"/>
			<point x="477" y="415"/>
			<point x="477" y="332" type="curve" smooth="yes"/>
			<point x="477" y="248"/>
			<point x="408" y="179"/>
		</contour>
		<contour>
			<point x="543" y="616" type="line"/>
			<point x="411" y="484" type="line"/>
			<point x="476" y="420" type="line"/>
			<point x="608" y="552" type="line"/>
		</contour>
		<contour>
			<point x="106" y="616" type="line"/>
			<point x="41" y="552" type="line"/>
			<point x="173" y="420" type="line"/>
			<point x="238" y="484" type="line"/>
		</contour>
		<contour>
			<point x="543" y="47" type="line"/>
			<point x="608" y="111" type="line"/>
			<point x="476" y="243" type="line"/>
			<point x="411" y="179" type="line"/>
		</contour>
		<contour>
			<point x="106" y="47" type="line"/>
			<point x="238" y="179" type="line"/>
			<point x="173" y="243" type="line"/>
			<point x="41" y="111" type="line"/>
		</contour>
	</outline>
</glyph>
<glyph name="yen" format="2">
	<advance width="588"/>
	<unicode hex="00A5"/>
	<outline>
		<contour>
			<point x="247" y="0" type="line"/>
			<point x="341" y="0" type="line"/>
			<point x="341" y="356" type="line"/>
			<point x="595" y="752" type="line"/>
			<point x="483" y="752" type="line"/>
			<point x="294" y="450" type="line"/>
			<point x="107" y="752" type="line"/>
			<point x="-7" y="752" type="line"/>
			<point x="247" y="356" type="line"/>
		</contour>
		<contour>
			<point x="87" y="193" type="line"/>
			<point x="497" y="193" type="line"/>
			<point x="497" y="277" type="line"/>
			<point x="87" y="277" type="line"/>
		</contour>
		<contour>
			<point x="87" y="337" type="line"/>
			<point x="497" y="337" type="line"/>
			<point x="497" y="421" type="line"/>
			<point x="87" y="421" type="line"/>
		</contour>
	</outline>
</glyph>
<glyph name="brokenbar" format="2">
	<advance width="280"/>
	<unicode hex="00A6"/>
	<outline>
		<contour>
			<point x="100" y="306" type="line"/>
			<point x="180" y="306" type="line"/>
			<point x="180" y="752" type="line"/>
			<point x="100" y="752" type="line"/>
		</contour>
		<contour>
			<point x="100" y="-278" type="line"/>
			<point x="180" y="-278" type="line"/>
			<point x="180" y="168" type="line"/>
			<point x="100" y="168" type="line"/>
		</contour>
	</outline>
</glyph>
<glyph name="section" format="2">
	<advance width="569"/>
	<unicode hex="00A7"/>
	<outline>
		<contour>
			<point x="303" y="146" type="curve"/>
			<point x="437" y="146"/>
			<point x="540" y="208"/>
			<point x="540" y="345" type="curve" smooth="yes"/>
			<point x="540" y="438"/>
			<point x="460" y="484"/>
			<point x="364" y="497" type="curve" smooth="yes"/>
			<point x="228" y="515" type="line" smooth="yes"/>
			<point x="159" y="524"/>
			<point x="132" y="555"/>
			<point x="132" y="594" type="curve" smooth="yes"/>
			<point x="132" y="659"/>
			<point x="214" y="680"/>
			<point x="286" y="680" type="curve" smooth="yes"/>
			<point x="364" y="680"/>
			<point x="423" y="641"/>
			<point x="438" y="598" type="curve"/>
			<point x="534" y="598" type="line"/>
			<point x="530" y="674"/>
			<point x="458" y="772"/>
			<point x="275" y="772" type="curve" smooth="yes"/>
			<point x="130" y="772"/>
			<point x="35" y="713"/>
			<point x="35" y="594" type="curve" smooth="yes"/>
			<point x="35" y="483"/>
			<point x="119" y="434"/>
			<point x="205" y="425" type="curve" smooth="yes"/>
			<point x="341" y="410" type="line" smooth="yes"/>
			<point x="413" y="402"/>
			<point x="439" y="374"/>
			<point x="439" y="324" type="curve" smooth="yes"/>
			<point x="439" y="266"/>
			<point x="376" y="243"/>
			<point x="285" y="243" type="curve" smooth="yes"/>
			<point x="222" y="243"/>
			<point x="130" y="257"/>
			<point x="130" y="324" type="curve"/>
			<point x="38" y="324" type="line"/>
			<point x="38" y="243"/>
			<point x="110" y="146"/>
		</contour>
		<contour>
			<point x="303" y="-140" type="curve"/>
			<point x="447" y="-140"/>
			<point x="540" y="-74"/>
			<point x="540" y="64" type="curve" smooth="yes"/>
			<point x="540" y="158"/>
			<point x="461" y="214"/>
			<point x="363" y="228" type="curve" smooth="yes"/>
			<point x="228" y="247" type="line" smooth="yes"/>
			<point x="159" y="256"/>
			<point x="130" y="285"/>
			<point x="130" y="324" type="curve" smooth="yes"/>
			<point x="130" y="400"/>
			<point x="204" y="412"/>
			<point x="287" y="412" type="curve" smooth="yes"/>
			<point x="370" y="412"/>
			<point x="440" y="401"/>
			<point x="439" y="324" type="curve"/>
			<point x="537" y="324" type="line"/>
			<point x="534" y="399"/>
			<point x="458" y="491"/>
			<point x="275" y="491" type="curve" smooth="yes"/>
			<point x="130" y="491"/>
			<point x="35" y="444"/>
			<point x="35" y="324" type="curve" smooth="yes"/>
			<point x="35" y="214"/>
			<point x="119" y="164"/>
			<point x="205" y="152" type="curve" smooth="yes"/>
			<point x="336" y="134" type="line" smooth="yes"/>
			<point x="408" y="124"/>
			<point x="444" y="99"/>
			<point x="444" y="54" type="curve" smooth="yes"/>
			<point x="444" y="-12"/>
			<point x="387" y="-45"/>
			<point x="285" y="-45" type="curve" smooth="yes"/>
			<point x="200" y="-45"/>
			<point x="132" y="-8"/>
			<point x="120" y="47" type="curve"/>
			<point x="30" y="47" type="line"/>
			<point x="30" y="-34"/>
			<point x="100" y="-140"/>
		</contour>
	</outline>
</glyph>
<glyph name="copyright" format="2">
	<advance width="848"/>
	<unicode hex="00A9"/>
	<outline>
		<contour>
			<point x="428" y="148" type="curve" smooth="yes"/>
			<point x="506" y="148"/>
			<point x="559" y="172"/>
			<point x="595" y="210" type="curve"/>
			<point x="540" y="264" type="line"/>
			<point x="514" y="239"/>
			<point x="476" y="224"/>
			<point x="428" y="224" type="curve" smooth="yes"/>
			<point x="335" y="224"/>
			<point x="277" y="281"/>
			<point x="277" y="377" type="curve" smooth="yes"/>
			<point x="277" y="473"/>
			<point x="334" y="530"/>
			<point x="428" y="530" type="curve" smooth="yes"/>
			<point x="476" y="530"/>
			<point x="514" y="516"/>
			<point x="540" y="490" type="curve"/>
			<point x="595" y="544" type="line"/>
			<point x="559" y="581"/>
			<point x="505" y="606"/>
			<point x="428" y="606" type="curve" smooth="yes"/>
			<point x="257" y="606"/>
			<point x="196" y="479"/>
			<point x="196" y="377" type="curve" smooth="yes"/>
			<point x="196" y="275"/>
			<point x="257" y="148"/>
		</contour>
		<contour>
			<point x="423" y="-14" type="curve" smooth="yes"/>
			<point x="638" y="-14"/>
			<point x="813" y="161"/>
			<point x="813" y="376" type="curve" smooth="yes"/>
			<point x="813" y="590"/>
			<point x="638" y="764"/>
			<point x="423" y="764" type="curve" smooth="yes"/>
			<point x="209" y="764"/>
			<point x="35" y="590"/>
			<point x="35" y="376" type="curve" smooth="yes"/>
			<point x="35" y="161"/>
			<point x="209" y="-14"/>
		</contour>
		<contour>
			<point x="423" y="50" type="curve" smooth="yes"/>
			<point x="244" y="50"/>
			<point x="99" y="196"/>
			<point x="99" y="376" type="curve" smooth="yes"/>
			<point x="99" y="555"/>
			<point x="244" y="700"/>
			<point x="423" y="700" type="curve" smooth="yes"/>
			<point x="603" y="700"/>
			<point x="749" y="555"/>
			<point x="749" y="376" type="curve" smooth="yes"/>
			<point x="749" y="196"/>
			<point x="603" y="50"/>
		</contour>
	</outline>
</glyph>
<glyph name="guillemetleft" format="2">
	<advance width="544"/>
	<unicode hex="00AB"/>
	<outline>
		<contour>
			<point x="30" y="275" type="curve"/>
			<point x="91" y="214"/>
			<point x="141" y="152"/>
			<point x="182" y="91" type="curve"/>
			<point x="294" y="91" type="line"/>
			<point x="250" y="152"/>
			<point x="205" y="214"/>
			<point x="147" y="275" type="curve"/>
			<point x="205" y="336"/>
			<point x="250" y="398"/>
			<point x="294" y="459" type="curve"/>
			<point x="182" y="459" type="line"/>
			<point x="141" y="398"/>
			<point x="91" y="336"/>
		</contour>
		<contour>
			<point x="250" y="275" type="curve"/>
			<point x="311" y="214"/>
			<point x="361" y="152"/>
			<point x="402" y="91" type="curve"/>
			<point x="514" y="91" type="line"/>
			<point x="470" y="152"/>
			<point x="425" y="214"/>
			<point x="367" y="275" type="curve"/>
			<point x="425" y="336"/>
			<point x="470" y="398"/>
			<point x="514" y="459" type="curve"/>
			<point x="402" y="459" type="line"/>
			<point x="361" y="398"/>
			<point x="311" y="336"/>
		</contour>
	</outline>
</glyph>
<glyph name="logicalnot" format="2">
	<advance width="584"/>
	<unicode hex="00AC"/>
	<outline>
		<contour>
			<point x="35" y="342" type="line"/>
			<point x="467" y="342" type="line"/>
			<point x="467" y="166" type="line"/>
			<point x="549" y="166" type="line"/>
			<point x="549" y="421" type="line"/>
			<point x="35" y="421" type="line"/>
		</contour>
	</outline>
</glyph>
<glyph name="macron" format="2">
	<advance width="600"/>
	<unicode hex="00AF"/>
	<outline>
		<contour>
			<point x="150" y="606" type="line"/>
			<point x="440" y="606" type="line"/>
			<point x="440" y="678" type="line"/>
			<point x="150" y="678" type="line"/>
		</contour>
	</outline>
</glyph>
<glyph name="plusminus" format="2">
	<advance width="584"/>
	<unicode hex="00B1"/>
	<outline>
		<contour>
			<point x="35" y="32" type="line"/>
			<point x="549" y="32" type="line"/>
			<point x="549" y="111" type="line"/>
			<point x="35" y="111" type="line"/>
		</contour>
		<contour>
			<point x="35" y="342" type="line"/>
			<point x="549" y="342" type="line"/>
			<point x="549" y="421" type="line"/>
			<point x="35" y="421" type="line"/>
		</contour>
		<contour>
			<point x="252" y="581" type="line"/>
			<point x="252" y="181" type="line"/>
			<point x="331" y="181" type="line"/>
			<point x="331" y="581" type="line"/>
		</contour>
	</outline>
</glyph>
<glyph name="acute" format="2">
	<advance width="600"/>
	<unicode hex="00B4"/>
	<outline>
		<contour>
			<point x="277" y="576" type="line"/>
			<point x="371" y="576" type="line"/>
			<point x="471" y="714" type="line"/>
			<point x="360" y="714" type="line"/>
		</contour>
	</outline>
</glyph>
<glyph name="micro" format="2">
	<advance width="635"/>
	<unicode hex="00B5"/>
	<outline>
		<contour>
			<point x="285" y="-14" type="curve" smooth="yes"/>
			<point x="380" y="-14"/>
			<point x="440" y="30"/>
			<point x="455" y="59" type="curve"/>
			<point x="458" y="45" type="line" smooth="yes"/>
			<point x="463" y="21"/>
			<point x="485" y="-15"/>
			<point x="572" y="-15" type="curve"/>
			<point x="612" y="-15" type="line"/>
			<point x="609" y="75" type="line"/>
			<point x="589" y="74" type="line" smooth="yes"/>
			<point x="562" y="73"/>
			<point x="546" y="88"/>
			<point x="546" y="116" type="curve" smooth="yes"/>
			<point x="546" y="504" type="line"/>
			<point x="455" y="504" type="line"/>
			<point x="455" y="202" type="line" smooth="yes"/>
			<point x="455" y="191"/>
			<point x="455" y="178"/>
			<point x="453" y="167" type="curve" smooth="yes"/>
			<point x="442" y="107"/>
			<point x="368" y="78"/>
			<point x="304" y="78" type="curve" smooth="yes"/>
			<point x="210" y="78"/>
			<point x="159" y="110"/>
			<point x="159" y="201" type="curve" smooth="yes"/>
			<point x="159" y="504" type="line"/>
			<point x="67" y="504" type="line"/>
			<point x="67" y="197" type="line" smooth="yes"/>
			<point x="67" y="62"/>
			<point x="141" y="-14"/>
		</contour>
		<contour>
			<point x="67" y="504" type="line"/>
			<point x="67" y="-278" type="line"/>
			<point x="159" y="-278" type="line"/>
			<point x="159" y="504" type="line"/>
		</contour>
	</outline>
</glyph>
<glyph name="paragraph" format="2">
	<advance width="740"/>
	<unicode hex="00B6"/>
	<outline>
		<contour>
			<point x="195" y="-276" type="line"/>
			<point x="373" y="-276" type="line" smooth="yes"/>
			<point x="497" y="-276"/>
			<point x="566" y="-273"/>
			<point x="577" y="-100" type="curve" smooth="yes"/>
			<point x="578" y="-86"/>
			<point x="579" y="-71"/>
			<point x="579" y="-53" type="curve" smooth="yes"/>
			<point x="579" y="268"/>
			<point x="579" y="523"/>
			<point x="579" y="688" type="curve"/>
			<point x="615" y="694"/>
			<point x="646" y="701"/>
			<point x="679" y="716" type="curve"/>
			<point x="679" y="825" type="line"/>
			<point x="646" y="805"/>
			<point x="613" y="792"/>
			<point x="580" y="783" type="curve" smooth="yes"/>
			<point x="542" y="773"/>
			<point x="470" y="756"/>
			<point x="361" y="752" type="curve" smooth="yes"/>
			<point x="166" y="745"/>
			<point x="54" y="636"/>
			<point x="54" y="440" type="curve" smooth="yes"/>
			<point x="54" y="249"/>
			<point x="192" y="167"/>
			<point x="355" y="126" type="curve" smooth="yes"/>
			<point x="454" y="101"/>
			<point x="486" y="54"/>
			<point x="486" y="-38" type="curve" smooth="yes"/>
			<point x="486" y="-163"/>
			<point x="442" y="-186"/>
			<point x="369" y="-183" type="curve" smooth="yes"/>
			<point x="199" y="-176" type="line"/>
		</contour>
		<contour>
			<point x="485" y="173" type="line"/>
			<point x="485" y="174"/>
			<point x="419" y="204"/>
			<point x="352" y="224" type="curve" smooth="yes"/>
			<point x="195" y="271"/>
			<point x="156" y="326"/>
			<point x="152" y="432" type="curve" smooth="yes"/>
			<point x="146" y="581"/>
			<point x="211" y="641"/>
			<point x="332" y="657" type="curve" smooth="yes"/>
			<point x="375" y="663"/>
			<point x="425" y="668"/>
			<point x="485" y="672" type="curve"/>
		</contour>
	</outline>
</glyph>
<glyph name="AE" format="2">
	<advance width="1033"/>
	<unicode hex="00C6"/>
	<anchor x="520" y="0" name="bottom"/>
	<anchor x="520" y="752" name="top"/>
	<outline>
		<contour>
			<point x="486" y="0" type="line"/>
			<point x="980" y="0" type="line"/>
			<point x="980" y="90" type="line"/>
			<point x="580" y="90" type="line"/>
			<point x="580" y="340" type="line"/>
			<point x="956" y="340" type="line"/>
			<point x="956" y="430" type="line"/>
			<point x="580" y="430" type="line"/>
			<point x="580" y="661" type="line"/>
			<point x="977" y="661" type="line"/>
			<point x="977" y="752" type="line"/>
			<point x="486" y="752" type="line"/>
		</contour>
		<contour>
			<point x="191" y="195" type="line"/>
			<point x="560" y="195" type="line"/>
			<point x="560" y="272" type="line"/>
			<point x="191" y="272" type="line"/>
		</contour>
		<contour>
			<point x="23" y="0" type="line"/>
			<point x="120" y="0" type="line"/>
			<point x="443" y="752" type="line"/>
			<point x="354" y="752" type="line"/>
		</contour>
		<contour>
			<point x="379" y="661" type="line"/>
			<point x="677" y="661" type="line"/>
			<point x="677" y="752" type="line"/>
			<point x="379" y="752" type="line"/>
		</contour>
	</outline>
</glyph>
<glyph name="multiply" format="2">
	<advance width="493"/>
	<unicode hex="00D7"/>
	<outline>
		<contour>
			<point x="35" y="167" type="line"/>
			<point x="91" y="111" type="line"/>
			<point x="246" y="266" type="line"/>
			<point x="400" y="112" type="line"/>
			<point x="456" y="168" type="line"/>
			<point x="302" y="322" type="line"/>
			<point x="458" y="477" type="line"/>
			<point x="402" y="533" type="line"/>
			<point x="246" y="378" type="line"/>
			<point x="93" y="531" type="line"/>
			<point x="37" y="475" type="line"/>
			<point x="190" y="322" type="line"/>
		</contour>
	</outline>
</glyph>
<glyph name="eth" format="2">
	<advance width="600"/>
	<unicode hex="00F0"/>
	<anchor x="319" y="0" name="bottom"/>
	<anchor x="319" y="252" name="center"/>
	<anchor x="516" y="782" name="top"/>
	<anchor x="618" y="504" name="topright"/>
	<outline>
		<contour>
			<point x="301" y="-14" type="curve" smooth="yes"/>
			<point x="387" y="-14"/>
			<point x="443" y="19"/>
			<point x="479" y="50" type="curve" smooth="yes"/>
			<point x="517" y="82"/>
			<point x="558" y="154"/>
			<point x="558" y="266" type="curve" smooth="yes"/>
			<point x="558" y="715"/>
			<point x="355" y="782"/>
			<point x="139" y="782" type="curve"/>
			<point x="139" y="712" type="line"/>
			<point x="321" y="710"/>
			<point x="439" y="622"/>
			<point x="469" y="445" type="curve"/>
			<point x="438" y="486"/>
			<point x="377" y="524"/>
			<point x="301" y="524" type="curve" smooth="yes"/>
			<point x="123" y="524"/>
			<point x="40" y="385"/>
			<point x="40" y="255" type="curve" smooth="yes"/>
			<point x="40" y="124"/>
			<point x="123" y="-14"/>
		</contour>
		<contour>
			<point x="301" y="76" type="curve" smooth="yes"/>
			<point x="187" y="73"/>
			<point x="133" y="145"/>
			<point x="133" y="255" type="curve" smooth="yes"/>
			<point x="133" y="364"/>
			<point x="187" y="437"/>
			<point x="301" y="434" type="curve" smooth="yes"/>
			<point x="413" y="431"/>
			<point x="469" y="363"/>
			<point x="469" y="255" type="curve" smooth="yes"/>
			<point x="469" y="147"/>
			<point x="413" y="79"/>
		</contour>
		<contour>
			<point x="149" y="636" type="line"/>
			<point x="149" y="550" type="line"/>
			<point x="539" y="698" type="line"/>
			<point x="539" y="782" type="line"/>
		</contour>
	</outline>
</glyph>
<glyph name="dcroat" format="2">
	<advance width="631"/>
	<unicode hex="0111"/>
	<outline>
		<contour>
			<point x="301" y="-14" type="curve" smooth="yes"/>
			<point x="377" y="-14"/>
			<point x="438" y="16"/>
			<point x="469" y="54" type="curve"/>
			<point x="469" y="0" type="line"/>
			<point x="560" y="0" type="line"/>
			<point x="560" y="782" type="line"/>
			<point x="469" y="782" type="line"/>
			<point x="469" y="445" type="line"/>
			<point x="438" y="486"/>
			<point x="377" y="524"/>
			<point x="301" y="524" type="curve" smooth="yes"/>
			<point x="123" y="524"/>
			<point x="40" y="385"/>
			<point x="40" y="255" type="curve" smooth="yes"/>
			<point x="40" y="124"/>
			<point x="123" y="-14"/>
		</contour>
		<contour>
			<point x="301" y="76" type="curve" smooth="yes"/>
			<point x="187" y="73"/>
			<point x="133" y="145"/>
			<point x="133" y="255" type="curve" smooth="yes"/>
			<point x="133" y="364"/>
			<point x="187" y="437"/>
			<point x="301" y="434" type="curve" smooth="yes"/>
			<point x="413" y="431"/>
			<point x="469" y="363"/>
			<point x="469" y="255" type="curve" smooth="yes"/>
			<point x="469" y="147"/>
			<point x="413" y="79"/>
		</contour>
		<contour>
			<point x="334" y="718" type="line"/>
			<point x="334" y="644" type="line"/>
			<point x="630" y="644" type="line"/>
			<point x="630" y="718" type="line"/>
		</contour>
	</outline>
</glyph>
<glyph name="idotless" format="2">
	<advance width="205"/>
	<unicode hex="0131"/>
	<anchor x="103" y="0" name="bottom"/>
	<anchor x="160" y="0" name="ogonek"/>
	<anchor x="103" y="565" name="top"/>
	<outline>
		<contour>
			<point x="57" y="0" type="line"/>
			<point x="148" y="0" type="line"/>
			<point x="148" y="504" type="line"/>
			<point x="57" y="504" type="line"/>
		</contour>
	</outline>
</glyph>
<glyph name="OE" format="2">
	<advance width="1205"/>
	<unicode hex="0152"/>
	<anchor x="603" y="0" name="bottom"/>
	<anchor x="603" y="752" name="top"/>
	<outline>
		<contour>
			<point x="401" y="-14" type="curve" smooth="yes"/>
			<point x="643" y="-14"/>
			<point x="740" y="164"/>
			<point x="740" y="379" type="curve" smooth="yes"/>
			<point x="740" y="594"/>
			<point x="643" y="772"/>
			<point x="401" y="772" type="curve" smooth="yes"/>
			<point x="149" y="772"/>
			<point x="52" y="594"/>
			<point x="52" y="379" type="curve" smooth="yes"/>
			<point x="52" y="164"/>
			<point x="149" y="-14"/>
		</contour>
		<contour>
			<point x="401" y="76" type="curve" smooth="yes"/>
			<point x="217" y="76"/>
			<point x="148" y="197"/>
			<point x="148" y="379" type="curve" smooth="yes"/>
			<point x="148" y="560"/>
			<point x="217" y="683"/>
			<point x="401" y="683" type="curve" smooth="yes"/>
			<point x="586" y="683"/>
			<point x="653" y="560"/>
			<point x="653" y="379" type="curve" smooth="yes"/>
			<point x="653" y="207"/>
			<point x="586" y="76"/>
		</contour>
		<contour>
			<point x="658" y="0" type="line"/>
			<point x="1152" y="0" type="line"/>
			<point x="1152" y="90" type="line"/>
			<point x="740" y="90" type="line"/>
			<point x="740" y="340" type="line"/>
			<point x="1126" y="340" type="line"/>
			<point x="1126" y="430" type="line"/>
			<point x="740" y="430" type="line"/>
			<point x="740" y="661" type="line"/>
			<point x="1149" y="661" type="line"/>
			<point x="1149" y="752" type="line"/>
			<point x="658" y="752" type="line"/>
		</contour>
	</outline>
</glyph>
<glyph name="Tbar" format="2">
	<advance width="649"/>
	<unicode hex="0166"/>
	<outline>
		<contour>
			<point x="278" y="0" type="line"/>
			<point x="372" y="0" type="line"/>
			<point x="372" y="662" type="line"/>
			<point x="600" y="662" type="line"/>
			<point x="600" y="752" type="line"/>
			<point x="49" y="752" type="line"/>
			<point x="49" y="662" type="line"/>
			<point x="278" y="662" type="line"/>
		</contour>
		<contour>
			<point x="118" y="325" type="line"/>
			<point x="532" y="325" type="line"/>
			<point x="532" y="410" type="line"/>
			<point x="118" y="410" type="line"/>
		</contour>
	</outline>
</glyph>
<glyph name="tbar" format="2">
	<advance width="408"/>
	<unicode hex="0167"/>
	<outline>
		<contour>
			<point x="330" y="0" type="curve" smooth="yes"/>
			<point x="366" y="0" type="line"/>
			<point x="363" y="91" type="line"/>
			<point x="334" y="90" type="line" smooth="yes"/>
			<point x="261" y="87"/>
			<point x="225" y="89"/>
			<point x="225" y="169" type="curve" smooth="yes"/>
			<point x="225" y="683" type="line"/>
			<point x="134" y="683" type="line"/>
			<point x="134" y="176" type="line" smooth="yes"/>
			<point x="134" y="0"/>
			<point x="193" y="0"/>
		</contour>
		<contour>
			<point x="35" y="422" type="line"/>
			<point x="369" y="422" type="line"/>
			<point x="368" y="504" type="line"/>
			<point x="35" y="504" type="line"/>
		</contour>
		<contour>
			<point x="134" y="683" type="move"/>
		</contour>
		<contour>
			<point x="35" y="237" type="line"/>
			<point x="369" y="237" type="line"/>
			<point x="368" y="305" type="line"/>
			<point x="35" y="305" type="line"/>
		</contour>
	</outline>
</glyph>
<glyph name="longs" format="2">
	<advance width="388"/>
	<unicode hex="017F"/>
	<anchor x="196" y="0" name="bottom"/>
	<anchor x="196" y="504" name="top"/>
	<outline>
		<contour>
			<point x="129" y="0" type="line"/>
			<point x="220" y="0" type="line"/>
			<point x="220" y="611" type="line" smooth="yes"/>
			<point x="220" y="699"/>
			<point x="264" y="695"/>
			<point x="339" y="690" type="curve" smooth="yes"/>
			<point x="355" y="689" type="line"/>
			<point x="361" y="780" type="line"/>
			<point x="335" y="780" type="line" smooth="yes"/>
			<point x="198" y="780"/>
			<point x="129" y="779"/>
			<point x="129" y="604" type="curve" smooth="yes"/>
		</contour>
		<contour>
			<point x="30" y="422" type="line"/>
			<point x="196" y="422" type="line"/>
			<point x="200" y="504" type="line"/>
			<point x="30" y="504" type="line"/>
		</contour>
	</outline>
</glyph>
<glyph name="florin" format="2">
	<advance width="548"/>
	<unicode hex="0192"/>
	<outline>
		<contour>
			<point x="58" y="383" type="line"/>
			<point x="505" y="383" type="line"/>
			<point x="505" y="467" type="line"/>
			<point x="58" y="467" type="line"/>
		</contour>
		<contour>
			<point x="17" y="0" type="line"/>
			<point x="43" y="0" type="line" smooth="yes"/>
			<point x="190" y="0"/>
			<point x="197" y="6"/>
			<point x="255" y="174" type="curve" smooth="yes"/>
			<point x="282" y="252"/>
			<point x="370" y="547"/>
			<point x="388" y="611" type="curve" smooth="yes"/>
			<point x="407" y="677"/>
			<point x="413" y="692"/>
			<point x="461" y="692" type="curve" smooth="yes"/>
			<point x="474" y="692"/>
			<point x="489" y="691"/>
			<point x="505" y="690" type="curve" smooth="yes"/>
			<point x="521" y="689" type="line"/>
			<point x="529" y="780" type="line"/>
			<point x="503" y="780" type="line" smooth="yes"/>
			<point x="356" y="780"/>
			<point x="342" y="776"/>
			<point x="292" y="604" type="curve" smooth="yes"/>
			<point x="273" y="538"/>
			<point x="183" y="239"/>
			<point x="157" y="162" type="curve" smooth="yes"/>
			<point x="137" y="104"/>
			<point x="131" y="88"/>
			<point x="85" y="88" type="curve" smooth="yes"/>
			<point x="72" y="88"/>
			<point x="57" y="89"/>
			<point x="41" y="90" type="curve" smooth="yes"/>
			<point x="25" y="91" type="line"/>
		</contour>
	</outline>
</glyph>
<glyph name="khook" format="2">
	<advance width="570"/>
	<unicode hex="0199"/>
	<anchor x="285" y="0" name="bottom"/>
	<anchor x="285" y="782" name="top"/>
	<outline>
		<contour>
			<point x="125" y="153" type="line"/>
			<point x="526" y="504" type="line"/>
			<point x="404" y="504" type="line"/>
			<point x="125" y="265" type="line"/>
		</contour>
		<contour>
			<point x="78" y="0" type="line"/>
			<point x="169" y="0" type="line"/>
			<point x="169" y="564" type="line"/>
			<point x="169" y="654"/>
			<point x="197" y="712"/>
			<point x="368" y="652" type="curve"/>
			<point x="405" y="739" type="line"/>
			<point x="261" y="806"/>
			<point x="78" y="776"/>
			<point x="78" y="604" type="curve"/>
		</contour>
		<contour>
			<point x="435" y="0" type="line"/>
			<point x="541" y="0" type="line"/>
			<point x="249" y="339" type="line"/>
			<point x="184" y="287" type="line"/>
		</contour>
	</outline>
</glyph>
<glyph name="circumflex" format="2">
	<advance width="600"/>
	<unicode hex="02C6"/>
	<outline>
		<contour>
			<point x="151" y="576" type="line"/>
			<point x="231" y="576" type="line"/>
			<point x="298" y="667" type="line"/>
			<point x="364" y="576" type="line"/>
			<point x="444" y="576" type="line"/>
			<point x="341" y="714" type="line"/>
			<point x="254" y="714" type="line"/>
		</contour>
	</outline>
</glyph>
<glyph name="breve" format="2">
	<advance width="600"/>
	<unicode hex="02D8"/>
	<outline>
		<contour>
			<point x="111" y="716" type="line"/>
			<point x="111" y="647"/>
			<point x="180" y="568"/>
			<point x="298" y="568" type="curve"/>
			<point x="415" y="568"/>
			<point x="484" y="647"/>
			<point x="484" y="716" type="curve"/>
			<point x="408" y="716" type="line"/>
			<point x="408" y="676"/>
			<point x="366" y="635"/>
			<point x="298" y="635" type="curve"/>
			<point x="230" y="635"/>
			<point x="187" y="676"/>
			<point x="187" y="716" type="curve"/>
		</contour>
	</outline>
</glyph>
<glyph name="dotaccent" format="2">
	<advance width="600"/>
	<unicode hex="02D9"/>
	<outline>
		<contour>
			<point x="305" y="579" type="curve" smooth="yes"/>
			<point x="340" y="579"/>
			<point x="368" y="607"/>
			<point x="368" y="642" type="curve" smooth="yes"/>
			<point x="368" y="677"/>
			<point x="340" y="705"/>
			<point x="305" y="705" type="curve" smooth="yes"/>
			<point x="270" y="705"/>
			<point x="242" y="677"/>
			<point x="242" y="642" type="curve" smooth="yes"/>
			<point x="242" y="607"/>
			<point x="270" y="579"/>
		</contour>
	</outline>
</glyph>
<glyph name="tilde" format="2">
	<advance width="600"/>
	<unicode hex="02DC"/>
	<outline>
		<contour>
			<point x="192" y="587" type="line"/>
			<point x="195" y="609"/>
			<point x="199" y="625"/>
			<point x="242" y="625" type="curve" smooth="yes"/>
			<point x="286" y="625"/>
			<point x="289" y="587"/>
			<point x="360" y="587" type="curve" smooth="yes"/>
			<point x="450" y="587"/>
			<point x="475" y="631"/>
			<point x="475" y="697" type="curve"/>
			<point x="411" y="697" type="line"/>
			<point x="412" y="680"/>
			<point x="403" y="658"/>
			<point x="360" y="658" type="curve" smooth="yes"/>
			<point x="316" y="658"/>
			<point x="314" y="697"/>
			<point x="242" y="697" type="curve" smooth="yes"/>
			<point x="152" y="697"/>
			<point x="128" y="646"/>
			<point x="128" y="587" type="curve"/>
		</contour>
	</outline>
</glyph>
<glyph name="hungarumlaut" format="2">
	<advance width="600"/>
	<unicode hex="02DD"/>
	<outline>
		<contour>
			<point x="132" y="576" type="line"/>
			<point x="209" y="576" type="line"/>
			<point x="307" y="714" type="line"/>
			<point x="217" y="714" type="line"/>
		</contour>
		<contour>
			<point x="280" y="576" type="line"/>
			<point x="357" y="576" type="line"/>
			<point x="455" y="714" type="line"/>
			<point x="365" y="714" type="line"/>
		</contour>
	</outline>
</glyph>
<glyph name="gravecomb" format="2">
	<advance width="600"/>
	<unicode hex="0300"/>
	<anchor x="309.5" y="504" name="_top"/>
	<anchor x="310" y="714" name="top"/>
	<outline>
		<contour>
			<point x="347" y="571" type="line"/>
			<point x="264" y="709" type="line"/>
			<point x="153" y="709" type="line"/>
			<point x="253" y="571" type="line"/>
		</contour>
	</outline>
</glyph>
<glyph name="acutecomb" format="2">
	<advance width="600"/>
	<unicode hex="0301"/>
	<anchor x="310" y="504" name="_top"/>
	<anchor x="310" y="714" name="top"/>
	<outline>
		<contour>
			<point x="277" y="571" type="line"/>
			<point x="371" y="571" type="line"/>
			<point x="471" y="709" type="line"/>
			<point x="360" y="709" type="line"/>
		</contour>
	</outline>
</glyph>
<glyph name="circumflexcomb" format="2">
	<advance width="600"/>
	<unicode hex="0302"/>
	<anchor x="297.5" y="504" name="_top"/>
	<anchor x="297.5" y="714" name="top"/>
	<outline>
		<contour>
			<point x="145" y="571" type="line"/>
			<point x="231" y="571" type="line"/>
			<point x="298" y="662" type="line"/>
			<point x="364" y="571" type="line"/>
			<point x="450" y="571" type="line"/>
			<point x="346" y="709" type="line"/>
			<point x="249" y="709" type="line"/>
		</contour>
	</outline>
</glyph>
<glyph name="tildecomb" format="2">
	<advance width="600"/>
	<unicode hex="0303"/>
	<anchor x="301.5" y="504" name="_top"/>
	<anchor x="301.5" y="692" name="top"/>
	<outline>
		<contour>
			<point x="192" y="577" type="line"/>
			<point x="192" y="599"/>
			<point x="199" y="615"/>
			<point x="242" y="615" type="curve" smooth="yes"/>
			<point x="286" y="615"/>
			<point x="289" y="577"/>
			<point x="360" y="577" type="curve" smooth="yes"/>
			<point x="450" y="577"/>
			<point x="475" y="621"/>
			<point x="475" y="687" type="curve"/>
			<point x="411" y="687" type="line"/>
			<point x="411" y="670"/>
			<point x="403" y="648"/>
			<point x="360" y="648" type="curve" smooth="yes"/>
			<point x="316" y="648"/>
			<point x="314" y="687"/>
			<point x="242" y="687" type="curve" smooth="yes"/>
			<point x="152" y="687"/>
			<point x="128" y="636"/>
			<point x="128" y="577" type="curve"/>
		</contour>
	</outline>
</glyph>
<glyph name="brevecomb" format="2">
	<advance width="600"/>
	<unicode hex="0306"/>
	<anchor x="297.5" y="504" name="_top"/>
	<anchor x="297.5" y="716" name="top"/>
	<outline>
		<contour>
			<point x="131" y="711" type="line"/>
			<point x="131" y="642"/>
			<point x="180" y="563"/>
			<point x="298" y="563" type="curve"/>
			<point x="415" y="563"/>
			<point x="464" y="642"/>
			<point x="464" y="711" type="curve"/>
			<point x="388" y="711" type="line"/>
			<point x="388" y="671"/>
			<point x="361" y="630"/>
			<point x="298" y="630" type="curve"/>
			<point x="235" y="630"/>
			<point x="207" y="671"/>
			<point x="207" y="711" type="curve"/>
		</contour>
	</outline>
</glyph>
<glyph name="dotaccentcomb" format="2">
	<advance width="600"/>
	<unicode hex="0307"/>
	<anchor x="305" y="504" name="_top"/>
	<anchor x="305" y="705" name="top"/>
	<outline>
		<contour>
			<point x="305" y="574" type="curve" smooth="yes"/>
			<point x="340" y="574"/>
			<point x="368" y="602"/>
			<point x="368" y="637" type="curve" smooth="yes"/>
			<point x="368" y="672"/>
			<point x="340" y="700"/>
			<point x="305" y="700" type="curve" smooth="yes"/>
			<point x="270" y="700"/>
			<point x="242" y="672"/>
			<point x="242" y="637" type="curve" smooth="yes"/>
			<point x="242" y="602"/>
			<point x="270" y="574"/>
		</contour>
	</outline>
</glyph>
<glyph name="ringcomb" format="2">
	<advance width="600"/>
	<unicode hex="030A"/>
	<anchor x="282.5" y="504" name="_top"/>
	<anchor x="282.5" y="721" name="top"/>
	<outline>
		<contour>
			<point x="283" y="547" type="curve" smooth="yes"/>
			<point x="330" y="547"/>
			<point x="367" y="584"/>
			<point x="367" y="631" type="curve" smooth="yes"/>
			<point x="367" y="679"/>
			<point x="330" y="716"/>
			<point x="283" y="716" type="curve" smooth="yes"/>
			<point x="237" y="716"/>
			<point x="198" y="679"/>
			<point x="198" y="631" type="curve" smooth="yes"/>
			<point x="198" y="584"/>
			<point x="237" y="547"/>
		</contour>
		<contour>
			<point x="283" y="591" type="curve" smooth="yes"/>
			<point x="260" y="591"/>
			<point x="242" y="609"/>
			<point x="242" y="632" type="curve" smooth="yes"/>
			<point x="242" y="654"/>
			<point x="260" y="672"/>
			<point x="283" y="672" type="curve" smooth="yes"/>
			<point x="305" y="672"/>
			<point x="323" y="654"/>
			<point x="323" y="632" type="curve" smooth="yes"/>
			<point x="323" y="609"/>
			<point x="305" y="591"/>
		</contour>
	</outline>
</glyph>
<glyph name="dblgravecomb" format="2">
	<advance width="600"/>
	<unicode hex="030F"/>
	<anchor x="293.5" y="504" name="_top"/>
	<anchor x="293.5" y="714" name="top"/>
	<outline>
		<contour>
			<point x="455" y="571" type="line"/>
			<point x="370" y="709" type="line"/>
			<point x="280" y="709" type="line"/>
			<point x="378" y="571" type="line"/>
		</contour>
		<contour>
			<point x="307" y="571" type="line"/>
			<point x="222" y="709" type="line"/>
			<point x="132" y="709" type="line"/>
			<point x="230" y="571" type="line"/>
		</contour>
	</outline>
</glyph>
<glyph name="commaaccentcomb" format="2">
	<advance width="600"/>
	<unicode hex="0326"/>
	<anchor x="369.5" y="0" name="_bottom"/>
	<anchor x="369.5" y="-200" name="bottom"/>
	<outline>
		<contour>
			<point x="320" y="-219" type="curve"/>
			<point x="327" y="-219" type="line" smooth="yes"/>
			<point x="340" y="-219"/>
			<point x="428" y="-183"/>
			<point x="428" y="-88" type="curve" smooth="yes"/>
			<point x="428" y="-58"/>
			<point x="408" y="-40"/>
			<point x="380" y="-40" type="curve" smooth="yes"/>
			<point x="353" y="-40"/>
			<point x="333" y="-65"/>
			<point x="333" y="-88" type="curve" smooth="yes"/>
			<point x="333" y="-137"/>
			<point x="373" y="-140"/>
		</contour>
	</outline>
</glyph>
<glyph name="ogonekcomb" format="2">
	<advance width="600"/>
	<unicode hex="0328"/>
	<anchor x="414" y="0" name="_ogonek"/>
	<outline>
		<contour>
			<point x="414" y="-206" type="curve"/>
			<point x="414" y="-145" type="line"/>
			<point x="396" y="-145"/>
			<point x="329" y="-131"/>
			<point x="329" y="-81" type="curve" smooth="yes"/>
			<point x="329" y="-31"/>
			<point x="360" y="-10"/>
			<point x="402" y="0" type="curve"/>
			<point x="313" y="0" type="line"/>
			<point x="294" y="-11"/>
			<point x="258" y="-40"/>
			<point x="258" y="-97" type="curve" smooth="yes"/>
			<point x="258" y="-163"/>
			<point x="330" y="-206"/>
		</contour>
	</outline>
</glyph>
<glyph name="tildebelowcomb" format="2">
	<advance width="600"/>
	<unicode hex="0330"/>
	<anchor x="301.5" y="0" name="_bottom"/>
	<anchor x="301.5" y="-178" name="bottom"/>
	<outline>
		<contour>
			<point x="192" y="-178" type="line"/>
			<point x="195" y="-156"/>
			<point x="199" y="-140"/>
			<point x="242" y="-140" type="curve" smooth="yes"/>
			<point x="286" y="-140"/>
			<point x="289" y="-178"/>
			<point x="360" y="-178" type="curve" smooth="yes"/>
			<point x="450" y="-178"/>
			<point x="475" y="-134"/>
			<point x="475" y="-68" type="curve"/>
			<point x="411" y="-68" type="line"/>
			<point x="412" y="-85"/>
			<point x="403" y="-107"/>
			<point x="360" y="-107" type="curve" smooth="yes"/>
			<point x="316" y="-107"/>
			<point x="314" y="-68"/>
			<point x="242" y="-68" type="curve" smooth="yes"/>
			<point x="152" y="-68"/>
			<point x="128" y="-119"/>
			<point x="128" y="-178" type="curve"/>
		</contour>
	</outline>
</glyph>
<glyph name="lowernumeral-greek" format="2">
	<advance width="600"/>
	<unicode hex="0375"/>
	<outline>
		<contour>
			<point x="355" y="310" type="line"/>
			<point x="287" y="310" type="line"/>
			<point x="209" y="0" type="line"/>
			<point x="315" y="0" type="line"/>
		</contour>
	</outline>
</glyph>
<glyph name="Sigma" format="2">
	<advance width="565"/>
	<unicode hex="03A3"/>
	<outline>
		<contour>
			<point x="17" y="0" type="line"/>
			<point x="512" y="0" type="line"/>
			<point x="512" y="90" type="line"/>
			<point x="156" y="90" type="line"/>
			<point x="427" y="378" type="line"/>
			<point x="161" y="662" type="line"/>
			<point x="512" y="662" type="line"/>
			<point x="512" y="752" type="line"/>
			<point x="17" y="752" type="line"/>
			<point x="17" y="732" type="line" smooth="yes"/>
			<point x="17" y="660"/>
			<point x="204" y="473"/>
			<point x="298" y="379" type="curve"/>
			<point x="204" y="283"/>
			<point x="17" y="84"/>
			<point x="17" y="20" type="curve" smooth="yes"/>
		</contour>
	</outline>
</glyph>
<glyph name="Psi" format="2">
	<advance width="782"/>
	<unicode hex="03A8"/>
	<outline>
		<contour>
			<point x="391" y="219" type="curve" smooth="yes"/>
			<point x="668" y="219"/>
			<point x="713" y="410"/>
			<point x="713" y="492" type="curve" smooth="yes"/>
			<point x="713" y="752" type="line"/>
			<point x="619" y="752" type="line"/>
			<point x="619" y="505" type="line" smooth="yes"/>
			<point x="619" y="413"/>
			<point x="555" y="316"/>
			<point x="391" y="316" type="curve" smooth="yes"/>
			<point x="218" y="316"/>
			<point x="163" y="410"/>
			<point x="163" y="505" type="curve" smooth="yes"/>
			<point x="163" y="752" type="line"/>
			<point x="69" y="752" type="line"/>
			<point x="69" y="492" type="line" smooth="yes"/>
			<point x="69" y="410"/>
			<point x="114" y="219"/>
		</contour>
		<contour>
			<point x="344" y="0" type="line"/>
			<point x="438" y="0" type="line"/>
			<point x="438" y="752" type="line"/>
			<point x="344" y="752" type="line"/>
		</contour>
	</outline>
</glyph>
<glyph name="Omega" format="2">
	<advance width="917"/>
	<unicode hex="03A9"/>
	<unicode hex="2126"/>
	<anchor x="459" y="0" name="bottom"/>
	<anchor x="140" y="752" name="topleft"/>
	<outline>
		<contour>
			<point x="68" y="88" type="line"/>
			<point x="86" y="0" type="line"/>
			<point x="373" y="0" type="line"/>
			<point x="363" y="98" type="line"/>
			<point x="235" y="154"/>
			<point x="190" y="284"/>
			<point x="190" y="392" type="curve" smooth="yes"/>
			<point x="190" y="576"/>
			<point x="260" y="683"/>
			<point x="460" y="683" type="curve" smooth="yes"/>
			<point x="660" y="683"/>
			<point x="730" y="576"/>
			<point x="730" y="392" type="curve" smooth="yes"/>
			<point x="730" y="284"/>
			<point x="682" y="154"/>
			<point x="554" y="98" type="curve"/>
			<point x="544" y="0" type="line"/>
			<point x="831" y="0" type="line"/>
			<point x="849" y="88" type="line"/>
			<point x="675" y="88" type="line"/>
			<point x="780" y="139"/>
			<point x="826" y="282"/>
			<point x="826" y="392" type="curve" smooth="yes"/>
			<point x="826" y="607"/>
			<point x="722" y="772"/>
			<point x="460" y="772" type="curve" smooth="yes"/>
			<point x="198" y="772"/>
			<point x="94" y="607"/>
			<point x="94" y="392" type="curve" smooth="yes"/>
			<point x="94" y="282"/>
			<point x="140" y="139"/>
			<point x="245" y="88" type="curve"/>
		</contour>
	</outline>
</glyph>
<glyph name="alpha" format="2">
	<advance width="696"/>
	<unicode hex="03B1"/>
	<anchor x="337" y="504" name="top"/>
	<outline>
		<contour>
			<point x="304" y="-14" type="curve" smooth="yes"/>
			<point x="380" y="-14"/>
			<point x="464" y="25"/>
			<point x="503" y="94" type="curve"/>
			<point x="525" y="37"/>
			<point x="566" y="0"/>
			<point x="662" y="0" type="curve"/>
			<point x="662" y="85" type="line"/>
			<point x="580" y="85"/>
			<point x="561" y="166"/>
			<point x="561" y="255" type="curve" smooth="yes"/>
			<point x="561" y="338"/>
			<point x="590" y="453"/>
			<point x="605" y="504" type="curve"/>
			<point x="519" y="504" type="line"/>
			<point x="511" y="472"/>
			<point x="503" y="425"/>
			<point x="503" y="412" type="curve"/>
			<point x="466" y="475"/>
			<point x="389" y="524"/>
			<point x="304" y="524" type="curve" smooth="yes"/>
			<point x="126" y="524"/>
			<point x="43" y="386"/>
			<point x="43" y="255" type="curve" smooth="yes"/>
			<point x="43" y="125"/>
			<point x="126" y="-14"/>
		</contour>
		<contour>
			<point x="304" y="76" type="curve" smooth="yes"/>
			<point x="190" y="76"/>
			<point x="136" y="146"/>
			<point x="136" y="255" type="curve" smooth="yes"/>
			<point x="136" y="365"/>
			<point x="190" y="434"/>
			<point x="304" y="434" type="curve" smooth="yes"/>
			<point x="380" y="434"/>
			<point x="480" y="386"/>
			<point x="480" y="255" type="curve" smooth="yes"/>
			<point x="480" y="123"/>
			<point x="390" y="76"/>
		</contour>
	</outline>
</glyph>
<glyph name="eta" format="2">
	<advance width="651"/>
	<unicode hex="03B7"/>
	<anchor x="336" y="504" name="top"/>
	<outline>
		<contour>
			<point x="495" y="-278" type="curve"/>
			<point x="586" y="-278" type="line"/>
			<point x="586" y="-83"/>
			<point x="586" y="113"/>
			<point x="586" y="308" type="curve" smooth="yes"/>
			<point x="586" y="456"/>
			<point x="516" y="525"/>
			<point x="368" y="524" type="curve" smooth="yes"/>
			<point x="263" y="523"/>
			<point x="203" y="481"/>
			<point x="187" y="450" type="curve"/>
			<point x="96" y="444" type="line"/>
			<point x="96" y="0" type="line"/>
			<point x="187" y="0" type="line"/>
			<point x="187" y="302" type="line" smooth="yes"/>
			<point x="187" y="313"/>
			<point x="187" y="326"/>
			<point x="189" y="337" type="curve" smooth="yes"/>
			<point x="200" y="397"/>
			<point x="277" y="433"/>
			<point x="351" y="433" type="curve" smooth="yes"/>
			<point x="415" y="433"/>
			<point x="470" y="406"/>
			<point x="488" y="355" type="curve" smooth="yes"/>
			<point x="494" y="338"/>
			<point x="495" y="321"/>
			<point x="495" y="304" type="curve" smooth="yes"/>
			<point x="495" y="110"/>
			<point x="495" y="-84"/>
		</contour>
		<contour>
			<point x="96" y="363" type="curve"/>
			<point x="187" y="450" type="line"/>
			<point x="178" y="480"/>
			<point x="155" y="504"/>
			<point x="70" y="504" type="curve"/>
			<point x="36" y="504" type="line"/>
			<point x="36" y="425" type="line"/>
			<point x="53" y="425" type="line" smooth="yes"/>
			<point x="90" y="425"/>
			<point x="96" y="384"/>
		</contour>
	</outline>
</glyph>
<glyph name="theta" format="2">
	<advance width="627"/>
	<unicode hex="03B8"/>
	<outline>
		<contour>
			<point x="313" y="-14" type="curve" smooth="yes"/>
			<point x="523" y="-14"/>
			<point x="597" y="197"/>
			<point x="597" y="398" type="curve" smooth="yes"/>
			<point x="597" y="595"/>
			<point x="513" y="796"/>
			<point x="313" y="796" type="curve" smooth="yes"/>
			<point x="114" y="796"/>
			<point x="30" y="595"/>
			<point x="30" y="398" type="curve" smooth="yes"/>
			<point x="30" y="197"/>
			<point x="104" y="-14"/>
		</contour>
		<contour>
			<point x="313" y="77" type="curve" smooth="yes"/>
			<point x="198" y="77"/>
			<point x="135" y="191"/>
			<point x="128" y="362" type="curve"/>
			<point x="499" y="362" type="line"/>
			<point x="491" y="191"/>
			<point x="428" y="77"/>
		</contour>
		<contour>
			<point x="129" y="448" type="line"/>
			<point x="141" y="605"/>
			<point x="208" y="705"/>
			<point x="313" y="705" type="curve" smooth="yes"/>
			<point x="417" y="705"/>
			<point x="486" y="605"/>
			<point x="498" y="448" type="curve"/>
		</contour>
	</outline>
</glyph>
<glyph name="kappa" format="2">
	<advance width="580"/>
	<unicode hex="03BA"/>
	<outline>
		<contour>
			<point x="78" y="0" type="line"/>
			<point x="169" y="0" type="line"/>
			<point x="169" y="504" type="line"/>
			<point x="78" y="504" type="line"/>
		</contour>
		<contour>
			<point x="425" y="0" type="line"/>
			<point x="535" y="0" type="line"/>
			<point x="253" y="329" type="line"/>
			<point x="184" y="277" type="line"/>
		</contour>
		<contour>
			<point x="125" y="153" type="line"/>
			<point x="432" y="409" type="line"/>
			<point x="437" y="414"/>
			<point x="452" y="421"/>
			<point x="470" y="421" type="curve" smooth="yes"/>
			<point x="507" y="421" type="line"/>
			<point x="507" y="504" type="line"/>
			<point x="457" y="504" type="line" smooth="yes"/>
			<point x="413" y="504"/>
			<point x="392" y="493"/>
			<point x="370" y="473" type="curve"/>
			<point x="125" y="265" type="line"/>
		</contour>
	</outline>
</glyph>
<glyph name="omicron" format="2">
	<advance width="637"/>
	<unicode hex="03BF"/>
	<anchor x="319" y="504" name="top"/>
	<outline>
		<contour>
			<point x="318" y="-14" type="curve" smooth="yes"/>
			<point x="520" y="-14"/>
			<point x="596" y="135"/>
			<point x="596" y="255" type="curve" smooth="yes"/>
			<point x="596" y="375"/>
			<point x="520" y="524"/>
			<point x="318" y="524" type="curve" smooth="yes"/>
			<point x="117" y="524"/>
			<point x="41" y="375"/>
			<point x="41" y="255" type="curve" smooth="yes"/>
			<point x="41" y="135"/>
			<point x="117" y="-14"/>
		</contour>
		<contour>
			<point x="318" y="76" type="curve" smooth="yes"/>
			<point x="209" y="76"/>
			<point x="136" y="142"/>
			<point x="136" y="255" type="curve" smooth="yes"/>
			<point x="136" y="368"/>
			<point x="207" y="434"/>
			<point x="318" y="434" type="curve" smooth="yes"/>
			<point x="429" y="434"/>
			<point x="501" y="368"/>
			<point x="501" y="255" type="curve" smooth="yes"/>
			<point x="501" y="142"/>
			<point x="427" y="76"/>
		</contour>
	</outline>
</glyph>
<glyph name="rho" format="2">
	<advance width="673"/>
	<unicode hex="03C1"/>
	<outline>
		<contour>
			<point x="355" y="-14" type="curve" smooth="yes"/>
			<point x="557" y="-14"/>
			<point x="633" y="135"/>
			<point x="633" y="255" type="curve" smooth="yes"/>
			<point x="633" y="375"/>
			<point x="557" y="524"/>
			<point x="355" y="524" type="curve" smooth="yes"/>
			<point x="154" y="524"/>
			<point x="78" y="395"/>
			<point x="78" y="255" type="curve" smooth="yes"/>
			<point x="78" y="135"/>
			<point x="154" y="-14"/>
		</contour>
		<contour>
			<point x="78" y="-278" type="line"/>
			<point x="169" y="-278" type="line"/>
			<point x="169" y="255" type="line"/>
			<point x="78" y="255" type="line"/>
		</contour>
		<contour>
			<point x="355" y="76" type="curve" smooth="yes"/>
			<point x="241" y="76"/>
			<point x="169" y="132"/>
			<point x="169" y="255" type="curve" smooth="yes"/>
			<point x="169" y="378"/>
			<point x="239" y="434"/>
			<point x="355" y="434" type="curve" smooth="yes"/>
			<point x="466" y="434"/>
			<point x="538" y="368"/>
			<point x="538" y="255" type="curve" smooth="yes"/>
			<point x="538" y="142"/>
			<point x="464" y="76"/>
		</contour>
	</outline>
</glyph>
<glyph name="sigma" format="2">
	<advance width="685"/>
	<unicode hex="03C3"/>
	<outline>
		<contour>
			<point x="306" y="-14" type="curve" smooth="yes"/>
			<point x="500" y="-14"/>
			<point x="573" y="130"/>
			<point x="573" y="246" type="curve" smooth="yes"/>
			<point x="573" y="361"/>
			<point x="500" y="504"/>
			<point x="306" y="504" type="curve" smooth="yes"/>
			<point x="113" y="504"/>
			<point x="40" y="361"/>
			<point x="40" y="246" type="curve" smooth="yes"/>
			<point x="40" y="130"/>
			<point x="113" y="-14"/>
		</contour>
		<contour>
			<point x="306" y="72" type="curve" smooth="yes"/>
			<point x="201" y="72"/>
			<point x="131" y="137"/>
			<point x="131" y="246" type="curve" smooth="yes"/>
			<point x="131" y="356"/>
			<point x="199" y="420"/>
			<point x="306" y="420" type="curve" smooth="yes"/>
			<point x="414" y="420"/>
			<point x="482" y="356"/>
			<point x="482" y="246" type="curve" smooth="yes"/>
			<point x="482" y="137"/>
			<point x="411" y="72"/>
		</contour>
		<contour>
			<point x="306" y="424" type="line"/>
			<point x="645" y="419" type="line"/>
			<point x="645" y="504" type="line"/>
			<point x="306" y="504" type="line"/>
		</contour>
	</outline>
</glyph>
<glyph name="phi" format="2">
	<advance width="670"/>
	<unicode hex="03C6"/>
	<outline>
		<contour>
			<point x="288" y="-278" type="line"/>
			<point x="379" y="-278" type="line"/>
			<point x="379" y="-12" type="line"/>
			<point x="549" y="7"/>
			<point x="632" y="127"/>
			<point x="629" y="282" type="curve" smooth="yes"/>
			<point x="627" y="381"/>
			<point x="598" y="524"/>
			<point x="437" y="524" type="curve"/>
			<point x="351" y="524"/>
			<point x="288" y="473"/>
			<point x="288" y="321" type="curve"/>
			<point x="288" y="79" type="line"/>
			<point x="195" y="94"/>
			<point x="136" y="154"/>
			<point x="136" y="255" type="curve" smooth="yes"/>
			<point x="136" y="324"/>
			<point x="157" y="392"/>
			<point x="237" y="436" type="curve"/>
			<point x="171" y="501" type="line"/>
			<point x="73" y="445"/>
			<point x="41" y="341"/>
			<point x="41" y="255" type="curve" smooth="yes"/>
			<point x="41" y="126"/>
			<point x="118" y="6"/>
			<point x="288" y="-12" type="curve"/>
		</contour>
		<contour>
			<point x="379" y="79" type="curve"/>
			<point x="379" y="345" type="line"/>
			<point x="379" y="395"/>
			<point x="382" y="431"/>
			<point x="441" y="431" type="curve" smooth="yes"/>
			<point x="530" y="431"/>
			<point x="534" y="329"/>
			<point x="534" y="279" type="curve" smooth="yes"/>
			<point x="534" y="153"/>
			<point x="472" y="90"/>
		</contour>
	</outline>
</glyph>
<glyph name="psi" format="2">
	<advance width="663"/>
	<unicode hex="03C8"/>
	<outline>
		<contour>
			<point x="324" y="-14" type="curve" smooth="yes"/>
			<point x="509" y="-14"/>
			<point x="596" y="74"/>
			<point x="596" y="227" type="curve" smooth="yes"/>
			<point x="596" y="349"/>
			<point x="574" y="442"/>
			<point x="539" y="504" type="curve"/>
			<point x="444" y="504" type="line"/>
			<point x="496" y="383"/>
			<point x="504" y="327"/>
			<point x="504" y="231" type="curve" smooth="yes"/>
			<point x="504" y="121"/>
			<point x="455" y="77"/>
			<point x="324" y="77" type="curve" smooth="yes"/>
			<point x="228" y="77"/>
			<point x="159" y="102"/>
			<point x="159" y="201" type="curve" smooth="yes"/>
			<point x="159" y="504" type="line"/>
			<point x="67" y="504" type="line"/>
			<point x="67" y="197" type="line" smooth="yes"/>
			<point x="67" y="56"/>
			<point x="169" y="-14"/>
		</contour>
		<contour>
			<point x="278" y="-278" type="line"/>
			<point x="369" y="-278" type="line"/>
			<point x="369" y="734" type="line"/>
			<point x="278" y="734" type="line"/>
		</contour>
	</outline>
</glyph>
<glyph name="Nje-cy" format="2">
	<advance width="1139"/>
	<unicode hex="040A"/>
	<outline>
		<contour>
			<point x="570" y="0" type="line"/>
			<point x="872" y="0" type="line" smooth="yes"/>
			<point x="987" y="0"/>
			<point x="1093" y="63"/>
			<point x="1093" y="209" type="curve" smooth="yes"/>
			<point x="1093" y="365"/>
			<point x="997" y="432"/>
			<point x="872" y="432" type="curve"/>
			<point x="664" y="432" type="line"/>
			<point x="664" y="752" type="line"/>
			<point x="570" y="752" type="line"/>
		</contour>
		<contour>
			<point x="664" y="90" type="line"/>
			<point x="664" y="342" type="line"/>
			<point x="855" y="342" type="line" smooth="yes"/>
			<point x="943" y="342"/>
			<point x="998" y="314"/>
			<point x="998" y="209" type="curve" smooth="yes"/>
			<point x="998" y="115"/>
			<point x="942" y="90"/>
			<point x="858" y="90" type="curve" smooth="yes"/>
		</contour>
		<component base="H"/>
	</outline>
</glyph>
<glyph name="Tshe-cy" format="2">
	<advance width="873"/>
	<unicode hex="040B"/>
	<outline>
		<contour>
			<point x="268" y="2" type="line"/>
			<point x="362" y="2" type="line"/>
			<point x="362" y="292" type="line" smooth="yes"/>
			<point x="362" y="303"/>
			<point x="362" y="315"/>
			<point x="364" y="326" type="curve" smooth="yes"/>
			<point x="374" y="381"/>
			<point x="466" y="418"/>
			<point x="550" y="418" type="curve" smooth="yes"/>
			<point x="637" y="418"/>
			<point x="687" y="394"/>
			<point x="707" y="344" type="curve" smooth="yes"/>
			<point x="713" y="329"/>
			<point x="714" y="310"/>
			<point x="714" y="294" type="curve" smooth="yes"/>
			<point x="714" y="2" type="line"/>
			<point x="808" y="2" type="line"/>
			<point x="808" y="298" type="line" smooth="yes"/>
			<point x="808" y="439"/>
			<point x="737" y="506"/>
			<point x="569" y="506" type="curve" smooth="yes"/>
			<point x="447" y="506"/>
			<point x="381" y="465"/>
			<point x="362" y="433" type="curve"/>
			<point x="362" y="752" type="line"/>
			<point x="268" y="752" type="line"/>
		</contour>
		<component base="T" xOffset="-10"/>
	</outline>
</glyph>
<glyph name="Ge-cy" format="2">
	<advance width="583"/>
	<unicode hex="0413"/>
	<anchor x="563" y="0" name="bottomright"/>
	<anchor x="292" y="752" name="top"/>
	<outline>
		<contour>
			<point x="78" y="0" type="line"/>
			<point x="172" y="0" type="line"/>
			<point x="172" y="662" type="line"/>
			<point x="543" y="662" type="line"/>
			<point x="543" y="752" type="line"/>
			<point x="78" y="752" type="line"/>
		</contour>
	</outline>
</glyph>
<glyph name="De-cy" format="2">
	<advance width="804"/>
	<unicode hex="0414"/>
	<outline>
		<contour>
			<point x="575" y="0" type="line"/>
			<point x="669" y="0" type="line"/>
			<point x="669" y="752" type="line"/>
			<point x="269" y="752" type="line"/>
			<point x="269" y="662" type="line"/>
			<point x="575" y="662" type="line"/>
		</contour>
		<contour>
			<point x="40" y="0" type="line"/>
			<point x="756" y="0" type="line"/>
			<point x="756" y="90" type="line"/>
			<point x="40" y="90" type="line"/>
		</contour>
		<contour>
			<point x="51" y="90" type="curve"/>
			<point x="192" y="90" type="line"/>
			<point x="218" y="100"/>
			<point x="262" y="159"/>
			<point x="277" y="246" type="curve" smooth="yes"/>
			<point x="302" y="393"/>
			<point x="315" y="587"/>
			<point x="315" y="752" type="curve"/>
			<point x="223" y="752" type="line"/>
			<point x="223" y="585"/>
			<point x="211" y="398"/>
			<point x="184" y="251" type="curve" smooth="yes"/>
			<point x="168" y="166"/>
			<point x="100" y="90"/>
		</contour>
		<contour>
			<point x="671" y="-130" type="line"/>
			<point x="756" y="-130" type="line"/>
			<point x="756" y="0" type="line"/>
			<point x="671" y="0" type="line"/>
		</contour>
		<contour>
			<point x="40" y="-130" type="line"/>
			<point x="125" y="-130" type="line"/>
			<point x="125" y="0" type="line"/>
			<point x="40" y="0" type="line"/>
		</contour>
	</outline>
</glyph>
<glyph name="Zhe-cy" format="2">
	<advance width="1124"/>
	<unicode hex="0416"/>
	<anchor x="1109" y="0" name="bottomright"/>
	<anchor x="562" y="752" name="top"/>
	<outline>
		<contour>
			<point x="448" y="353" type="line"/>
			<point x="555" y="366" type="line"/>
			<point x="189" y="752" type="line"/>
			<point x="67" y="752" type="line"/>
		</contour>
		<contour>
			<point x="43" y="0" type="line"/>
			<point x="167" y="0" type="line"/>
			<point x="502" y="361" type="line"/>
			<point x="437" y="418" type="line"/>
		</contour>
		<contour>
			<point x="515" y="0" type="line"/>
			<point x="609" y="0" type="line"/>
			<point x="609" y="752" type="line"/>
			<point x="515" y="752" type="line"/>
		</contour>
		<contour>
			<point x="415" y="341" type="line"/>
			<point x="710" y="341" type="line"/>
			<point x="710" y="431" type="line"/>
			<point x="415" y="431" type="line"/>
		</contour>
		<contour>
			<point x="957" y="0" type="line"/>
			<point x="1081" y="0" type="line"/>
			<point x="687" y="418" type="line"/>
			<point x="622" y="361" type="line"/>
		</contour>
		<contour>
			<point x="677" y="354" type="line"/>
			<point x="1057" y="752" type="line"/>
			<point x="935" y="752" type="line"/>
			<point x="569" y="366" type="line"/>
		</contour>
	</outline>
</glyph>
<glyph name="Ze-cy" format="2">
	<advance width="608"/>
	<unicode hex="0417"/>
	<anchor x="304" y="0" name="bottom"/>
	<anchor x="304" y="752" name="top"/>
	<outline>
		<contour>
			<point x="300" y="-14" type="curve" smooth="yes"/>
			<point x="488" y="-14"/>
			<point x="562" y="85"/>
			<point x="562" y="207" type="curve" smooth="yes"/>
			<point x="562" y="295"/>
			<point x="526" y="351"/>
			<point x="449" y="396" type="curve"/>
			<point x="506" y="432"/>
			<point x="537" y="488"/>
			<point x="537" y="562" type="curve" smooth="yes"/>
			<point x="537" y="690"/>
			<point x="454" y="772"/>
			<point x="300" y="772" type="curve" smooth="yes"/>
			<point x="148" y="772"/>
			<point x="50" y="679"/>
			<point x="50" y="566" type="curve"/>
			<point x="139" y="566" type="line"/>
			<point x="139" y="651"/>
			<point x="218" y="691"/>
			<point x="300" y="691" type="curve" smooth="yes"/>
			<point x="385" y="691"/>
			<point x="448" y="651"/>
			<point x="448" y="562" type="curve" smooth="yes"/>
			<point x="448" y="473"/>
			<point x="385" y="428"/>
			<point x="295" y="428" type="curve" smooth="yes"/>
			<point x="283" y="428"/>
			<point x="217" y="428"/>
			<point x="204" y="428" type="curve"/>
			<point x="204" y="342" type="line"/>
			<point x="217" y="342"/>
			<point x="283" y="342"/>
			<point x="295" y="342" type="curve" smooth="yes"/>
			<point x="395" y="342"/>
			<point x="467" y="308"/>
			<point x="467" y="207" type="curve" smooth="yes"/>
			<point x="467" y="106"/>
			<point x="393" y="76"/>
			<point x="300" y="76" type="curve" smooth="yes"/>
			<point x="211" y="76"/>
			<point x="138" y="126"/>
			<point x="133" y="199" type="curve"/>
			<point x="38" y="199" type="line"/>
			<point x="42" y="87"/>
			<point x="116" y="-14"/>
		</contour>
	</outline>
</glyph>
<glyph name="Pe-cy" format="2">
	<advance width="724"/>
	<unicode hex="041F"/>
	<anchor x="704" y="0" name="bottomright"/>
	<outline>
		<contour>
			<point x="552" y="0" type="line"/>
			<point x="646" y="0" type="line"/>
			<point x="646" y="752" type="line"/>
			<point x="552" y="752" type="line"/>
		</contour>
		<contour>
			<point x="78" y="0" type="line"/>
			<point x="172" y="0" type="line"/>
			<point x="172" y="752" type="line"/>
			<point x="78" y="752" type="line"/>
		</contour>
		<contour>
			<point x="78" y="662" type="line"/>
			<point x="646" y="662" type="line"/>
			<point x="646" y="752" type="line"/>
			<point x="78" y="752" type="line"/>
		</contour>
	</outline>
</glyph>
<glyph name="Tse-cy" format="2">
	<advance width="782"/>
	<unicode hex="0426"/>
	<outline>
		<contour>
			<point x="552" y="752" type="line"/>
			<point x="552" y="0" type="line"/>
			<point x="646" y="0" type="line"/>
			<point x="646" y="752" type="line"/>
		</contour>
		<contour>
			<point x="78" y="752" type="line"/>
			<point x="78" y="0" type="line"/>
			<point x="172" y="0" type="line"/>
			<point x="172" y="752" type="line"/>
		</contour>
		<contour>
			<point x="78" y="90" type="line"/>
			<point x="78" y="0" type="line"/>
			<point x="734" y="0" type="line"/>
			<point x="734" y="90" type="line"/>
		</contour>
		<contour>
			<point x="649" y="-130" type="line"/>
			<point x="734" y="-130" type="line"/>
			<point x="734" y="0" type="line"/>
			<point x="649" y="0" type="line"/>
		</contour>
	</outline>
</glyph>
<glyph name="Shcha-cy" format="2">
	<advance width="1072"/>
	<unicode hex="0429"/>
	<outline>
		<contour>
			<point x="842" y="752" type="line"/>
			<point x="842" y="0" type="line"/>
			<point x="936" y="0" type="line"/>
			<point x="936" y="752" type="line"/>
		</contour>
		<contour>
			<point x="78" y="752" type="line"/>
			<point x="78" y="0" type="line"/>
			<point x="172" y="0" type="line"/>
			<point x="172" y="752" type="line"/>
		</contour>
		<contour>
			<point x="78" y="90" type="line"/>
			<point x="78" y="0" type="line"/>
			<point x="939" y="0" type="line"/>
			<point x="939" y="90" type="line"/>
		</contour>
		<contour>
			<point x="460" y="752" type="line"/>
			<point x="460" y="0" type="line"/>
			<point x="554" y="0" type="line"/>
			<point x="554" y="752" type="line"/>
		</contour>
		<contour>
			<point x="939" y="-130" type="line"/>
			<point x="1024" y="-130" type="line"/>
			<point x="1024" y="90" type="line"/>
			<point x="939" y="90" type="line"/>
		</contour>
	</outline>
</glyph>
<glyph name="Hardsign-cy" format="2">
	<advance width="743"/>
	<unicode hex="042A"/>
	<anchor x="372" y="752" name="top"/>
	<outline>
		<contour>
			<point x="174" y="0" type="line"/>
			<point x="476" y="0" type="line" smooth="yes"/>
			<point x="591" y="0"/>
			<point x="697" y="63"/>
			<point x="697" y="209" type="curve" smooth="yes"/>
			<point x="697" y="365"/>
			<point x="601" y="432"/>
			<point x="476" y="432" type="curve" smooth="yes"/>
			<point x="268" y="432" type="line"/>
			<point x="268" y="752" type="line"/>
			<point x="174" y="752" type="line"/>
		</contour>
		<contour>
			<point x="268" y="90" type="line"/>
			<point x="268" y="342" type="line"/>
			<point x="459" y="342" type="line" smooth="yes"/>
			<point x="547" y="342"/>
			<point x="602" y="314"/>
			<point x="602" y="209" type="curve" smooth="yes"/>
			<point x="602" y="115"/>
			<point x="546" y="90"/>
			<point x="462" y="90" type="curve" smooth="yes"/>
		</contour>
		<contour>
			<point x="34" y="667" type="line"/>
			<point x="174" y="667" type="line"/>
			<point x="174" y="752" type="line"/>
			<point x="34" y="752" type="line"/>
		</contour>
	</outline>
</glyph>
<glyph name="Yeru-cy" format="2">
	<advance width="886"/>
	<unicode hex="042B"/>
	<anchor x="443" y="752" name="top"/>
	<outline>
		<contour>
			<point x="78" y="0" type="line"/>
			<point x="380" y="0" type="line" smooth="yes"/>
			<point x="495" y="0"/>
			<point x="601" y="63"/>
			<point x="601" y="209" type="curve" smooth="yes"/>
			<point x="601" y="365"/>
			<point x="505" y="432"/>
			<point x="380" y="432" type="curve"/>
			<point x="172" y="432" type="line"/>
			<point x="172" y="752" type="line"/>
			<point x="78" y="752" type="line"/>
		</contour>
		<contour>
			<point x="172" y="90" type="line"/>
			<point x="172" y="342" type="line"/>
			<point x="363" y="342" type="line" smooth="yes"/>
			<point x="451" y="342"/>
			<point x="506" y="314"/>
			<point x="506" y="209" type="curve" smooth="yes"/>
			<point x="506" y="115"/>
			<point x="450" y="90"/>
			<point x="366" y="90" type="curve" smooth="yes"/>
		</contour>
		<component base="I" xOffset="630"/>
	</outline>
</glyph>
<glyph name="be-cy" format="2">
	<advance width="627"/>
	<unicode hex="0431"/>
	<outline>
		<contour>
			<point x="41" y="335" type="curve" smooth="yes"/>
			<point x="41" y="125"/>
			<point x="112" y="-14"/>
			<point x="313" y="-14" type="curve" smooth="yes"/>
			<point x="515" y="-14"/>
			<point x="586" y="135"/>
			<point x="586" y="255" type="curve" smooth="yes"/>
			<point x="586" y="375"/>
			<point x="515" y="524"/>
			<point x="313" y="524" type="curve" smooth="yes"/>
			<point x="237" y="524"/>
			<point x="169" y="486"/>
			<point x="136" y="453" type="curve"/>
			<point x="146" y="577"/>
			<point x="177" y="640"/>
			<point x="300" y="664" type="curve" smooth="yes"/>
			<point x="319" y="668"/>
			<point x="363" y="672"/>
			<point x="389" y="674" type="curve" smooth="yes"/>
			<point x="444" y="678"/>
			<point x="505" y="694"/>
			<point x="537" y="705" type="curve"/>
			<point x="537" y="788" type="line"/>
			<point x="507" y="778"/>
			<point x="446" y="763"/>
			<point x="387" y="758" type="curve" smooth="yes"/>
			<point x="364" y="756"/>
			<point x="309" y="750"/>
			<point x="291" y="748" type="curve" smooth="yes"/>
			<point x="92" y="721"/>
			<point x="41" y="602"/>
		</contour>
		<contour>
			<point x="136" y="255" type="curve" smooth="yes"/>
			<point x="136" y="368"/>
			<point x="202" y="434"/>
			<point x="313" y="434" type="curve" smooth="yes"/>
			<point x="424" y="434"/>
			<point x="491" y="368"/>
			<point x="491" y="255" type="curve" smooth="yes"/>
			<point x="491" y="142"/>
			<point x="422" y="76"/>
			<point x="313" y="76" type="curve" smooth="yes"/>
			<point x="204" y="76"/>
			<point x="136" y="142"/>
		</contour>
	</outline>
</glyph>
<glyph name="ge-cy" format="2">
	<advance width="513"/>
	<unicode hex="0433"/>
	<anchor x="493" y="0" name="bottomright"/>
	<anchor x="257" y="504" name="top"/>
	<outline>
		<contour>
			<point x="78" y="0" type="line"/>
			<point x="169" y="0" type="line"/>
			<point x="169" y="424" type="line"/>
			<point x="473" y="424" type="line"/>
			<point x="473" y="504" type="line"/>
			<point x="78" y="504" type="line"/>
		</contour>
	</outline>
</glyph>
<glyph name="de-cy" format="2">
	<advance width="657"/>
	<unicode hex="0434"/>
	<outline>
		<contour>
			<point x="448" y="0" type="line"/>
			<point x="539" y="0" type="line"/>
			<point x="539" y="504" type="line"/>
			<point x="222" y="504" type="line"/>
			<point x="222" y="424" type="line"/>
			<point x="448" y="424" type="line"/>
		</contour>
		<contour>
			<point x="40" y="0" type="line"/>
			<point x="605" y="0" type="line"/>
			<point x="605" y="80" type="line"/>
			<point x="40" y="80" type="line"/>
		</contour>
		<contour>
			<point x="51" y="80" type="curve"/>
			<point x="170" y="80" type="line"/>
			<point x="188" y="87"/>
			<point x="216" y="127"/>
			<point x="228" y="185" type="curve" smooth="yes"/>
			<point x="248" y="283"/>
			<point x="253" y="393"/>
			<point x="253" y="504" type="curve"/>
			<point x="166" y="504" type="line"/>
			<point x="166" y="392"/>
			<point x="159" y="287"/>
			<point x="140" y="189" type="curve" smooth="yes"/>
			<point x="129" y="131"/>
			<point x="84" y="80"/>
		</contour>
		<contour>
			<point x="522" y="-130" type="line"/>
			<point x="605" y="-130" type="line"/>
			<point x="605" y="0" type="line"/>
			<point x="522" y="0" type="line"/>
		</contour>
		<contour>
			<point x="40" y="-130" type="line"/>
			<point x="123" y="-130" type="line"/>
			<point x="123" y="0" type="line"/>
			<point x="40" y="0" type="line"/>
		</contour>
	</outline>
</glyph>
<glyph name="zhe-cy" format="2">
	<advance width="903"/>
	<unicode hex="0436"/>
	<anchor x="883" y="0" name="bottomright"/>
	<anchor x="452" y="504" name="top"/>
	<outline>
		<contour>
			<point x="327" y="236" type="line"/>
			<point x="430" y="245" type="line"/>
			<point x="185" y="504" type="line"/>
			<point x="64" y="504" type="line"/>
		</contour>
		<contour>
			<point x="48" y="0" type="line"/>
			<point x="171" y="0" type="line"/>
			<point x="395" y="242" type="line"/>
			<point x="320" y="280" type="line"/>
		</contour>
		<contour>
			<point x="407" y="0" type="line"/>
			<point x="496" y="0" type="line"/>
			<point x="496" y="504" type="line"/>
			<point x="407" y="504" type="line"/>
		</contour>
		<contour>
			<point x="343" y="228" type="line"/>
			<point x="561" y="228" type="line"/>
			<point x="561" y="289" type="line"/>
			<point x="343" y="289" type="line"/>
		</contour>
		<contour>
			<point x="732" y="0" type="line"/>
			<point x="855" y="0" type="line"/>
			<point x="583" y="280" type="line"/>
			<point x="508" y="242" type="line"/>
		</contour>
		<contour>
			<point x="576" y="237" type="line"/>
			<point x="839" y="504" type="line"/>
			<point x="718" y="504" type="line"/>
			<point x="473" y="245" type="line"/>
		</contour>
	</outline>
</glyph>
<glyph name="ze-cy" format="2">
	<advance width="498"/>
	<unicode hex="0437"/>
	<anchor x="249" y="0" name="bottom"/>
	<anchor x="249" y="504" name="top"/>
	<outline>
		<contour>
			<point x="243" y="-14" type="curve" smooth="yes"/>
			<point x="400" y="-14"/>
			<point x="460" y="53"/>
			<point x="460" y="136" type="curve" smooth="yes"/>
			<point x="460" y="196"/>
			<point x="436" y="237"/>
			<point x="384" y="267" type="curve"/>
			<point x="422" y="292"/>
			<point x="444" y="327"/>
			<point x="444" y="377" type="curve" smooth="yes"/>
			<point x="444" y="464"/>
			<point x="377" y="518"/>
			<point x="243" y="518" type="curve" smooth="yes"/>
			<point x="120" y="518"/>
			<point x="33" y="466"/>
			<point x="33" y="379" type="curve"/>
			<point x="119" y="379" type="line"/>
			<point x="119" y="420"/>
			<point x="167" y="444"/>
			<point x="243" y="444" type="curve" smooth="yes"/>
			<point x="300" y="444"/>
			<point x="358" y="427"/>
			<point x="358" y="369" type="curve" smooth="yes"/>
			<point x="358" y="318"/>
			<point x="290" y="300"/>
			<point x="239" y="300" type="curve" smooth="yes"/>
			<point x="231" y="300"/>
			<point x="166" y="300"/>
			<point x="158" y="300" type="curve"/>
			<point x="158" y="222" type="line"/>
			<point x="166" y="222"/>
			<point x="231" y="222"/>
			<point x="239" y="222" type="curve" smooth="yes"/>
			<point x="317" y="222"/>
			<point x="371" y="200"/>
			<point x="371" y="142" type="curve" smooth="yes"/>
			<point x="371" y="89"/>
			<point x="316" y="67"/>
			<point x="243" y="67" type="curve" smooth="yes"/>
			<point x="162" y="67"/>
			<point x="118" y="91"/>
			<point x="114" y="130" type="curve"/>
			<point x="25" y="130" type="line"/>
			<point x="28" y="55"/>
			<point x="98" y="-14"/>
		</contour>
	</outline>
</glyph>
<glyph name="ii-cy" format="2">
	<advance width="666"/>
	<unicode hex="0438"/>
	<anchor x="646" y="0" name="bottomright"/>
	<anchor x="333" y="504" name="top"/>
	<outline>
		<contour>
			<point x="497" y="0" type="line"/>
			<point x="588" y="0" type="line"/>
			<point x="588" y="504" type="line"/>
			<point x="497" y="504" type="line"/>
		</contour>
		<contour>
			<point x="78" y="0" type="line"/>
			<point x="169" y="0" type="line"/>
			<point x="169" y="504" type="line"/>
			<point x="78" y="504" type="line"/>
		</contour>
		<contour>
			<point x="169" y="129" type="line"/>
			<point x="169" y="0" type="line"/>
			<point x="497" y="375" type="line"/>
			<point x="497" y="504" type="line"/>
		</contour>
	</outline>
</glyph>
<glyph name="ka-cy" format="2">
	<advance width="583"/>
	<unicode hex="043A"/>
	<anchor x="550" y="0" name="bottomright"/>
	<anchor x="285" y="504" name="top"/>
	<outline>
		<contour>
			<point x="78" y="0" type="line"/>
			<point x="167" y="0" type="line"/>
			<point x="167" y="504" type="line"/>
			<point x="78" y="504" type="line"/>
		</contour>
		<contour>
			<point x="84" y="222" type="line"/>
			<point x="245" y="222" type="line"/>
			<point x="245" y="298" type="line"/>
			<point x="84" y="298" type="line"/>
		</contour>
		<contour>
			<point x="417" y="0" type="line"/>
			<point x="535" y="0" type="line"/>
			<point x="267" y="280" type="line"/>
			<point x="194" y="242" type="line"/>
		</contour>
		<contour>
			<point x="260" y="237" type="line"/>
			<point x="519" y="504" type="line"/>
			<point x="402" y="504" type="line"/>
			<point x="155" y="245" type="line"/>
		</contour>
	</outline>
</glyph>
<glyph name="che-cy" format="2">
	<advance width="558"/>
	<unicode hex="0447"/>
	<anchor x="538" y="0" name="bottomright"/>
	<anchor x="287" y="504" name="top"/>
	<outline>
		<contour>
			<point x="480" y="504" type="line"/>
			<point x="389" y="504" type="line"/>
			<point x="389" y="314" type="line" smooth="yes"/>
			<point x="389" y="307"/>
			<point x="388" y="299"/>
			<point x="387" y="291" type="curve" smooth="yes"/>
			<point x="382" y="253"/>
			<point x="309" y="229"/>
			<point x="252" y="229" type="curve" smooth="yes"/>
			<point x="194" y="229"/>
			<point x="156" y="242"/>
			<point x="146" y="276" type="curve" smooth="yes"/>
			<point x="143" y="286"/>
			<point x="142" y="302"/>
			<point x="142" y="313" type="curve" smooth="yes"/>
			<point x="142" y="504" type="line"/>
			<point x="51" y="504" type="line"/>
			<point x="51" y="310" type="line" smooth="yes"/>
			<point x="51" y="206"/>
			<point x="129" y="139"/>
			<point x="240" y="139" type="curve" smooth="yes"/>
			<point x="321" y="139"/>
			<point x="376" y="182"/>
			<point x="389" y="203" type="curve"/>
			<point x="389" y="0" type="line"/>
			<point x="480" y="0" type="line"/>
		</contour>
	</outline>
</glyph>
<glyph name="yeru-cy" format="2">
	<advance width="731"/>
	<unicode hex="044B"/>
	<anchor x="366" y="504" name="top"/>
	<outline>
		<contour>
			<point x="78" y="0" type="line"/>
			<point x="316" y="0" type="line" smooth="yes"/>
			<point x="432" y="0"/>
			<point x="490" y="61"/>
			<point x="490" y="149" type="curve" smooth="yes"/>
			<point x="490" y="222"/>
			<point x="449" y="300"/>
			<point x="302" y="300" type="curve" smooth="yes"/>
			<point x="169" y="300" type="line"/>
			<point x="169" y="504" type="line"/>
			<point x="78" y="504" type="line"/>
		</contour>
		<contour>
			<point x="169" y="77" type="line"/>
			<point x="169" y="220" type="line"/>
			<point x="304" y="220" type="line" smooth="yes"/>
			<point x="364" y="220"/>
			<point x="397" y="209"/>
			<point x="397" y="149" type="curve" smooth="yes"/>
			<point x="397" y="94"/>
			<point x="363" y="77"/>
			<point x="306" y="77" type="curve" smooth="yes"/>
		</contour>
		<contour>
			<point x="562" y="0" type="line"/>
			<point x="653" y="0" type="line"/>
			<point x="653" y="504" type="line"/>
			<point x="562" y="504" type="line"/>
		</contour>
	</outline>
</glyph>
<glyph name="iu-cy" format="2">
	<advance width="814"/>
	<unicode hex="044E"/>
	<anchor x="407" y="504" name="top"/>
	<outline>
		<contour>
			<point x="78" y="0" type="line"/>
			<point x="169" y="0" type="line"/>
			<point x="169" y="504" type="line"/>
			<point x="78" y="504" type="line"/>
		</contour>
		<contour>
			<point x="90" y="224" type="line"/>
			<point x="317" y="224" type="line"/>
			<point x="317" y="309" type="line"/>
			<point x="90" y="309" type="line"/>
		</contour>
		<component base="o" xOffset="185"/>
	</outline>
</glyph>
<glyph name="dzhe-cy" format="2">
	<advance width="632"/>
	<unicode hex="045F"/>
	<outline>
		<contour>
			<point x="78" y="0" type="line"/>
			<point x="554" y="0" type="line"/>
			<point x="554" y="504" type="line"/>
			<point x="463" y="504" type="line"/>
			<point x="463" y="80" type="line"/>
			<point x="169" y="80" type="line"/>
			<point x="169" y="504" type="line"/>
			<point x="78" y="504" type="line"/>
		</contour>
		<contour>
			<point x="274" y="-130" type="line"/>
			<point x="357" y="-130" type="line"/>
			<point x="357" y="0" type="line"/>
			<point x="274" y="0" type="line"/>
		</contour>
	</outline>
</glyph>
<glyph name="Yat-cy" format="2">
	<advance width="804"/>
	<unicode hex="0462"/>
	<outline>
		<contour>
			<point x="7" y="542" type="line"/>
			<point x="558" y="542" type="line"/>
			<point x="558" y="632" type="line"/>
			<point x="7" y="632" type="line"/>
		</contour>
		<component base="Softsign-cy" xOffset="157"/>
	</outline>
</glyph>
<glyph name="yusbig-cy" format="2">
	<advance width="903"/>
	<unicode hex="046B"/>
	<outline>
		<contour>
			<point x="48" y="0" type="line"/>
			<point x="170" y="0" type="line"/>
			<point x="395" y="242" type="line"/>
			<point x="332" y="289" type="line"/>
		</contour>
		<contour>
			<point x="407" y="0" type="line"/>
			<point x="496" y="0" type="line"/>
			<point x="496" y="289" type="line"/>
			<point x="407" y="289" type="line"/>
		</contour>
		<contour>
			<point x="332" y="228" type="line"/>
			<point x="574" y="228" type="line"/>
			<point x="574" y="289" type="line"/>
			<point x="332" y="289" type="line"/>
		</contour>
		<contour>
			<point x="733" y="0" type="line"/>
			<point x="855" y="0" type="line"/>
			<point x="574" y="289" type="line"/>
			<point x="508" y="242" type="line"/>
		</contour>
		<contour>
			<point x="213" y="437" type="line"/>
			<point x="691" y="437" type="line"/>
			<point x="691" y="504" type="line"/>
			<point x="213" y="504" type="line"/>
		</contour>
		<contour>
			<point x="395" y="245" type="line"/>
			<point x="514" y="245" type="line"/>
			<point x="691" y="437" type="line"/>
			<point x="591" y="437" type="line"/>
			<point x="450" y="289" type="line"/>
			<point x="313" y="437" type="line"/>
			<point x="213" y="437" type="line"/>
		</contour>
	</outline>
</glyph>
<glyph name="Gheupturn-cy" format="2">
	<advance width="583"/>
	<unicode hex="0490"/>
	<outline>
		<contour>
			<point x="78" y="0" type="line"/>
			<point x="172" y="0" type="line"/>
			<point x="172" y="662" type="line"/>
			<point x="543" y="662" type="line"/>
			<point x="543" y="752" type="line"/>
			<point x="78" y="752" type="line"/>
		</contour>
		<contour>
			<point x="458" y="752" type="line"/>
			<point x="543" y="752" type="line"/>
			<point x="543" y="882" type="line"/>
			<point x="458" y="882" type="line"/>
		</contour>
	</outline>
</glyph>
<glyph name="kiyeokCho-ko" format="2">
	<advance width="1000"/>
	<unicode hex="1100"/>
	<outline>
		<contour>
			<point x="96" y="712" type="line"/>
			<point x="96" y="622" type="line"/>
			<point x="470" y="622" type="line"/>
			<point x="470" y="712" type="line"/>
		</contour>
		<contour>
			<point x="376" y="712" type="line"/>
			<point x="376" y="447" type="line"/>
			<point x="470" y="447" type="line"/>
			<point x="470" y="712" type="line"/>
		</contour>
	</outline>
</glyph>
<glyph name="mieumCho-ko" format="2">
	<advance width="1000"/>
	<unicode hex="1106"/>
	<outline>
		<contour>
			<point x="497" y="340" type="line"/>
			<point x="591" y="340" type="line"/>
			<point x="591" y="752" type="line"/>
			<point x="497" y="752" type="line"/>
		</contour>
		<contour>
			<point x="97" y="340" type="line"/>
			<point x="591" y="340" type="line"/>
			<point x="591" y="430" type="line"/>
			<point x="97" y="430" type="line"/>
		</contour>
		<contour>
			<point x="97" y="340" type="line"/>
			<point x="191" y="340" type="line"/>
			<point x="191" y="752" type="line"/>
			<point x="97" y="752" type="line"/>
		</contour>
		<contour>
			<point x="97" y="662" type="line"/>
			<point x="591" y="662" type="line"/>
			<point x="591" y="752" type="line"/>
			<point x="97" y="752" type="line"/>
		</contour>
	</outline>
</glyph>
<glyph name="aJung-ko" format="2">
	<advance width="1000"/>
	<unicode hex="1161"/>
	<outline>
		<contour>
			<point x="630" y="636" type="line"/>
			<point x="630" y="546" type="line"/>
			<point x="884" y="546" type="line"/>
			<point x="884" y="636" type="line"/>
		</contour>
		<contour>
			<point x="630" y="870" type="line"/>
			<point x="630" y="305" type="line"/>
			<point x="724" y="305" type="line"/>
			<point x="724" y="870" type="line"/>
		</contour>
	</outline>
</glyph>
<glyph name="iJung-ko" format="2">
	<advance width="1000"/>
	<unicode hex="1175"/>
	<outline>
		<contour>
			<point x="690" y="870" type="line"/>
			<point x="690" y="265" type="line"/>
			<point x="784" y="265" type="line"/>
			<point x="784" y="870" type="line"/>
		</contour>
	</outline>
</glyph>
<glyph name="mieumJong-ko" format="2">
	<advance width="1000"/>
	<unicode hex="11B7"/>
	<outline>
		<contour>
			<point x="692" y="-278" type="line"/>
			<point x="786" y="-278" type="line"/>
			<point x="786" y="134" type="line"/>
			<point x="692" y="134" type="line"/>
		</contour>
		<contour>
			<point x="232" y="-278" type="line"/>
			<point x="786" y="-278" type="line"/>
			<point x="786" y="-188" type="line"/>
			<point x="232" y="-188" type="line"/>
		</contour>
		<contour>
			<point x="232" y="-278" type="line"/>
			<point x="326" y="-278" type="line"/>
			<point x="326" y="134" type="line"/>
			<point x="232" y="134" type="line"/>
		</contour>
		<contour>
			<point x="232" y="44" type="line"/>
			<point x="786" y="44" type="line"/>
			<point x="786" y="134" type="line"/>
			<point x="232" y="134" type="line"/>
		</contour>
	</outline>
</glyph>
<glyph name="Germandbls" format="2">
	<advance width="712"/>
	<unicode hex="1E9E"/>
	<outline>
		<contour>
			<point x="65" y="0" type="line"/>
			<point x="65" y="546" type="line" smooth="yes"/>
			<point x="65" y="684"/>
			<point x="178" y="772"/>
			<point x="351" y="772" type="curve" smooth="yes"/>
			<point x="508" y="772"/>
			<point x="592" y="699"/>
			<point x="637" y="631" type="curve" smooth="yes"/>
			<point x="655" y="604"/>
			<point x="650" y="580"/>
			<point x="637" y="563" type="curve" smooth="yes"/>
			<point x="520" y="410" type="line"/>
			<point x="602" y="381"/>
			<point x="666" y="323"/>
			<point x="666" y="223" type="curve" smooth="yes"/>
			<point x="666" y="49"/>
			<point x="499" y="-77"/>
			<point x="225" y="20" type="curve"/>
			<point x="284" y="106" type="line"/>
			<point x="505" y="26"/>
			<point x="568" y="149"/>
			<point x="568" y="217" type="curve" smooth="yes"/>
			<point x="568" y="282"/>
			<point x="528" y="302"/>
			<point x="422" y="330" type="curve" smooth="yes"/>
			<point x="372" y="343"/>
			<point x="385" y="388"/>
			<point x="422" y="432" type="curve"/>
			<point x="548" y="594" type="line"/>
			<point x="516" y="637"/>
			<point x="462" y="680"/>
			<point x="362" y="680" type="curve" smooth="yes"/>
			<point x="263" y="680"/>
			<point x="162" y="650"/>
			<point x="162" y="546" type="curve" smooth="yes"/>
			<point x="162" y="0" type="line"/>
		</contour>
	</outline>
</glyph>
<glyph name="endash" format="2">
	<advance width="544"/>
	<unicode hex="2013"/>
	<outline>
		<contour>
			<point x="0" y="260" type="line"/>
			<point x="544" y="260" type="line"/>
			<point x="544" y="345" type="line"/>
			<point x="0" y="345" type="line"/>
		</contour>
	</outline>
</glyph>
<glyph name="quoteleft" format="2">
	<advance width="232"/>
	<unicode hex="2018"/>
	<outline>
		<contour>
			<point x="181" y="772" type="line"/>
			<point x="113" y="772" type="line"/>
			<point x="35" y="462" type="line"/>
			<point x="141" y="462" type="line"/>
		</contour>
	</outline>
</glyph>
<glyph name="quotedblleft" format="2">
	<advance width="570"/>
	<unicode hex="201C"/>
	<outline>
		<contour>
			<point x="482" y="782" type="curve"/>
			<point x="475" y="782" type="line" smooth="yes"/>
			<point x="453" y="782"/>
			<point x="336" y="754"/>
			<point x="345" y="578" type="curve" smooth="yes"/>
			<point x="347" y="539"/>
			<point x="371" y="513"/>
			<point x="408" y="513" type="curve" smooth="yes"/>
			<point x="446" y="513"/>
			<point x="475" y="538"/>
			<point x="475" y="577" type="curve" smooth="yes"/>
			<point x="475" y="655"/>
			<point x="407" y="648"/>
		</contour>
		<contour>
			<point x="281" y="782" type="curve"/>
			<point x="274" y="782" type="line" smooth="yes"/>
			<point x="251" y="782"/>
			<point x="127" y="733"/>
			<point x="135" y="577" type="curve" smooth="yes"/>
			<point x="137" y="538"/>
			<point x="161" y="513"/>
			<point x="201" y="513" type="curve" smooth="yes"/>
			<point x="238" y="513"/>
			<point x="265" y="538"/>
			<point x="265" y="577" type="curve" smooth="yes"/>
			<point x="265" y="635"/>
			<point x="192" y="636"/>
		</contour>
	</outline>
</glyph>
<glyph name="dagger" format="2">
	<advance width="538"/>
	<unicode hex="2020"/>
	<outline>
		<contour>
			<point x="220" y="-198" type="curve"/>
			<point x="318" y="-198" type="line"/>
			<point x="307" y="119"/>
			<point x="307" y="435"/>
			<point x="318" y="752" type="curve"/>
			<point x="220" y="752" type="line"/>
			<point x="231" y="435"/>
			<point x="231" y="119"/>
		</contour>
		<contour>
			<point x="45" y="368" type="line"/>
			<point x="194" y="370"/>
			<point x="344" y="370"/>
			<point x="493" y="368" type="curve"/>
			<point x="493" y="458" type="line"/>
			<point x="344" y="456"/>
			<point x="194" y="456"/>
			<point x="45" y="458" type="curve"/>
		</contour>
	</outline>
</glyph>
<glyph name="guilsinglleft" format="2">
	<advance width="324"/>
	<unicode hex="2039"/>
	<outline>
		<contour>
			<point x="30" y="275" type="curve"/>
			<point x="91" y="214"/>
			<point x="141" y="152"/>
			<point x="182" y="91" type="curve"/>
			<point x="294" y="91" type="line"/>
			<point x="250" y="152"/>
			<point x="205" y="214"/>
			<point x="147" y="275" type="curve"/>
			<point x="205" y="336"/>
			<point x="250" y="398"/>
			<point x="294" y="459" type="curve"/>
			<point x="182" y="459" type="line"/>
			<point x="141" y="398"/>
			<point x="91" y="336"/>
		</contour>
	</outline>
</glyph>
<glyph name="guilsinglright" format="2">
	<advance width="324"/>
	<unicode hex="203A"/>
	<outline>
		<contour>
			<point x="294" y="275" type="curve"/>
			<point x="233" y="336"/>
			<point x="183" y="398"/>
			<point x="142" y="459" type="curve"/>
			<point x="30" y="459" type="line"/>
			<point x="74" y="398"/>
			<point x="119" y="336"/>
			<point x="177" y="275" type="curve"/>
			<point x="119" y="214"/>
			<point x="74" y="152"/>
			<point x="30" y="91" type="curve"/>
			<point x="142" y="91" type="line"/>
			<point x="183" y="152"/>
			<point x="233" y="214"/>
		</contour>
	</outline>
</glyph>
<glyph name="asterism" format="2">
	<advance width="804"/>
	<unicode hex="2042"/>
	<outline>
		<contour>
			<point x="370" y="398" type="curve"/>
			<point x="434" y="398" type="line"/>
			<point x="433" y="441"/>
			<point x="432" y="484"/>
			<point x="431" y="527" type="curve"/>
			<point x="467" y="506"/>
			<point x="503" y="484"/>
			<point x="539" y="462" type="curve"/>
			<point x="571" y="517" type="line"/>
			<point x="534" y="537"/>
			<point x="497" y="557"/>
			<point x="461" y="578" type="curve"/>
			<point x="497" y="599"/>
			<point x="534" y="619"/>
			<point x="571" y="639" type="curve"/>
			<point x="539" y="694" type="line"/>
			<point x="503" y="672"/>
			<point x="467" y="650"/>
			<point x="431" y="629" type="curve"/>
			<point x="432" y="670"/>
			<point x="433" y="711"/>
			<point x="434" y="752" type="curve"/>
			<point x="370" y="752" type="line"/>
			<point x="371" y="711"/>
			<point x="372" y="670"/>
			<point x="373" y="629" type="curve"/>
			<point x="337" y="650"/>
			<point x="301" y="672"/>
			<point x="265" y="694" type="curve"/>
			<point x="233" y="639" type="line"/>
			<point x="270" y="619"/>
			<point x="307" y="599"/>
			<point x="343" y="578" type="curve"/>
			<point x="307" y="557"/>
			<point x="270" y="537"/>
			<point x="233" y="517" type="curve"/>
			<point x="265" y="462" type="line"/>
			<point x="301" y="484"/>
			<point x="337" y="506"/>
			<point x="373" y="527" type="curve"/>
			<point x="372" y="484"/>
			<point x="371" y="441"/>
		</contour>
		<contour>
			<point x="153" y="0" type="curve"/>
			<point x="217" y="0" type="line"/>
			<point x="216" y="43"/>
			<point x="215" y="86"/>
			<point x="214" y="129" type="curve"/>
			<point x="250" y="108"/>
			<point x="286" y="86"/>
			<point x="322" y="64" type="curve"/>
			<point x="354" y="119" type="line"/>
			<point x="317" y="139"/>
			<point x="280" y="159"/>
			<point x="244" y="180" type="curve"/>
			<point x="280" y="201"/>
			<point x="317" y="221"/>
			<point x="354" y="241" type="curve"/>
			<point x="322" y="296" type="line"/>
			<point x="286" y="274"/>
			<point x="250" y="252"/>
			<point x="214" y="231" type="curve"/>
			<point x="215" y="272"/>
			<point x="216" y="313"/>
			<point x="217" y="354" type="curve"/>
			<point x="153" y="354" type="line"/>
			<point x="154" y="313"/>
			<point x="155" y="272"/>
			<point x="156" y="231" type="curve"/>
			<point x="120" y="252"/>
			<point x="84" y="274"/>
			<point x="48" y="296" type="curve"/>
			<point x="16" y="241" type="line"/>
			<point x="53" y="221"/>
			<point x="90" y="201"/>
			<point x="126" y="180" type="curve"/>
			<point x="90" y="159"/>
			<point x="53" y="139"/>
			<point x="16" y="119" type="curve"/>
			<point x="48" y="64" type="line"/>
			<point x="84" y="86"/>
			<point x="120" y="108"/>
			<point x="156" y="129" type="curve"/>
			<point x="155" y="86"/>
			<point x="154" y="43"/>
		</contour>
		<contour>
			<point x="587" y="0" type="curve"/>
			<point x="651" y="0" type="line"/>
			<point x="650" y="43"/>
			<point x="649" y="86"/>
			<point x="648" y="129" type="curve"/>
			<point x="684" y="108"/>
			<point x="720" y="86"/>
			<point x="756" y="64" type="curve"/>
			<point x="788" y="119" type="line"/>
			<point x="751" y="139"/>
			<point x="714" y="159"/>
			<point x="678" y="180" type="curve"/>
			<point x="714" y="201"/>
			<point x="751" y="221"/>
			<point x="788" y="241" type="curve"/>
			<point x="756" y="296" type="line"/>
			<point x="720" y="274"/>
			<point x="684" y="252"/>
			<point x="648" y="231" type="curve"/>
			<point x="649" y="272"/>
			<point x="650" y="313"/>
			<point x="651" y="354" type="curve"/>
			<point x="587" y="354" type="line"/>
			<point x="588" y="313"/>
			<point x="589" y="272"/>
			<point x="590" y="231" type="curve"/>
			<point x="554" y="252"/>
			<point x="518" y="274"/>
			<point x="482" y="296" type="curve"/>
			<point x="450" y="241" type="line"/>
			<point x="487" y="221"/>
			<point x="524" y="201"/>
			<point x="560" y="180" type="curve"/>
			<point x="524" y="159"/>
			<point x="487" y="139"/>
			<point x="450" y="119" type="curve"/>
			<point x="482" y="64" type="line"/>
			<point x="518" y="86"/>
			<point x="554" y="108"/>
			<point x="590" y="129" type="curve"/>
			<point x="589" y="86"/>
			<point x="588" y="43"/>
		</contour>
	</outline>
</glyph>
<glyph name="fraction" format="2">
	<advance width="296"/>
	<unicode hex="2044"/>
	<outline>
		<contour>
			<point x="-180" y="0" type="line"/>
			<point x="-82" y="0" type="line"/>
			<point x="476" y="763" type="line"/>
			<point x="378" y="763" type="line"/>
		</contour>
	</outline>
</glyph>
<glyph name="twoinferior" format="2">
	<advance width="378"/>
	<unicode hex="2082"/>
	<outline>
		<contour>
			<point x="30" y="-136" type="line"/>
			<point x="360" y="-136" type="line"/>
			<point x="360" y="-65" type="line"/>
			<point x="140" y="-65" type="line"/>
			<point x="226" y="13" type="line" smooth="yes"/>
			<point x="305" y="84"/>
			<point x="346" y="119"/>
			<point x="346" y="193" type="curve" smooth="yes"/>
			<point x="346" y="272"/>
			<point x="306" y="326"/>
			<point x="197" y="326" type="curve" smooth="yes"/>
			<point x="89" y="326"/>
			<point x="41" y="260"/>
			<point x="41" y="194" type="curve"/>
			<point x="122" y="194" type="line"/>
			<point x="127" y="222"/>
			<point x="147" y="253"/>
			<point x="198" y="253" type="curve" smooth="yes"/>
			<point x="246" y="253"/>
			<point x="266" y="238"/>
			<point x="266" y="193" type="curve" smooth="yes"/>
			<point x="266" y="156"/>
			<point x="239" y="125"/>
			<point x="188" y="79" type="curve" smooth="yes"/>
			<point x="70" y="-29" type="line" smooth="yes"/>
			<point x="41" y="-56"/>
			<point x="30" y="-100"/>
			<point x="30" y="-127" type="curve"/>
		</contour>
	</outline>
</glyph>
<glyph name="threeinferior" format="2">
	<advance width="386"/>
	<unicode hex="2083"/>
	<outline>
		<contour>
			<point x="188" y="-139" type="curve" smooth="yes"/>
			<point x="313" y="-139"/>
			<point x="353" y="-74"/>
			<point x="353" y="-6" type="curve" smooth="yes"/>
			<point x="353" y="45"/>
			<point x="326" y="82"/>
			<point x="275" y="104" type="curve"/>
			<point x="314" y="121"/>
			<point x="340" y="155"/>
			<point x="340" y="199" type="curve" smooth="yes"/>
			<point x="340" y="285"/>
			<point x="290" y="326"/>
			<point x="189" y="326" type="curve" smooth="yes"/>
			<point x="87" y="326"/>
			<point x="36" y="260"/>
			<point x="36" y="194" type="curve"/>
			<point x="114" y="194" type="line"/>
			<point x="117" y="230"/>
			<point x="142" y="253"/>
			<point x="189" y="253" type="curve" smooth="yes"/>
			<point x="242" y="253"/>
			<point x="261" y="233"/>
			<point x="261" y="199" type="curve" smooth="yes"/>
			<point x="261" y="160"/>
			<point x="241" y="133"/>
			<point x="190" y="133" type="curve" smooth="yes"/>
			<point x="183" y="133"/>
			<point x="143" y="133"/>
			<point x="136" y="133" type="curve"/>
			<point x="137" y="63" type="line"/>
			<point x="144" y="63"/>
			<point x="183" y="64"/>
			<point x="190" y="64" type="curve" smooth="yes"/>
			<point x="247" y="64"/>
			<point x="275" y="38"/>
			<point x="275" y="-6" type="curve" smooth="yes"/>
			<point x="275" y="-52"/>
			<point x="240" y="-66"/>
			<point x="188" y="-66" type="curve" smooth="yes"/>
			<point x="136" y="-66"/>
			<point x="110" y="-36"/>
			<point x="110" y="-4" type="curve"/>
			<point x="28" y="-4" type="line"/>
			<point x="28" y="-70"/>
			<point x="64" y="-139"/>
		</contour>
	</outline>
</glyph>
<glyph name="fiveinferior" format="2">
	<advance width="377"/>
	<unicode hex="2085"/>
	<outline>
		<contour>
			<point x="187" y="-139" type="curve" smooth="yes"/>
			<point x="301" y="-139"/>
			<point x="349" y="-76"/>
			<point x="349" y="12" type="curve" smooth="yes"/>
			<point x="349" y="128"/>
			<point x="279" y="162"/>
			<point x="205" y="162" type="curve" smooth="yes"/>
			<point x="161" y="162"/>
			<point x="133" y="146"/>
			<point x="123" y="138" type="curve"/>
			<point x="130" y="245" type="line"/>
			<point x="330" y="245" type="line"/>
			<point x="330" y="316" type="line"/>
			<point x="63" y="316" type="line"/>
			<point x="43" y="61" type="line"/>
			<point x="114" y="61" type="line"/>
			<point x="128" y="77"/>
			<point x="149" y="95"/>
			<point x="192" y="95" type="curve" smooth="yes"/>
			<point x="246" y="95"/>
			<point x="271" y="72"/>
			<point x="271" y="10" type="curve" smooth="yes"/>
			<point x="271" y="-46"/>
			<point x="241" y="-66"/>
			<point x="188" y="-66" type="curve" smooth="yes"/>
			<point x="135" y="-66"/>
			<point x="112" y="-40"/>
			<point x="106" y="-11" type="curve"/>
			<point x="36" y="-11" type="line"/>
			<point x="38" y="-66"/>
			<point x="83" y="-139"/>
		</contour>
	</outline>
</glyph>
<glyph name="sixinferior" format="2">
	<advance width="393"/>
	<unicode hex="2086"/>
	<outline>
		<contour>
			<point x="203" y="-139" type="curve" smooth="yes"/>
			<point x="313" y="-139"/>
			<point x="365" y="-70"/>
			<point x="365" y="8" type="curve" smooth="yes"/>
			<point x="365" y="111"/>
			<point x="313" y="162"/>
			<point x="208" y="162" type="curve" smooth="yes"/>
			<point x="155" y="162"/>
			<point x="130" y="148"/>
			<point x="109" y="129" type="curve"/>
			<point x="110" y="229"/>
			<point x="142" y="253"/>
			<point x="202" y="253" type="curve" smooth="yes"/>
			<point x="262" y="253"/>
			<point x="287" y="237"/>
			<point x="292" y="204" type="curve"/>
			<point x="364" y="204" type="line"/>
			<point x="355" y="285"/>
			<point x="309" y="326"/>
			<point x="204" y="326" type="curve" smooth="yes"/>
			<point x="99" y="326"/>
			<point x="32" y="266"/>
			<point x="32" y="96" type="curve" smooth="yes"/>
			<point x="32" y="-43"/>
			<point x="64" y="-139"/>
		</contour>
		<contour>
			<point x="203" y="-67" type="curve" smooth="yes"/>
			<point x="163" y="-67"/>
			<point x="142" y="-59"/>
			<point x="126" y="-31" type="curve" smooth="yes"/>
			<point x="120" y="-20"/>
			<point x="116" y="-2"/>
			<point x="115" y="11" type="curve" smooth="yes"/>
			<point x="112" y="70"/>
			<point x="139" y="93"/>
			<point x="203" y="93" type="curve" smooth="yes"/>
			<point x="267" y="93"/>
			<point x="289" y="72"/>
			<point x="289" y="7" type="curve" smooth="yes"/>
			<point x="289" y="-45"/>
			<point x="261" y="-67"/>
		</contour>
	</outline>
</glyph>
<glyph name="eightinferior" format="2">
	<advance width="380"/>
	<unicode hex="2088"/>
	<outline>
		<contour>
			<point x="190" y="-139" type="curve" smooth="yes"/>
			<point x="308" y="-139"/>
			<point x="348" y="-75"/>
			<point x="348" y="-6" type="curve" smooth="yes"/>
			<point x="348" y="46"/>
			<point x="323" y="88"/>
			<point x="260" y="108" type="curve"/>
			<point x="306" y="118"/>
			<point x="335" y="160"/>
			<point x="335" y="204" type="curve" smooth="yes"/>
			<point x="335" y="270"/>
			<point x="294" y="326"/>
			<point x="190" y="326" type="curve" smooth="yes"/>
			<point x="86" y="326"/>
			<point x="45" y="264"/>
			<point x="45" y="204" type="curve" smooth="yes"/>
			<point x="45" y="160"/>
			<point x="74" y="118"/>
			<point x="120" y="108" type="curve"/>
			<point x="57" y="88"/>
			<point x="32" y="46"/>
			<point x="32" y="-6" type="curve" smooth="yes"/>
			<point x="32" y="-75"/>
			<point x="72" y="-139"/>
		</contour>
		<contour>
			<point x="190" y="-74" type="curve" smooth="yes"/>
			<point x="140" y="-74"/>
			<point x="107" y="-57"/>
			<point x="107" y="-7" type="curve" smooth="yes"/>
			<point x="107" y="44"/>
			<point x="141" y="64"/>
			<point x="190" y="64" type="curve" smooth="yes"/>
			<point x="239" y="64"/>
			<point x="273" y="44"/>
			<point x="273" y="-7" type="curve" smooth="yes"/>
			<point x="273" y="-57"/>
			<point x="240" y="-74"/>
		</contour>
		<contour>
			<point x="190" y="144" type="curve" smooth="yes"/>
			<point x="147" y="144"/>
			<point x="118" y="163"/>
			<point x="118" y="203" type="curve" smooth="yes"/>
			<point x="118" y="243"/>
			<point x="147" y="264"/>
			<point x="190" y="264" type="curve" smooth="yes"/>
			<point x="233" y="264"/>
			<point x="262" y="243"/>
			<point x="262" y="203" type="curve" smooth="yes"/>
			<point x="262" y="163"/>
			<point x="233" y="144"/>
		</contour>
	</outline>
</glyph>
<glyph name="parenrightinferior" format="2">
	<advance width="223"/>
	<unicode hex="208E"/>
	<outline>
		<contour>
			<point x="107" y="464" type="line"/>
			<point x="145" y="522"/>
			<point x="159" y="560"/>
			<point x="159" y="625" type="curve" smooth="yes"/>
			<point x="159" y="689"/>
			<point x="145" y="728"/>
			<point x="107" y="786" type="curve"/>
			<point x="32.425" y="785.518" type="line"/>
			<point x="71.031" y="737.79"/>
			<point x="87.263" y="681.445"/>
			<point x="87.263" y="624.769" type="curve" smooth="yes"/>
			<point x="87.263" y="568.093"/>
			<point x="71.031" y="511.748"/>
			<point x="32.425" y="464.021" type="curve"/>
		</contour>
	</outline>
</glyph>
<glyph name="franc" format="2">
	<advance width="600"/>
	<unicode hex="20A3"/>
	<outline>
		<contour>
			<point x="78" y="0" type="line"/>
			<point x="172" y="0" type="line"/>
			<point x="172" y="340" type="line"/>
			<point x="540" y="340" type="line"/>
			<point x="540" y="430" type="line"/>
			<point x="172" y="430" type="line"/>
			<point x="172" y="661" type="line"/>
			<point x="568" y="661" type="line"/>
			<point x="568" y="752" type="line"/>
			<point x="78" y="752" type="line"/>
		</contour>
		<contour>
			<point x="5" y="138" type="line"/>
			<point x="385" y="138" type="line"/>
			<point x="385" y="218" type="line"/>
			<point x="5" y="218" type="line"/>
		</contour>
	</outline>
</glyph>
<glyph name="numero" format="2">
	<advance width="1385"/>
	<unicode hex="2116"/>
	<outline>
		<contour>
			<point x="1062" y="234" type="curve" smooth="yes"/>
			<point x="1264" y="234"/>
			<point x="1335" y="383"/>
			<point x="1335" y="503" type="curve" smooth="yes"/>
			<point x="1335" y="623"/>
			<point x="1264" y="772"/>
			<point x="1062" y="772" type="curve" smooth="yes"/>
			<point x="861" y="772"/>
			<point x="790" y="623"/>
			<point x="790" y="503" type="curve" smooth="yes"/>
			<point x="790" y="383"/>
			<point x="861" y="234"/>
		</contour>
		<contour>
			<point x="1062" y="333" type="curve" smooth="yes"/>
			<point x="958" y="333"/>
			<point x="893" y="395"/>
			<point x="893" y="503" type="curve" smooth="yes"/>
			<point x="893" y="611"/>
			<point x="956" y="673"/>
			<point x="1062" y="673" type="curve" smooth="yes"/>
			<point x="1168" y="673"/>
			<point x="1232" y="611"/>
			<point x="1232" y="503" type="curve" smooth="yes"/>
			<point x="1232" y="395"/>
			<point x="1166" y="333"/>
		</contour>
		<contour>
			<point x="1062" y="1" type="curve" smooth="yes"/>
			<point x="1105" y="1"/>
			<point x="1140" y="35"/>
			<point x="1140" y="79" type="curve" smooth="yes"/>
			<point x="1140" y="123"/>
			<point x="1105" y="157"/>
			<point x="1062" y="157" type="curve" smooth="yes"/>
			<point x="1019" y="157"/>
			<point x="983" y="123"/>
			<point x="983" y="79" type="curve" smooth="yes"/>
			<point x="983" y="35"/>
			<point x="1019" y="1"/>
		</contour>
		<component base="N"/>
	</outline>
</glyph>
<glyph name="trademark" format="2">
	<advance width="805"/>
	<unicode hex="2122"/>
	<outline>
		<contour>
			<point x="143" y="413" type="line"/>
			<point x="199" y="413" type="line"/>
			<point x="199" y="752" type="line"/>
			<point x="143" y="752" type="line"/>
		</contour>
		<contour>
			<point x="40" y="700" type="line"/>
			<point x="301" y="700" type="line"/>
			<point x="301" y="752" type="line"/>
			<point x="40" y="752" type="line"/>
		</contour>
		<contour>
			<point x="352" y="413" type="line"/>
			<point x="402" y="413" type="line"/>
			<point x="402" y="657" type="line"/>
			<point x="525" y="457" type="line"/>
			<point x="574" y="457" type="line"/>
			<point x="698" y="657" type="line"/>
			<point x="698" y="413" type="line"/>
			<point x="748" y="413" type="line"/>
			<point x="748" y="752" type="line"/>
			<point x="703" y="752" type="line"/>
			<point x="553" y="508" type="line"/>
			<point x="397" y="752" type="line"/>
			<point x="352" y="752" type="line"/>
		</contour>
	</outline>
</glyph>
<glyph name="estimated" format="2">
	<advance width="600"/>
	<unicode hex="212E"/>
	<outline>
		<contour>
			<point x="309" y="-14" type="curve" smooth="yes"/>
			<point x="403" y="-14"/>
			<point x="495" y="21"/>
			<point x="553" y="144" type="curve"/>
			<point x="517" y="144" type="line"/>
			<point x="461" y="44"/>
			<point x="375" y="26"/>
			<point x="309" y="26" type="curve" smooth="yes"/>
			<point x="182" y="26"/>
			<point x="119" y="70"/>
			<point x="119" y="227" type="curve"/>
			<point x="570" y="227" type="line"/>
			<point x="570" y="473"/>
			<point x="418" y="524"/>
			<point x="309" y="524" type="curve" smooth="yes"/>
			<point x="108" y="524"/>
			<point x="43" y="375"/>
			<point x="43" y="255" type="curve" smooth="yes"/>
			<point x="43" y="103"/>
			<point x="116" y="-14"/>
		</contour>
		<contour>
			<point x="141" y="310" type="line"/>
			<point x="108" y="443"/>
			<point x="217" y="485"/>
			<point x="306" y="485" type="curve" smooth="yes"/>
			<point x="363" y="485"/>
			<point x="514" y="464"/>
			<point x="473" y="310" type="curve"/>
		</contour>
		<contour>
			<point x="119" y="439" type="line"/>
			<point x="119" y="58" type="line"/>
			<point x="167" y="58" type="line"/>
			<point x="167" y="439" type="line"/>
		</contour>
		<contour>
			<point x="448" y="439" type="line"/>
			<point x="448" y="246" type="line"/>
			<point x="496" y="246" type="line"/>
			<point x="496" y="439" type="line"/>
		</contour>
	</outline>
</glyph>
<glyph name="leftArrow" format="2">
	<advance width="790"/>
	<unicode hex="2190"/>
	<outline>
		<contour>
			<point x="401" y="105" type="line"/>
			<point x="401" y="216" type="line"/>
			<point x="198" y="334" type="line"/>
			<point x="773" y="334" type="line"/>
			<point x="773" y="428" type="line"/>
			<point x="198" y="428" type="line"/>
			<point x="401" y="542" type="line"/>
			<point x="401" y="653" type="line"/>
			<point x="74" y="426" type="line" smooth="yes"/>
			<point x="52" y="410"/>
			<point x="31" y="395"/>
			<point x="7" y="379" type="curve"/>
			<point x="31" y="363"/>
			<point x="52" y="348"/>
			<point x="74" y="332" type="curve" smooth="yes"/>
		</contour>
	</outline>
</glyph>
<glyph name="upArrow" format="2">
	<advance width="570"/>
	<unicode hex="2191"/>
	<outline>
		<contour>
			<point x="238" y="0" type="line"/>
			<point x="332" y="0" type="line"/>
			<point x="332" y="575" type="line"/>
			<point x="448" y="372" type="line"/>
			<point x="559" y="372" type="line"/>
			<point x="332" y="699" type="line" smooth="yes"/>
			<point x="316" y="721"/>
			<point x="301" y="742"/>
			<point x="285" y="766" type="curve"/>
			<point x="269" y="742"/>
			<point x="254" y="721"/>
			<point x="238" y="699" type="curve" smooth="yes"/>
			<point x="11" y="372" type="line"/>
			<point x="122" y="372" type="line"/>
			<point x="238" y="575" type="line"/>
		</contour>
	</outline>
</glyph>
<glyph name="rightArrow" format="2">
	<advance width="790"/>
	<unicode hex="2192"/>
	<outline>
		<contour>
			<point x="389" y="105" type="line"/>
			<point x="716" y="332" type="line" smooth="yes"/>
			<point x="738" y="348"/>
			<point x="759" y="363"/>
			<point x="783" y="379" type="curve"/>
			<point x="759" y="395"/>
			<point x="738" y="410"/>
			<point x="716" y="426" type="curve" smooth="yes"/>
			<point x="389" y="653" type="line"/>
			<point x="389" y="542" type="line"/>
			<point x="592" y="427" type="line"/>
			<point x="17" y="427" type="line"/>
			<point x="17" y="333" type="line"/>
			<point x="592" y="333" type="line"/>
			<point x="389" y="216" type="line"/>
		</contour>
	</outline>
</glyph>
<glyph name="downArrow" format="2">
	<advance width="570"/>
	<unicode hex="2193"/>
	<outline>
		<contour>
			<point x="285" y="-14" type="curve"/>
			<point x="301" y="10"/>
			<point x="316" y="31"/>
			<point x="332" y="53" type="curve" smooth="yes"/>
			<point x="559" y="380" type="line"/>
			<point x="448" y="380" type="line"/>
			<point x="332" y="177" type="line"/>
			<point x="332" y="752" type="line"/>
			<point x="238" y="752" type="line"/>
			<point x="238" y="177" type="line"/>
			<point x="122" y="380" type="line"/>
			<point x="11" y="380" type="line"/>
			<point x="238" y="53" type="line" smooth="yes"/>
			<point x="254" y="31"/>
			<point x="269" y="10"/>
		</contour>
	</outline>
</glyph>
<glyph name="leftRightArrow" format="2">
	<advance width="1040"/>
	<unicode hex="2194"/>
	<outline>
		<contour>
			<point x="401" y="105" type="line"/>
			<point x="401" y="216" type="line"/>
			<point x="198" y="333" type="line"/>
			<point x="842" y="333" type="line"/>
			<point x="639" y="216" type="line"/>
			<point x="639" y="105" type="line"/>
			<point x="966" y="332" type="line" smooth="yes"/>
			<point x="988" y="348"/>
			<point x="1009" y="363"/>
			<point x="1033" y="379" type="curve"/>
			<point x="1009" y="395"/>
			<point x="988" y="410"/>
			<point x="966" y="426" type="curve" smooth="yes"/>
			<point x="639" y="653" type="line"/>
			<point x="639" y="542" type="line"/>
			<point x="842" y="427" type="line"/>
			<point x="198" y="427" type="line"/>
			<point x="401" y="542" type="line"/>
			<point x="401" y="653" type="line"/>
			<point x="74" y="426" type="line" smooth="yes"/>
			<point x="52" y="410"/>
			<point x="31" y="395"/>
			<point x="7" y="379" type="curve"/>
			<point x="31" y="363"/>
			<point x="52" y="348"/>
			<point x="74" y="332" type="curve" smooth="yes"/>
		</contour>
	</outline>
</glyph>
<glyph name="upDownArrow" format="2">
	<advance width="570"/>
	<unicode hex="2195"/>
	<outline>
		<contour>
			<point x="238" y="226" type="line"/>
			<point x="332" y="226" type="line"/>
			<point x="332" y="601" type="line"/>
			<point x="448" y="398" type="line"/>
			<point x="559" y="398" type="line"/>
			<point x="332" y="725" type="line" smooth="yes"/>
			<point x="316" y="747"/>
			<point x="301" y="768"/>
			<point x="285" y="792" type="curve"/>
			<point x="269" y="768"/>
			<point x="254" y="747"/>
			<point x="238" y="725" type="curve" smooth="yes"/>
			<point x="11" y="398" type="line"/>
			<point x="122" y="398" type="line"/>
			<point x="238" y="601" type="line"/>
		</contour>
		<contour>
			<point x="285" y="-158" type="curve"/>
			<point x="301" y="-134"/>
			<point x="316" y="-113"/>
			<point x="332" y="-91" type="curve" smooth="yes"/>
			<point x="559" y="236" type="line"/>
			<point x="448" y="236" type="line"/>
			<point x="332" y="33" type="line"/>
			<point x="332" y="308" type="line"/>
			<point x="238" y="308" type="line"/>
			<point x="238" y="33" type="line"/>
			<point x="122" y="236" type="line"/>
			<point x="11" y="236" type="line"/>
			<point x="238" y="-91" type="line" smooth="yes"/>
			<point x="254" y="-113"/>
			<point x="269" y="-134"/>
		</contour>
	</outline>
</glyph>
<glyph name="emptyset" format="2">
	<advance width="837"/>
	<unicode hex="2205"/>
	<outline>
		<contour>
			<point x="415" y="93" type="curve" smooth="yes"/>
			<point x="563" y="93"/>
			<point x="683" y="213"/>
			<point x="683" y="362" type="curve" smooth="yes"/>
			<point x="683" y="510"/>
			<point x="563" y="630"/>
			<point x="415" y="630" type="curve" smooth="yes"/>
			<point x="266" y="630"/>
			<point x="146" y="510"/>
			<point x="146" y="362" type="curve" smooth="yes"/>
			<point x="146" y="213"/>
			<point x="266" y="93"/>
		</contour>
		<contour>
			<point x="415" y="170" type="curve" smooth="yes"/>
			<point x="309" y="170"/>
			<point x="223" y="256"/>
			<point x="223" y="362" type="curve" smooth="yes"/>
			<point x="223" y="467"/>
			<point x="309" y="553"/>
			<point x="415" y="553" type="curve" smooth="yes"/>
			<point x="520" y="553"/>
			<point x="606" y="467"/>
			<point x="606" y="362" type="curve" smooth="yes"/>
			<point x="606" y="256"/>
			<point x="520" y="170"/>
		</contour>
		<contour>
			<point x="747" y="752" type="line"/>
			<point x="35" y="40" type="line"/>
			<point x="90" y="-14" type="line"/>
			<point x="802" y="698" type="line"/>
		</contour>
	</outline>
</glyph>
<glyph name="product" format="2">
	<advance width="732"/>
	<unicode hex="220F"/>
	<outline>
		<contour>
			<point x="63" y="-278" type="curve"/>
			<point x="182" y="-278" type="line"/>
			<point x="177" y="35"/>
			<point x="177" y="347"/>
			<point x="177" y="660" type="curve" smooth="yes"/>
			<point x="555" y="660" type="line" smooth="yes"/>
			<point x="555" y="347"/>
			<point x="555" y="35"/>
			<point x="550" y="-278" type="curve"/>
			<point x="669" y="-278" type="line"/>
			<point x="662" y="-28"/>
			<point x="662" y="457"/>
			<point x="664" y="752" type="curve" smooth="yes"/>
			<point x="68" y="752" type="line" smooth="yes"/>
			<point x="70" y="457"/>
			<point x="70" y="-28"/>
		</contour>
	</outline>
</glyph>
<glyph name="summation" format="2">
	<advance width="601"/>
	<unicode hex="2211"/>
	<outline>
		<contour>
			<point x="0" y="0" type="line"/>
			<point x="415" y="0" type="line" smooth="yes"/>
			<point x="471" y="0"/>
			<point x="534" y="14"/>
			<point x="566" y="85" type="curve"/>
			<point x="501" y="148" type="line"/>
			<point x="493" y="99"/>
			<point x="454" y="90"/>
			<point x="415" y="90" type="curve" smooth="yes"/>
			<point x="139" y="90" type="line"/>
			<point x="410" y="378" type="line"/>
			<point x="144" y="662" type="line"/>
			<point x="495" y="662" type="line"/>
			<point x="495" y="752" type="line"/>
			<point x="0" y="752" type="line"/>
			<point x="0" y="732" type="line" smooth="yes"/>
			<point x="0" y="660"/>
			<point x="187" y="473"/>
			<point x="281" y="379" type="curve"/>
			<point x="187" y="283"/>
			<point x="0" y="84"/>
			<point x="0" y="20" type="curve" smooth="yes"/>
		</contour>
	</outline>
</glyph>
<glyph name="approxequal" format="2">
	<advance width="584"/>
	<unicode hex="2248"/>
	<outline>
		<contour>
			<point x="35" y="169" type="line"/>
			<point x="69" y="198"/>
			<point x="112" y="219"/>
			<point x="175" y="219" type="curve" smooth="yes"/>
			<point x="260" y="219"/>
			<point x="294" y="144"/>
			<point x="409" y="144" type="curve" smooth="yes"/>
			<point x="472" y="144"/>
			<point x="511" y="160"/>
			<point x="549" y="189" type="curve"/>
			<point x="549" y="268" type="line"/>
			<point x="520" y="245"/>
			<point x="472" y="218"/>
			<point x="409" y="218" type="curve" smooth="yes"/>
			<point x="324" y="218"/>
			<point x="290" y="293"/>
			<point x="175" y="293" type="curve" smooth="yes"/>
			<point x="112" y="293"/>
			<point x="66" y="270"/>
			<point x="35" y="248" type="curve"/>
		</contour>
		<contour>
			<point x="35" y="368" type="line"/>
			<point x="69" y="397"/>
			<point x="112" y="418"/>
			<point x="175" y="418" type="curve" smooth="yes"/>
			<point x="260" y="418"/>
			<point x="294" y="343"/>
			<point x="409" y="343" type="curve" smooth="yes"/>
			<point x="472" y="343"/>
			<point x="511" y="359"/>
			<point x="549" y="388" type="curve"/>
			<point x="549" y="467" type="line"/>
			<point x="520" y="444"/>
			<point x="472" y="417"/>
			<point x="409" y="417" type="curve" smooth="yes"/>
			<point x="324" y="417"/>
			<point x="290" y="492"/>
			<point x="175" y="492" type="curve" smooth="yes"/>
			<point x="112" y="492"/>
			<point x="66" y="469"/>
			<point x="35" y="447" type="curve"/>
		</contour>
	</outline>
</glyph>
<glyph name="notequal" format="2">
	<advance width="584"/>
	<unicode hex="2260"/>
	<outline>
		<contour>
			<point x="35" y="392" type="line"/>
			<point x="549" y="392" type="line"/>
			<point x="549" y="471" type="line"/>
			<point x="35" y="471" type="line"/>
		</contour>
		<contour>
			<point x="35" y="172" type="line"/>
			<point x="549" y="172" type="line"/>
			<point x="549" y="251" type="line"/>
			<point x="35" y="251" type="line"/>
		</contour>
		<contour>
			<point x="141" y="32" type="line"/>
			<point x="509" y="556" type="line"/>
			<point x="444" y="601" type="line"/>
			<point x="76" y="77" type="line"/>
		</contour>
	</outline>
</glyph>
<glyph name="lessequal" format="2">
	<advance width="589"/>
	<unicode hex="2264"/>
	<outline>
		<contour>
			<point x="35" y="32" type="line"/>
			<point x="549" y="32" type="line"/>
			<point x="549" y="111" type="line"/>
			<point x="35" y="111" type="line"/>
		</contour>
		<contour>
			<point x="549" y="174" type="line"/>
			<point x="549" y="258" type="line"/>
			<point x="123" y="390" type="line"/>
			<point x="549" y="521" type="line"/>
			<point x="549" y="605" type="line"/>
			<point x="35" y="437" type="line"/>
			<point x="35" y="342" type="line"/>
		</contour>
	</outline>
</glyph>
<glyph name="greaterequal" format="2">
	<advance width="589"/>
	<unicode hex="2265"/>
	<outline>
		<contour>
			<point x="40" y="32" type="line"/>
			<point x="554" y="32" type="line"/>
			<point x="554" y="111" type="line"/>
			<point x="40" y="111" type="line"/>
		</contour>
		<contour>
			<point x="40" y="174" type="line"/>
			<point x="554" y="342" type="line"/>
			<point x="554" y="437" type="line"/>
			<point x="40" y="605" type="line"/>
			<point x="40" y="521" type="line"/>
			<point x="466" y="390" type="line"/>
			<point x="40" y="258" type="line"/>
		</contour>
	</outline>
</glyph>
<glyph name="lozenge" format="2">
	<advance width="569"/>
	<unicode hex="25CA"/>
	<outline>
		<contour>
			<point x="234" y="0" type="line"/>
			<point x="336" y="0" type="line"/>
			<point x="534" y="363" type="line"/>
			<point x="336" y="726" type="line"/>
			<point x="234" y="726" type="line"/>
			<point x="35" y="363" type="line"/>
		</contour>
		<contour>
			<point x="284" y="69" type="line"/>
			<point x="131" y="363" type="line"/>
			<point x="284" y="657" type="line"/>
			<point x="438" y="363" type="line"/>
		</contour>
	</outline>
</glyph>
<glyph name="spadeBlackSuit" format="2">
	<advance width="1020"/>
	<unicode hex="2660"/>
	<outline>
		<contour>
			<point x="310" y="15" type="curve" smooth="yes"/>
			<point x="428" y="15"/>
			<point x="476" y="90"/>
			<point x="484" y="139" type="curve"/>
			<point x="536" y="139" type="line"/>
			<point x="544" y="90"/>
			<point x="593" y="15"/>
			<point x="710" y="15" type="curve" smooth="yes"/>
			<point x="878" y="15"/>
			<point x="940" y="145"/>
			<point x="940" y="263" type="curve" smooth="yes"/>
			<point x="940" y="524"/>
			<point x="663" y="660"/>
			<point x="562" y="756" type="curve" smooth="yes"/>
			<point x="536" y="781"/>
			<point x="522" y="789"/>
			<point x="510" y="789" type="curve"/>
			<point x="498" y="789"/>
			<point x="483" y="782"/>
			<point x="456" y="756" type="curve" smooth="yes"/>
			<point x="355" y="660"/>
			<point x="80" y="524"/>
			<point x="80" y="263" type="curve" smooth="yes"/>
			<point x="80" y="145"/>
			<point x="142" y="15"/>
		</contour>
		<contour>
			<point x="355" y="-108" type="curve"/>
			<point x="665" y="-108" type="line"/>
			<point x="685" y="-108"/>
			<point x="681" y="-84"/>
			<point x="676" y="-74" type="curve" smooth="yes"/>
			<point x="651" y="-24"/>
			<point x="539" y="-11"/>
			<point x="539" y="88" type="curve" smooth="yes"/>
			<point x="539" y="117"/>
			<point x="557" y="139"/>
			<point x="578" y="139" type="curve"/>
			<point x="442" y="139" type="line"/>
			<point x="463" y="139"/>
			<point x="481" y="117"/>
			<point x="481" y="88" type="curve" smooth="yes"/>
			<point x="481" y="-11"/>
			<point x="369" y="-24"/>
			<point x="344" y="-74" type="curve" smooth="yes"/>
			<point x="339" y="-84"/>
			<point x="335" y="-108"/>
		</contour>
	</outline>
</glyph>
<glyph name="heartBlackSuit" format="2">
	<advance width="1080"/>
	<unicode hex="2665"/>
	<outline>
		<contour>
			<point x="540" y="-94" type="curve"/>
			<point x="553" y="-94"/>
			<point x="569" y="-85"/>
			<point x="598" y="-58" type="curve" smooth="yes"/>
			<point x="709" y="46"/>
			<point x="999" y="196"/>
			<point x="999" y="485" type="curve" smooth="yes"/>
			<point x="999" y="615"/>
			<point x="926" y="751"/>
			<point x="741" y="751" type="curve" smooth="yes"/>
			<point x="611" y="751"/>
			<point x="535" y="662"/>
			<point x="540" y="580" type="curve"/>
			<point x="545" y="662"/>
			<point x="469" y="751"/>
			<point x="339" y="751" type="curve" smooth="yes"/>
			<point x="154" y="751"/>
			<point x="81" y="615"/>
			<point x="81" y="485" type="curve" smooth="yes"/>
			<point x="81" y="197"/>
			<point x="369" y="44"/>
			<point x="481" y="-58" type="curve" smooth="yes"/>
			<point x="511" y="-85"/>
			<point x="527" y="-94"/>
		</contour>
	</outline>
</glyph>
<glyph name="diamondBlackSuit" format="2">
	<advance width="860"/>
	<unicode hex="2666"/>
	<outline>
		<contour>
			<point x="430" y="-119" type="curve"/>
			<point x="441" y="-119"/>
			<point x="456" y="-119"/>
			<point x="479" y="-81" type="curve" smooth="yes"/>
			<point x="553" y="42"/>
			<point x="658" y="183"/>
			<point x="742" y="281" type="curve" smooth="yes"/>
			<point x="767" y="310"/>
			<point x="770" y="325"/>
			<point x="770" y="339" type="curve"/>
			<point x="770" y="353"/>
			<point x="766" y="370"/>
			<point x="742" y="397" type="curve" smooth="yes"/>
			<point x="658" y="494"/>
			<point x="556" y="631"/>
			<point x="479" y="751" type="curve" smooth="yes"/>
			<point x="456" y="787"/>
			<point x="440" y="788"/>
			<point x="430" y="789" type="curve"/>
			<point x="419" y="788"/>
			<point x="404" y="787"/>
			<point x="380" y="751" type="curve" smooth="yes"/>
			<point x="301" y="633"/>
			<point x="202" y="493"/>
			<point x="118" y="397" type="curve" smooth="yes"/>
			<point x="93" y="369"/>
			<point x="90" y="353"/>
			<point x="90" y="339" type="curve"/>
			<point x="90" y="325"/>
			<point x="94" y="309"/>
			<point x="118" y="281" type="curve" smooth="yes"/>
			<point x="202" y="182"/>
			<point x="305" y="43"/>
			<point x="380" y="-81" type="curve" smooth="yes"/>
			<point x="403" y="-119"/>
			<point x="419" y="-119"/>
		</contour>
	</outline>
</glyph>
<glyph name="notedbl-musical" format="2">
	<advance width="843"/>
	<unicode hex="266B"/>
	<outline>
		<contour>
			<point x="204" y="-116" type="curve" smooth="yes"/>
			<point x="258" y="-90"/>
			<point x="285" y="-28"/>
			<point x="259" y="26" type="curve" smooth="yes"/>
			<point x="235" y="77"/>
			<point x="171" y="99"/>
			<point x="116" y="73" type="curve" smooth="yes"/>
			<point x="60" y="47"/>
			<point x="35" y="-16"/>
			<point x="59" y="-68" type="curve" smooth="yes"/>
			<point x="83" y="-120"/>
			<point x="148" y="-143"/>
		</contour>
		<contour>
			<point x="215" y="-17" type="curve"/>
			<point x="269" y="-17" type="line"/>
			<point x="261" y="211"/>
			<point x="261" y="438"/>
			<point x="269" y="666" type="curve"/>
			<point x="215" y="666" type="line"/>
			<point x="223" y="438"/>
			<point x="223" y="211"/>
		</contour>
		<contour>
			<point x="727" y="-21" type="curve" smooth="yes"/>
			<point x="781" y="5"/>
			<point x="808" y="67"/>
			<point x="782" y="121" type="curve" smooth="yes"/>
			<point x="758" y="172"/>
			<point x="694" y="194"/>
			<point x="639" y="168" type="curve" smooth="yes"/>
			<point x="583" y="142"/>
			<point x="558" y="79"/>
			<point x="582" y="27" type="curve" smooth="yes"/>
			<point x="606" y="-25"/>
			<point x="671" y="-48"/>
		</contour>
		<contour>
			<point x="738" y="78" type="curve"/>
			<point x="792" y="78" type="line"/>
			<point x="784" y="306"/>
			<point x="784" y="533"/>
			<point x="792" y="761" type="curve"/>
			<point x="738" y="761" type="line"/>
			<point x="746" y="533"/>
			<point x="746" y="306"/>
		</contour>
		<contour>
			<point x="215" y="666" type="line"/>
			<point x="261" y="570" type="line"/>
			<point x="789" y="683" type="line"/>
			<point x="793" y="788" type="line"/>
		</contour>
	</outline>
</glyph>
<glyph name="natural-musical" format="2">
	<advance width="375"/>
	<unicode hex="266E"/>
	<outline>
		<contour>
			<point x="50" y="272" type="line"/>
			<point x="325" y="319" type="line"/>
			<point x="325" y="391" type="line"/>
			<point x="50" y="344" type="line"/>
		</contour>
		<contour>
			<point x="113" y="290" type="line"/>
			<point x="113" y="784" type="line"/>
			<point x="50" y="777" type="line"/>
			<point x="50" y="297" type="line"/>
		</contour>
		<contour>
			<point x="325" y="156" type="line"/>
			<point x="325" y="629" type="line"/>
			<point x="262" y="636" type="line"/>
			<point x="262" y="149" type="line"/>
		</contour>
		<contour>
			<point x="50" y="530" type="line"/>
			<point x="325" y="577" type="line"/>
			<point x="325" y="648" type="line"/>
			<point x="50" y="602" type="line"/>
		</contour>
	</outline>
</glyph>
<glyph name="sharp-musical" format="2">
	<advance width="551"/>
	<unicode hex="266F"/>
	<outline>
		<contour>
			<point x="50" y="502" type="line"/>
			<point x="488" y="579" type="line"/>
			<point x="488" y="642" type="line"/>
			<point x="50" y="565" type="line"/>
		</contour>
		<contour>
			<point x="153" y="148" type="line"/>
			<point x="216" y="157" type="line"/>
			<point x="216" y="752" type="line"/>
			<point x="153" y="743" type="line"/>
		</contour>
		<contour>
			<point x="64" y="294" type="line"/>
			<point x="501" y="371" type="line"/>
			<point x="501" y="434" type="line"/>
			<point x="64" y="357" type="line"/>
		</contour>
		<contour>
			<point x="332" y="173" type="line"/>
			<point x="394" y="182" type="line"/>
			<point x="394" y="777" type="line"/>
			<point x="332" y="768" type="line"/>
		</contour>
	</outline>
</glyph>
<glyph name="comma-han" format="2">
	<advance width="1000"/>
	<unicode hex="3001"/>
	<outline>
		<contour>
			<point x="110" y="144" type="curve"/>
			<point x="144" y="159" type="line" smooth="yes"/>
			<point x="174" y="172"/>
			<point x="208" y="163"/>
			<point x="243" y="143" type="curve" smooth="yes"/>
			<point x="327" y="95"/>
			<point x="387" y="36"/>
			<point x="423" y="-7" type="curve"/>
			<point x="327" y="-62" type="line"/>
			<point x="272" y="12"/>
			<point x="201" y="102"/>
		</contour>
	</outline>
</glyph>
<glyph name="period-han" format="2">
	<advance width="1000"/>
	<unicode hex="3002"/>
	<outline>
		<contour>
			<point x="171" y="-64" type="curve" smooth="yes"/>
			<point x="236" y="-64"/>
			<point x="288" y="-13"/>
			<point x="288" y="53" type="curve" smooth="yes"/>
			<point x="288" y="119"/>
			<point x="236" y="170"/>
			<point x="171" y="170" type="curve" smooth="yes"/>
			<point x="107" y="170"/>
			<point x="53" y="119"/>
			<point x="53" y="53" type="curve" smooth="yes"/>
			<point x="53" y="-13"/>
			<point x="107" y="-64"/>
		</contour>
		<contour>
			<point x="171" y="-14" type="curve" smooth="yes"/>
			<point x="134" y="-14"/>
			<point x="103" y="15"/>
			<point x="103" y="53" type="curve" smooth="yes"/>
			<point x="103" y="91"/>
			<point x="134" y="120"/>
			<point x="171" y="120" type="curve" smooth="yes"/>
			<point x="208" y="120"/>
			<point x="238" y="91"/>
			<point x="238" y="53" type="curve" smooth="yes"/>
			<point x="238" y="15"/>
			<point x="208" y="-14"/>
		</contour>
	</outline>
</glyph>
<glyph name="dot-kata" format="2">
	<advance width="1000"/>
	<unicode hex="30FB"/>
	<outline>
		<contour>
			<point x="500" y="287" type="curve" smooth="yes"/>
			<point x="537" y="287"/>
			<point x="567" y="316"/>
			<point x="567" y="354" type="curve" smooth="yes"/>
			<point x="567" y="392"/>
			<point x="537" y="421"/>
			<point x="500" y="421" type="curve" smooth="yes"/>
			<point x="463" y="421"/>
			<point x="432" y="392"/>
			<point x="432" y="354" type="curve" smooth="yes"/>
			<point x="432" y="316"/>
			<point x="463" y="287"/>
		</contour>
	</outline>
</glyph>
<glyph name="uni4ECA" format="2">
	<advance width="1000"/>
	<unicode hex="4ECA"/>
	<outline>
		<contour>
			<point x="895" y="414" type="curve"/>
			<point x="947" y="495" type="line"/>
			<point x="761" y="595"/>
			<point x="642" y="707"/>
			<point x="554" y="845" type="curve"/>
			<point x="451" y="845" type="line"/>
			<point x="362" y="712"/>
			<point x="234" y="596"/>
			<point x="50" y="494" type="curve"/>
			<point x="105" y="416" type="line"/>
			<point x="275" y="512"/>
			<point x="416" y="640"/>
			<point x="501" y="764" type="curve"/>
			<point x="586" y="640"/>
			<point x="719" y="518"/>
		</contour>
		<contour>
			<point x="412" y="-35" type="line"/>
			<point x="698" y="119"/>
			<point x="799" y="234"/>
			<point x="799" y="368" type="curve"/>
			<point x="202" y="368" type="line"/>
			<point x="202" y="285" type="line"/>
			<point x="689" y="285" type="line"/>
			<point x="619" y="188"/>
			<point x="471" y="105"/>
			<point x="340" y="46" type="curve"/>
		</contour>
		<contour>
			<point x="545" y="408" type="curve"/>
			<point x="625" y="474" type="line"/>
			<point x="583" y="527"/>
			<point x="523" y="584"/>
			<point x="459" y="638" type="curve"/>
			<point x="397" y="578" type="line"/>
			<point x="439" y="540"/>
			<point x="516" y="460"/>
		</contour>
	</outline>
</glyph>
<glyph name="uni56FD" format="2">
	<advance width="1000"/>
	<unicode hex="56FD"/>
	<outline>
		<contour>
			<point x="86" y="-23" type="line"/>
			<point x="182" y="-23" type="line"/>
			<point x="182" y="5" type="line"/>
			<point x="804" y="5" type="line"/>
			<point x="804" y="-23" type="line"/>
			<point x="900" y="-23" type="line"/>
			<point x="900" y="836" type="line"/>
			<point x="86" y="836" type="line"/>
		</contour>
		<contour>
			<point x="172" y="91" type="line"/>
			<point x="172" y="750" type="line"/>
			<point x="814" y="750" type="line"/>
			<point x="814" y="91" type="line"/>
		</contour>
		<contour>
			<point x="221" y="152" type="line"/>
			<point x="762" y="152" type="line"/>
			<point x="762" y="233" type="line"/>
			<point x="524" y="233" type="line"/>
			<point x="524" y="406" type="line"/>
			<point x="730" y="406" type="line"/>
			<point x="730" y="488" type="line"/>
			<point x="524" y="488" type="line"/>
			<point x="524" y="603" type="line"/>
			<point x="745" y="603" type="line"/>
			<point x="745" y="685" type="line"/>
			<point x="238" y="685" type="line"/>
			<point x="238" y="603" type="line"/>
			<point x="451" y="603" type="line"/>
			<point x="451" y="488" type="line"/>
			<point x="256" y="488" type="line"/>
			<point x="256" y="406" type="line"/>
			<point x="451" y="406" type="line"/>
			<point x="451" y="233" type="line"/>
			<point x="221" y="233" type="line"/>
		</contour>
		<contour>
			<point x="676" y="253" type="curve"/>
			<point x="732" y="304" type="line"/>
			<point x="700" y="333"/>
			<point x="662" y="358"/>
			<point x="611" y="386" type="curve"/>
			<point x="565" y="339" type="line"/>
			<point x="611" y="314"/>
			<point x="648" y="284"/>
		</contour>
	</outline>
</glyph>
<glyph name="AE.sc" format="2">
	<advance width="842"/>
	<anchor x="439" y="0" name="bottom"/>
	<anchor x="439" y="575" name="top"/>
	<outline>
		<contour>
			<point x="44" y="0" type="line"/>
			<point x="143" y="0" type="line"/>
			<point x="355" y="575" type="line"/>
			<point x="267" y="575" type="line"/>
		</contour>
		<contour>
			<point x="152" y="147" type="line"/>
			<point x="435" y="147" type="line"/>
			<point x="435" y="230" type="line"/>
			<point x="341" y="230"/>
			<point x="246" y="230"/>
			<point x="152" y="230" type="curve"/>
		</contour>
		<contour>
			<point x="288" y="484" type="line"/>
			<point x="427" y="484" type="line"/>
			<point x="427" y="575" type="line"/>
			<point x="288" y="575" type="line"/>
		</contour>
		<component base="E.sc" xOffset="262"/>
	</outline>
</glyph>
<glyph name="Be-cy.sc" format="2">
	<advance width="577"/>
	<outline>
		<contour>
			<point x="95" y="0" type="line"/>
			<point x="327" y="0" type="line" smooth="yes"/>
			<point x="427" y="0"/>
			<point x="513" y="40"/>
			<point x="513" y="162" type="curve" smooth="yes"/>
			<point x="513" y="312"/>
			<point x="434" y="342"/>
			<point x="327" y="342" type="curve"/>
			<point x="189" y="342" type="line"/>
			<point x="189" y="484" type="line"/>
			<point x="454" y="484" type="line"/>
			<point x="454" y="575" type="line"/>
			<point x="95" y="575" type="line"/>
		</contour>
		<contour>
			<point x="189" y="90" type="line"/>
			<point x="189" y="252" type="line"/>
			<point x="315" y="252" type="line" smooth="yes"/>
			<point x="382" y="252"/>
			<point x="422" y="249"/>
			<point x="422" y="168" type="curve" smooth="yes"/>
			<point x="422" y="95"/>
			<point x="381" y="90"/>
			<point x="317" y="90" type="curve" smooth="yes"/>
		</contour>
	</outline>
</glyph>
<glyph name="Che-cy.sc" format="2">
	<advance width="640"/>
	<anchor x="620" y="0" name="bottomright"/>
	<anchor x="309" y="575" name="top"/>
	<outline>
		<contour>
			<point x="545" y="575" type="line"/>
			<point x="451" y="575" type="line"/>
			<point x="451" y="352" type="line" smooth="yes"/>
			<point x="451" y="343"/>
			<point x="451" y="334"/>
			<point x="449" y="326" type="curve" smooth="yes"/>
			<point x="442" y="284"/>
			<point x="371" y="255"/>
			<point x="307" y="255" type="curve" smooth="yes"/>
			<point x="240" y="255"/>
			<point x="201" y="274"/>
			<point x="187" y="312" type="curve" smooth="yes"/>
			<point x="182" y="323"/>
			<point x="181" y="338"/>
			<point x="181" y="350" type="curve" smooth="yes"/>
			<point x="181" y="575" type="line"/>
			<point x="87" y="575" type="line"/>
			<point x="87" y="347" type="line" smooth="yes"/>
			<point x="87" y="239"/>
			<point x="154" y="168"/>
			<point x="292" y="168" type="curve" smooth="yes"/>
			<point x="396" y="168"/>
			<point x="436" y="219"/>
			<point x="451" y="244" type="curve"/>
			<point x="451" y="0" type="line"/>
			<point x="545" y="0" type="line"/>
		</contour>
	</outline>
</glyph>
<glyph name="De-cy.sc" format="2">
	<advance width="754"/>
	<outline>
		<contour>
			<point x="500" y="0" type="line"/>
			<point x="594" y="0" type="line"/>
			<point x="594" y="575" type="line"/>
			<point x="259" y="575" type="line"/>
			<point x="259" y="485" type="line"/>
			<point x="500" y="485" type="line"/>
		</contour>
		<contour>
			<point x="85" y="0" type="line"/>
			<point x="676" y="0" type="line"/>
			<point x="676" y="90" type="line"/>
			<point x="85" y="90" type="line"/>
		</contour>
		<contour>
			<point x="93" y="90" type="curve"/>
			<point x="223" y="90" type="line"/>
			<point x="242" y="98"/>
			<point x="276" y="121"/>
			<point x="288" y="188" type="curve" smooth="yes"/>
			<point x="306" y="301"/>
			<point x="317" y="449"/>
			<point x="317" y="575" type="curve"/>
			<point x="224" y="575" type="line"/>
			<point x="224" y="448"/>
			<point x="215" y="305"/>
			<point x="194" y="192" type="curve" smooth="yes"/>
			<point x="183" y="127"/>
			<point x="130" y="90"/>
		</contour>
		<contour>
			<point x="591" y="-130" type="line"/>
			<point x="676" y="-130" type="line"/>
			<point x="676" y="0" type="line"/>
			<point x="591" y="0" type="line"/>
		</contour>
		<contour>
			<point x="85" y="-130" type="line"/>
			<point x="170" y="-130" type="line"/>
			<point x="170" y="0" type="line"/>
			<point x="85" y="0" type="line"/>
		</contour>
	</outline>
</glyph>
<glyph name="E-cy.sc" format="2">
	<advance width="620"/>
	<outline>
		<contour>
			<point x="97" y="251" type="line"/>
			<point x="426" y="251" type="line"/>
			<point x="426" y="341" type="line"/>
			<point x="97" y="341" type="line"/>
		</contour>
		<component base="C.sc"/>
	</outline>
</glyph>
<glyph name="E.sc" format="2">
	<advance width="580"/>
	<anchor x="290" y="0" name="bottom"/>
	<anchor x="507" y="0" name="ogonek"/>
	<anchor x="290" y="575" name="top"/>
	<anchor x="20" y="575" name="topleft"/>
	<outline>
		<contour>
			<point x="95" y="0" type="line"/>
			<point x="189" y="0" type="line"/>
			<point x="189" y="575" type="line"/>
			<point x="95" y="575" type="line"/>
		</contour>
		<contour>
			<point x="118" y="0" type="line"/>
			<point x="495" y="0" type="line"/>
			<point x="495" y="90" type="line"/>
			<point x="118" y="90" type="line"/>
		</contour>
		<contour>
			<point x="118" y="249" type="line"/>
			<point x="473" y="249" type="line"/>
			<point x="473" y="339" type="line"/>
			<point x="118" y="339" type="line"/>
		</contour>
		<contour>
			<point x="118" y="484" type="line"/>
			<point x="490" y="484" type="line"/>
			<point x="490" y="575" type="line"/>
			<point x="118" y="575" type="line"/>
		</contour>
	</outline>
</glyph>
<glyph name="Ef-cy.loclBGR.sc" format="2">
	<advance width="718"/>
	<outline>
		<contour>
			<point x="359" y="44" type="curve" smooth="yes"/>
			<point x="508" y="44"/>
			<point x="636" y="109"/>
			<point x="636" y="283" type="curve" smooth="yes"/>
			<point x="636" y="458"/>
			<point x="508" y="523"/>
			<point x="359" y="523" type="curve" smooth="yes"/>
			<point x="210" y="523"/>
			<point x="82" y="458"/>
			<point x="82" y="283" type="curve" smooth="yes"/>
			<point x="82" y="109"/>
			<point x="210" y="44"/>
		</contour>
		<contour>
			<point x="359" y="128" type="curve" smooth="yes"/>
			<point x="253" y="128"/>
			<point x="173" y="170"/>
			<point x="173" y="283" type="curve" smooth="yes"/>
			<point x="173" y="397"/>
			<point x="247" y="439"/>
			<point x="359" y="439" type="curve" smooth="yes"/>
			<point x="470" y="439"/>
			<point x="546" y="397"/>
			<point x="546" y="283" type="curve" smooth="yes"/>
			<point x="546" y="170"/>
			<point x="470" y="128"/>
		</contour>
		<contour>
			<point x="312" y="-14" type="line"/>
			<point x="406" y="-14" type="line"/>
			<point x="406" y="575" type="line"/>
			<point x="312" y="575" type="line"/>
		</contour>
	</outline>
</glyph>
<glyph name="El-cy.loclBGR" format="2">
	<advance width="692"/>
	<outline>
		<contour>
			<point x="571" y="0" type="line"/>
			<point x="669" y="0" type="line"/>
			<point x="396" y="752" type="line"/>
			<point x="295" y="752" type="line"/>
			<point x="23" y="0" type="line"/>
			<point x="121" y="0" type="line"/>
			<point x="346" y="622" type="line"/>
		</contour>
	</outline>
</glyph>
<glyph name="El-cy.loclBGR.sc" format="2">
	<advance width="632"/>
	<outline>
		<contour>
			<point x="44" y="0" type="line"/>
			<point x="143" y="0" type="line"/>
			<point x="355" y="575" type="line"/>
			<point x="267" y="575" type="line"/>
		</contour>
		<contour>
			<point x="490" y="0" type="line"/>
			<point x="588" y="0" type="line"/>
			<point x="365" y="575" type="line"/>
			<point x="279" y="575" type="line"/>
		</contour>
	</outline>
</glyph>
<glyph name="Eng.sc" format="2">
	<advance width="726"/>
	<outline>
		<contour>
			<point x="631" y="0" type="curve"/>
			<point x="537" y="20" type="line"/>
			<point x="537" y="-139"/>
			<point x="502" y="-159"/>
			<point x="360" y="-150" type="curve"/>
			<point x="356" y="-248" type="line"/>
			<point x="560" y="-248"/>
			<point x="631" y="-237"/>
		</contour>
		<component base="N.sc"/>
	</outline>
</glyph>
<glyph name="Ereversed-cy.sc" format="2">
	<advance width="620"/>
	<outline>
		<component base="C.sc" xScale="-1" xOffset="620"/>
		<contour>
			<point x="194" y="251" type="line"/>
			<point x="523" y="251" type="line"/>
			<point x="523" y="341" type="line"/>
			<point x="194" y="341" type="line"/>
		</contour>
	</outline>
</glyph>
<glyph name="Eth.sc" format="2">
	<advance width="639"/>
	<outline>
		<contour>
			<point x="32" y="336" type="line"/>
			<point x="32" y="249" type="line"/>
			<point x="296" y="249" type="line"/>
			<point x="296" y="336" type="line"/>
		</contour>
		<component base="D.sc"/>
	</outline>
</glyph>
<glyph name="F.sc" format="2">
	<advance width="537"/>
	<anchor x="284" y="0" name="bottom"/>
	<anchor x="284" y="575" name="top"/>
	<outline>
		<contour>
			<point x="95" y="0" type="line"/>
			<point x="189" y="0" type="line"/>
			<point x="189" y="249" type="line"/>
			<point x="468" y="249" type="line"/>
			<point x="468" y="339" type="line"/>
			<point x="189" y="339" type="line"/>
			<point x="189" y="484" type="line"/>
			<point x="489" y="484" type="line"/>
			<point x="489" y="575" type="line"/>
			<point x="95" y="575" type="line"/>
		</contour>
	</outline>
</glyph>
<glyph name="G.sc" format="2">
	<advance width="699"/>
	<anchor x="350" y="575" name="top"/>
	<anchor x="350" y="0" name="bottom"/>
	<outline>
		<contour>
			<point x="358" y="-14" type="curve" smooth="yes"/>
			<point x="549" y="-14"/>
			<point x="629" y="91"/>
			<point x="629" y="238" type="curve"/>
			<point x="629" y="270"/>
			<point x="629" y="291"/>
			<point x="629" y="328" type="curve"/>
			<point x="361" y="328" type="line"/>
			<point x="361" y="238" type="line"/>
			<point x="541" y="238" type="line"/>
			<point x="541" y="133"/>
			<point x="492" y="76"/>
			<point x="358" y="76" type="curve" smooth="yes"/>
			<point x="225" y="76"/>
			<point x="169" y="164"/>
			<point x="169" y="288" type="curve" smooth="yes"/>
			<point x="169" y="411"/>
			<point x="225" y="500"/>
			<point x="358" y="500" type="curve" smooth="yes"/>
			<point x="453" y="500"/>
			<point x="496" y="477"/>
			<point x="517" y="426" type="curve"/>
			<point x="618" y="426" type="line"/>
			<point x="606" y="476"/>
			<point x="550" y="589"/>
			<point x="358" y="589" type="curve" smooth="yes"/>
			<point x="167" y="589"/>
			<point x="74" y="451"/>
			<point x="74" y="288" type="curve" smooth="yes"/>
			<point x="74" y="125"/>
			<point x="167" y="-14"/>
		</contour>
	</outline>
</glyph>
<glyph name="Germandbls.sc" format="2">
	<advance width="687"/>
	<outline>
		<contour>
			<point x="87" y="-3" type="line"/>
			<point x="87" y="399" type="line" smooth="yes"/>
			<point x="87" y="526"/>
			<point x="186" y="594"/>
			<point x="329" y="594" type="curve" smooth="yes"/>
			<point x="461" y="594"/>
			<point x="509" y="562"/>
			<point x="554" y="510" type="curve" smooth="yes"/>
			<point x="586" y="473"/>
			<point x="575" y="432"/>
			<point x="562" y="414" type="curve" smooth="yes"/>
			<point x="485" y="309" type="line"/>
			<point x="548" y="286"/>
			<point x="595" y="247"/>
			<point x="595" y="169" type="curve" smooth="yes"/>
			<point x="595" y="25"/>
			<point x="434" y="-60"/>
			<point x="222" y="17" type="curve"/>
			<point x="281" y="103" type="line"/>
			<point x="326" y="87"/>
			<point x="362" y="81"/>
			<point x="391" y="81" type="curve" smooth="yes"/>
			<point x="473" y="81"/>
			<point x="497" y="126"/>
			<point x="497" y="165" type="curve" smooth="yes"/>
			<point x="497" y="215"/>
			<point x="482" y="231"/>
			<point x="401" y="251" type="curve" smooth="yes"/>
			<point x="372" y="258"/>
			<point x="374" y="302"/>
			<point x="394" y="331" type="curve"/>
			<point x="482" y="452" type="line"/>
			<point x="444" y="490"/>
			<point x="409" y="503"/>
			<point x="332" y="503" type="curve" smooth="yes"/>
			<point x="255" y="503"/>
			<point x="183" y="479"/>
			<point x="183" y="399" type="curve" smooth="yes"/>
			<point x="183" y="-3" type="line"/>
		</contour>
	</outline>
</glyph>
<glyph name="Gheupturn-cy.sc" format="2">
	<advance width="483"/>
	<outline>
		<contour>
			<point x="78" y="0" type="line"/>
			<point x="172" y="0" type="line"/>
			<point x="172" y="484" type="line"/>
			<point x="443" y="484" type="line"/>
			<point x="443" y="575" type="line"/>
			<point x="78" y="575" type="line"/>
		</contour>
		<contour>
			<point x="358" y="575" type="line"/>
			<point x="443" y="575" type="line"/>
			<point x="443" y="705" type="line"/>
			<point x="358" y="705" type="line"/>
		</contour>
	</outline>
</glyph>
<glyph name="Hardsign-cy.sc" format="2">
	<advance width="735"/>
	<anchor x="402" y="575" name="top"/>
	<outline>
		<contour>
			<point x="65" y="490" type="line"/>
			<point x="205" y="490" type="line"/>
			<point x="205" y="575" type="line"/>
			<point x="65" y="575" type="line"/>
		</contour>
		<component base="Softsign-cy.sc" xOffset="110"/>
	</outline>
</glyph>
<glyph name="Hbar.sc" format="2">
	<advance width="763"/>
	<outline>
		<contour>
			<point x="78" y="507" type="line"/>
			<point x="78" y="421" type="line"/>
			<point x="685" y="421" type="line"/>
			<point x="685" y="507" type="line"/>
		</contour>
		<component base="H.sc" xOffset="40"/>
	</outline>
</glyph>
<glyph name="I.sc" format="2">
	<advance width="290"/>
	<anchor x="145" y="0" name="bottom"/>
	<anchor x="247" y="10" name="ogonek"/>
	<anchor x="145" y="575" name="top"/>
	<anchor x="37" y="575" name="topleft"/>
	<outline>
		<contour>
			<point x="95" y="0" type="line"/>
			<point x="195" y="0" type="line"/>
			<point x="195" y="575" type="line"/>
			<point x="95" y="575" type="line"/>
		</contour>
	</outline>
</glyph>
<glyph name="Ii-cy.sc" format="2">
	<advance width="706"/>
	<anchor x="719" y="0" name="bottomright"/>
	<anchor x="353" y="575" name="top"/>
	<outline>
		<contour>
			<point x="95" y="0" type="line"/>
			<point x="193" y="0" type="line"/>
			<point x="518" y="427" type="line"/>
			<point x="517" y="0" type="line"/>
			<point x="611" y="0" type="line"/>
			<point x="611" y="575" type="line"/>
			<point x="513" y="575" type="line"/>
			<point x="189" y="144" type="line"/>
			<point x="189" y="575" type="line"/>
			<point x="95" y="575" type="line"/>
		</contour>
	</outline>
</glyph>
<glyph name="Iu-cy.sc" format="2">
	<advance width="912"/>
	<anchor x="529" y="575" name="top"/>
	<outline>
		<contour>
			<point x="119" y="245" type="line"/>
			<point x="323" y="245" type="line"/>
			<point x="323" y="335" type="line"/>
			<point x="119" y="335" type="line"/>
		</contour>
		<component base="I.sc"/>
		<component base="O.sc" xOffset="180"/>
	</outline>
</glyph>
<glyph name="J.sc" format="2">
	<advance width="418"/>
	<anchor x="36" y="-14" name="bottom"/>
	<anchor x="217" y="575" name="top"/>
	<outline>
		<contour>
			<point x="36" y="-14" type="line"/>
			<point x="250" y="-14"/>
			<point x="345" y="-13"/>
			<point x="345" y="232" type="curve" smooth="yes"/>
			<point x="345" y="575" type="line"/>
			<point x="251" y="575" type="line"/>
			<point x="251" y="252" type="line" smooth="yes"/>
			<point x="251" y="85"/>
			<point x="192" y="73"/>
			<point x="40" y="84" type="curve"/>
		</contour>
	</outline>
</glyph>
<glyph name="Ka-cy.sc" format="2">
	<advance width="635"/>
	<anchor x="627" y="0" name="bottomright"/>
	<anchor x="284" y="575" name="top"/>
	<outline>
		<contour>
			<point x="256" y="253" type="line"/>
			<point x="563" y="575" type="line"/>
			<point x="445" y="575" type="line"/>
			<point x="162" y="280" type="line"/>
		</contour>
		<contour>
			<point x="95" y="0" type="line"/>
			<point x="189" y="0" type="line"/>
			<point x="189" y="575" type="line"/>
			<point x="95" y="575" type="line"/>
		</contour>
		<contour>
			<point x="460" y="0" type="line"/>
			<point x="582" y="0" type="line"/>
			<point x="281" y="320" type="line"/>
			<point x="198" y="276" type="line"/>
		</contour>
		<contour>
			<point x="126" y="252" type="line"/>
			<point x="267" y="252" type="line"/>
			<point x="267" y="321" type="line"/>
			<point x="126" y="321" type="line"/>
		</contour>
	</outline>
</glyph>
<glyph name="OE.sc" format="2">
	<advance width="1045"/>
	<anchor x="522" y="0" name="bottom"/>
	<anchor x="522" y="575" name="top"/>
	<outline>
		<contour>
			<point x="366" y="-14" type="curve" smooth="yes"/>
			<point x="561" y="-14"/>
			<point x="658" y="141"/>
			<point x="658" y="287" type="curve" smooth="yes"/>
			<point x="658" y="433"/>
			<point x="561" y="589"/>
			<point x="366" y="589" type="curve" smooth="yes"/>
			<point x="171" y="589"/>
			<point x="74" y="453"/>
			<point x="74" y="287" type="curve" smooth="yes"/>
			<point x="74" y="121"/>
			<point x="171" y="-14"/>
		</contour>
		<contour>
			<point x="366" y="76" type="curve" smooth="yes"/>
			<point x="239" y="76"/>
			<point x="170" y="150"/>
			<point x="170" y="287" type="curve" smooth="yes"/>
			<point x="170" y="423"/>
			<point x="239" y="500"/>
			<point x="366" y="500" type="curve" smooth="yes"/>
			<point x="494" y="500"/>
			<point x="562" y="423"/>
			<point x="562" y="287" type="curve" smooth="yes"/>
			<point x="562" y="158"/>
			<point x="494" y="76"/>
		</contour>
		<component base="E.sc" xOffset="465"/>
	</outline>
</glyph>
<glyph name="Omega.sc" format="2">
	<advance width="757"/>
	<anchor x="379" y="0" name="bottom"/>
	<anchor x="130" y="575" name="topleft"/>
	<outline>
		<contour>
			<point x="80" y="85" type="line"/>
			<point x="94" y="0" type="line"/>
			<point x="313" y="0" type="line"/>
			<point x="305" y="93" type="line"/>
			<point x="208" y="136"/>
			<point x="186" y="217"/>
			<point x="186" y="300" type="curve" smooth="yes"/>
			<point x="186" y="440"/>
			<point x="247" y="500"/>
			<point x="380" y="500" type="curve" smooth="yes"/>
			<point x="513" y="500"/>
			<point x="573" y="440"/>
			<point x="573" y="300" type="curve" smooth="yes"/>
			<point x="573" y="217"/>
			<point x="549" y="136"/>
			<point x="452" y="93" type="curve"/>
			<point x="444" y="0" type="line"/>
			<point x="663" y="0" type="line"/>
			<point x="677" y="85" type="line"/>
			<point x="564" y="85" type="line"/>
			<point x="644" y="124"/>
			<point x="669" y="216"/>
			<point x="669" y="300" type="curve" smooth="yes"/>
			<point x="669" y="464"/>
			<point x="580" y="589"/>
			<point x="380" y="589" type="curve" smooth="yes"/>
			<point x="179" y="589"/>
			<point x="90" y="464"/>
			<point x="90" y="300" type="curve" smooth="yes"/>
			<point x="90" y="216"/>
			<point x="115" y="124"/>
			<point x="195" y="85" type="curve"/>
		</contour>
	</outline>
</glyph>
<glyph name="Oslash.sc" format="2">
	<advance width="732"/>
	<anchor x="412" y="0" name="bottom"/>
	<anchor x="412" y="575" name="top"/>
	<outline>
		<contour>
			<point x="177" y="-19" type="line"/>
			<point x="376" y="221"/>
			<point x="441" y="299"/>
			<point x="635" y="529" type="curve"/>
			<point x="568" y="582" type="line"/>
			<point x="377" y="350"/>
			<point x="314" y="274"/>
			<point x="112" y="34" type="curve"/>
		</contour>
		<component base="O.sc"/>
	</outline>
</glyph>
<glyph name="Psi.sc" format="2">
	<advance width="662"/>
	<outline>
		<contour>
			<point x="331" y="149" type="curve" smooth="yes"/>
			<point x="543" y="149"/>
			<point x="584" y="313"/>
			<point x="584" y="376" type="curve" smooth="yes"/>
			<point x="584" y="575" type="line"/>
			<point x="490" y="575" type="line"/>
			<point x="490" y="386" type="line" smooth="yes"/>
			<point x="490" y="316"/>
			<point x="456" y="242"/>
			<point x="331" y="242" type="curve" smooth="yes"/>
			<point x="199" y="242"/>
			<point x="172" y="313"/>
			<point x="172" y="386" type="curve" smooth="yes"/>
			<point x="172" y="575" type="line"/>
			<point x="78" y="575" type="line"/>
			<point x="78" y="376" type="line" smooth="yes"/>
			<point x="78" y="313"/>
			<point x="119" y="149"/>
		</contour>
		<contour>
			<point x="284" y="0" type="line"/>
			<point x="378" y="0" type="line"/>
			<point x="378" y="575" type="line"/>
			<point x="284" y="575" type="line"/>
		</contour>
	</outline>
</glyph>
<glyph name="Q.ss03.sc" format="2">
	<advance width="732"/>
	<anchor x="404" y="0" name="bottom"/>
	<anchor x="404" y="752" name="top"/>
	<outline>
		<contour>
			<point x="519" y="-46" type="curve"/>
			<point x="649" y="-46" type="line"/>
			<point x="542" y="48"/>
			<point x="507" y="85"/>
			<point x="470" y="167" type="curve"/>
			<point x="357" y="167" type="line"/>
			<point x="421" y="52"/>
			<point x="439" y="31"/>
		</contour>
		<component base="O.sc"/>
	</outline>
</glyph>
<glyph name="Q_u" format="2">
	<advance width="1436"/>
	<anchor x="402" y="0" name="bottom"/>
	<anchor x="402" y="752" name="top"/>
	<outline>
		<contour>
			<point x="401" y="-14" type="curve" smooth="yes"/>
			<point x="653" y="-14"/>
			<point x="750" y="164"/>
			<point x="750" y="379" type="curve" smooth="yes"/>
			<point x="750" y="594"/>
			<point x="653" y="772"/>
			<point x="401" y="772" type="curve" smooth="yes"/>
			<point x="149" y="772"/>
			<point x="52" y="594"/>
			<point x="52" y="379" type="curve" smooth="yes"/>
			<point x="52" y="164"/>
			<point x="149" y="-14"/>
		</contour>
		<contour>
			<point x="1082" y="-278" type="curve"/>
			<point x="1101" y="-259"/>
			<point x="1139" y="-205"/>
			<point x="1164" y="-177" type="curve"/>
			<point x="1021" y="-192"/>
			<point x="691" y="-148"/>
			<point x="504" y="43" type="curve"/>
			<point x="394" y="43" type="line"/>
			<point x="576" y="-196"/>
			<point x="901" y="-270"/>
		</contour>
		<contour>
			<point x="401" y="75" type="curve" smooth="yes"/>
			<point x="217" y="75"/>
			<point x="147" y="197"/>
			<point x="147" y="379" type="curve" smooth="yes"/>
			<point x="147" y="560"/>
			<point x="217" y="683"/>
			<point x="401" y="683" type="curve" smooth="yes"/>
			<point x="586" y="683"/>
			<point x="655" y="560"/>
			<point x="655" y="379" type="curve" smooth="yes"/>
			<point x="655" y="200"/>
			<point x="585" y="75"/>
		</contour>
		<component base="u" xOffset="800"/>
	</outline>
</glyph>
<glyph name="Q_y" format="2">
	<advance width="1385"/>
	<anchor x="402" y="0" name="bottom"/>
	<anchor x="402" y="752" name="top"/>
	<outline>
		<contour>
			<point x="401" y="-14" type="curve" smooth="yes"/>
			<point x="653" y="-14"/>
			<point x="750" y="164"/>
			<point x="750" y="379" type="curve" smooth="yes"/>
			<point x="750" y="594"/>
			<point x="653" y="772"/>
			<point x="401" y="772" type="curve" smooth="yes"/>
			<point x="149" y="772"/>
			<point x="52" y="594"/>
			<point x="52" y="379" type="curve" smooth="yes"/>
			<point x="52" y="164"/>
			<point x="149" y="-14"/>
		</contour>
		<contour>
			<point x="401" y="75" type="curve" smooth="yes"/>
			<point x="217" y="75"/>
			<point x="147" y="197"/>
			<point x="147" y="379" type="curve" smooth="yes"/>
			<point x="147" y="560"/>
			<point x="217" y="683"/>
			<point x="401" y="683" type="curve" smooth="yes"/>
			<point x="586" y="683"/>
			<point x="655" y="560"/>
			<point x="655" y="379" type="curve" smooth="yes"/>
			<point x="655" y="200"/>
			<point x="585" y="75"/>
		</contour>
		<contour>
			<point x="881" y="-187" type="curve"/>
			<point x="890" y="-278" type="line"/>
			<point x="976" y="-278"/>
			<point x="1059" y="-253"/>
			<point x="1117" y="-99" type="curve" smooth="yes"/>
			<point x="1346" y="504" type="line"/>
			<point x="1248" y="504" type="line"/>
			<point x="1088" y="79" type="line"/>
			<point x="926" y="504" type="line"/>
			<point x="827" y="504" type="line"/>
			<point x="1043" y="-38" type="line"/>
			<point x="1021" y="-96" type="line" smooth="yes"/>
			<point x="995" y="-164"/>
			<point x="950" y="-187"/>
		</contour>
		<contour>
			<point x="902" y="-278" type="curve"/>
			<point x="881" y="-187" type="line"/>
			<point x="712" y="-187"/>
			<point x="593" y="-115"/>
			<point x="504" y="43" type="curve"/>
			<point x="394" y="43" type="line"/>
			<point x="528" y="-182"/>
			<point x="654" y="-278"/>
		</contour>
	</outline>
</glyph>
<glyph name="R.sc" format="2">
	<advance width="612"/>
	<anchor x="304" y="0" name="bottom"/>
	<anchor x="304" y="575" name="top"/>
	<outline>
		<contour>
			<point x="95" y="0" type="line"/>
			<point x="189" y="0" type="line"/>
			<point x="189" y="224" type="line"/>
			<point x="305" y="224" type="line" smooth="yes"/>
			<point x="455" y="224"/>
			<point x="534" y="265"/>
			<point x="534" y="402" type="curve" smooth="yes"/>
			<point x="534" y="537"/>
			<point x="474" y="575"/>
			<point x="305" y="575" type="curve" smooth="yes"/>
			<point x="95" y="575" type="line"/>
		</contour>
		<contour>
			<point x="452" y="0" type="curve"/>
			<point x="553" y="0" type="line"/>
			<point x="544" y="15"/>
			<point x="535" y="33"/>
			<point x="528" y="62" type="curve" smooth="yes"/>
			<point x="509" y="142" type="line" smooth="yes"/>
			<point x="490" y="224"/>
			<point x="444" y="276"/>
			<point x="351" y="276" type="curve"/>
			<point x="295" y="224" type="line"/>
			<point x="337" y="224"/>
			<point x="395" y="229"/>
			<point x="415" y="137" type="curve" smooth="yes"/>
			<point x="433" y="55" type="line" smooth="yes"/>
			<point x="438" y="31"/>
			<point x="444" y="13"/>
		</contour>
		<contour>
			<point x="189" y="313" type="line"/>
			<point x="189" y="486" type="line"/>
			<point x="312" y="486" type="line" smooth="yes"/>
			<point x="410" y="486"/>
			<point x="439" y="474"/>
			<point x="439" y="406" type="curve" smooth="yes"/>
			<point x="439" y="334"/>
			<point x="414" y="313"/>
			<point x="315" y="313" type="curve" smooth="yes"/>
		</contour>
	</outline>
</glyph>
<glyph name="S.ss02" format="2">
	<advance width="696"/>
	<anchor x="358" y="-12" name="bottom"/>
	<anchor x="348" y="752" name="top"/>
	<outline>
		<contour>
			<point x="357" y="-14" type="curve"/>
			<point x="529" y="-14"/>
			<point x="650" y="49"/>
			<point x="650" y="223" type="curve" smooth="yes"/>
			<point x="650" y="349"/>
			<point x="547" y="409"/>
			<point x="435" y="427" type="curve" smooth="yes"/>
			<point x="277" y="452" type="line" smooth="yes"/>
			<point x="192" y="465"/>
			<point x="146" y="498"/>
			<point x="146" y="546" type="curve" smooth="yes"/>
			<point x="146" y="650"/>
			<point x="247" y="680"/>
			<point x="346" y="680" type="curve" smooth="yes"/>
			<point x="431" y="680"/>
			<point x="506" y="662"/>
			<point x="546" y="612" type="curve"/>
			<point x="616" y="679" type="line"/>
			<point x="559" y="742"/>
			<point x="460" y="772"/>
			<point x="335" y="772" type="curve" smooth="yes"/>
			<point x="162" y="772"/>
			<point x="49" y="684"/>
			<point x="49" y="546" type="curve" smooth="yes"/>
			<point x="49" y="428"/>
			<point x="148" y="371"/>
			<point x="250" y="355" type="curve" smooth="yes"/>
			<point x="408" y="330" type="line" smooth="yes"/>
			<point x="500" y="315"/>
			<point x="552" y="288"/>
			<point x="552" y="217" type="curve" smooth="yes"/>
			<point x="552" y="124"/>
			<point x="495" y="80"/>
			<point x="348" y="80" type="curve" smooth="yes"/>
			<point x="249" y="80"/>
			<point x="175" y="128"/>
			<point x="123" y="192" type="curve"/>
			<point x="48" y="126" type="line"/>
			<point x="94" y="64"/>
			<point x="176" y="-14"/>
		</contour>
	</outline>
</glyph>
<glyph name="Shcha-cy.sc" format="2">
	<advance width="944"/>
	<outline>
		<contour>
			<point x="777" y="-130" type="line"/>
			<point x="862" y="-130" type="line"/>
			<point x="862" y="90" type="line"/>
			<point x="777" y="90" type="line"/>
		</contour>
		<component base="Sha-cy.sc"/>
	</outline>
</glyph>
<glyph name="Thorn.sc" format="2">
	<advance width="597"/>
	<anchor x="302" y="0" name="bottom"/>
	<anchor x="302" y="575" name="top"/>
	<outline>
		<contour>
			<point x="95" y="0" type="line"/>
			<point x="189" y="0" type="line"/>
			<point x="189" y="129" type="line"/>
			<point x="308" y="129" type="line" smooth="yes"/>
			<point x="453" y="129"/>
			<point x="524" y="175"/>
			<point x="524" y="303" type="curve" smooth="yes"/>
			<point x="524" y="429"/>
			<point x="458" y="480"/>
			<point x="308" y="480" type="curve" smooth="yes"/>
			<point x="189" y="480" type="line"/>
			<point x="189" y="575" type="line"/>
			<point x="95" y="575" type="line"/>
		</contour>
		<contour>
			<point x="189" y="218" type="line"/>
			<point x="189" y="391" type="line"/>
			<point x="306" y="391" type="line" smooth="yes"/>
			<point x="391" y="391"/>
			<point x="429" y="383"/>
			<point x="429" y="304" type="curve" smooth="yes"/>
			<point x="429" y="224"/>
			<point x="398" y="218"/>
			<point x="308" y="218" type="curve" smooth="yes"/>
		</contour>
	</outline>
</glyph>
<glyph name="U-cy.sc" format="2">
	<advance width="621"/>
	<anchor x="311" y="575" name="top"/>
	<outline>
		<contour>
			<point x="111" y="-14" type="line"/>
			<point x="228" y="-14" type="line" smooth="yes"/>
			<point x="286" y="-14"/>
			<point x="296" y="-3"/>
			<point x="350" y="116" type="curve" smooth="yes"/>
			<point x="559" y="575" type="line"/>
			<point x="455" y="575" type="line"/>
			<point x="317" y="268" type="line"/>
			<point x="169" y="575" type="line"/>
			<point x="62" y="575" type="line"/>
			<point x="268" y="160" type="line"/>
			<point x="252" y="125" type="line" smooth="yes"/>
			<point x="232" y="81"/>
			<point x="213" y="74"/>
			<point x="150" y="76" type="curve" smooth="yes"/>
			<point x="113" y="77" type="line"/>
		</contour>
	</outline>
</glyph>
<glyph name="V.sc" format="2">
	<advance width="670"/>
	<anchor x="335" y="0" name="bottom"/>
	<anchor x="335" y="575" name="top"/>
	<outline>
		<contour>
			<point x="265" y="0" type="line"/>
			<point x="408" y="0" type="line"/>
			<point x="618" y="575" type="line"/>
			<point x="514" y="575" type="line"/>
			<point x="336" y="96" type="line"/>
			<point x="158" y="575" type="line"/>
			<point x="53" y="575" type="line"/>
		</contour>
	</outline>
</glyph>
<glyph name="W.sc" format="2">
	<advance width="925"/>
	<anchor x="463" y="0" name="bottom"/>
	<anchor x="463" y="575" name="top"/>
	<outline>
		<contour>
			<point x="207" y="0" type="line"/>
			<point x="335" y="0" type="line"/>
			<point x="463" y="453" type="line"/>
			<point x="590" y="0" type="line"/>
			<point x="718" y="0" type="line"/>
			<point x="868" y="575" type="line"/>
			<point x="764" y="575" type="line"/>
			<point x="652" y="98" type="line"/>
			<point x="527" y="575" type="line"/>
			<point x="399" y="575" type="line"/>
			<point x="273" y="98" type="line"/>
			<point x="162" y="575" type="line"/>
			<point x="57" y="575" type="line"/>
		</contour>
	</outline>
</glyph>
<glyph name="X.sc" format="2">
	<advance width="724"/>
	<anchor x="363" y="0" name="bottom"/>
	<anchor x="363" y="575" name="top"/>
	<outline>
		<contour>
			<point x="59" y="0" type="line"/>
			<point x="176" y="0" type="line"/>
			<point x="361" y="246" type="line"/>
			<point x="545" y="0" type="line"/>
			<point x="665" y="0" type="line"/>
			<point x="430" y="301" type="line"/>
			<point x="637" y="575" type="line"/>
			<point x="522" y="575" type="line"/>
			<point x="361" y="358" type="line"/>
			<point x="206" y="575" type="line"/>
			<point x="83" y="575" type="line"/>
			<point x="290" y="301" type="line"/>
		</contour>
	</outline>
</glyph>
<glyph name="Y.sc" format="2">
	<advance width="593"/>
	<anchor x="297" y="0" name="bottom"/>
	<anchor x="297" y="575" name="top"/>
	<anchor x="36" y="575" name="topleft"/>
	<outline>
		<contour>
			<point x="251" y="0" type="line"/>
			<point x="343" y="0" type="line"/>
			<point x="343" y="271" type="line"/>
			<point x="558" y="575" type="line"/>
			<point x="445" y="575" type="line"/>
			<point x="297" y="366" type="line"/>
			<point x="149" y="575" type="line"/>
			<point x="36" y="575" type="line"/>
			<point x="251" y="271" type="line"/>
		</contour>
	</outline>
</glyph>
<glyph name="Z.sc" format="2">
	<advance width="611"/>
	<anchor x="306" y="0" name="bottom"/>
	<anchor x="306" y="288" name="center"/>
	<anchor x="306" y="575" name="top"/>
	<outline>
		<contour>
			<point x="59" y="0" type="line"/>
			<point x="552" y="0" type="line"/>
			<point x="552" y="90" type="line"/>
			<point x="188" y="90" type="line"/>
			<point x="552" y="486" type="line"/>
			<point x="552" y="575" type="line"/>
			<point x="59" y="575" type="line"/>
			<point x="59" y="486" type="line"/>
			<point x="424" y="486" type="line"/>
			<point x="59" y="90" type="line"/>
		</contour>
	</outline>
</glyph>
